<?xml version="1.0" encoding="utf-8"?>
<svg version="1.1" xmlns:xlink="http://www.w3.org/1999/xlink" width="40px" height="50px" xmlns="http://www.w3.org/2000/svg">
  <defs>
    <filter x="576px" y="136px" width="40px" height="50px" filterUnits="userSpaceOnUse" id="filter401">
      <feOffset dx="1" dy="1" in="SourceAlpha" result="shadowOffsetInner" />
      <feGaussianBlur stdDeviation="2.5" in="shadowOffsetInner" result="shadowGaussian" />
      <feComposite in2="shadowGaussian" operator="atop" in="SourceAlpha" result="shadowComposite" />
      <feColorMatrix type="matrix" values="0 0 0 0 0  0 0 0 0 0  0 0 0 0 0  0 0 0 0.698039215686274 0  " in="shadowComposite" />
    </filter>
    <g id="widget402">
      <path d="M 595 179.036928468354  C 589.2 169.40734059591  580.5 163.629587872444  580.5 154  C 580.5 148.985714285714  583.4 140.5  595 140.5  C 606.6 140.5  609.5 148.985714285714  609.5 154  C 609.5 163.629587872444  600.8 169.40734059591  595 179.036928468354  Z " fill-rule="nonzero" fill="#009dd9" stroke="none" />
      <path d="M 595 180  C 589 170  580 164  580 154  C 580 148.8  583 140  595 140  C 607 140  610 148.8  610 154  C 610 164  601 170  595 180  Z M 595 178.073856936707  C 600.6 168.81468119182  609 163.259175744887  609 154  C 609 149.171428571429  606.2 141  595 141  C 583.8 141  581 149.171428571429  581 154  C 581 163.259175744887  589.4 168.81468119182  595 178.073856936707  Z " fill-rule="nonzero" fill="#ffffff" stroke="none" />
    </g>
  </defs>
  <g transform="matrix(1 0 0 1 -576 -136 )">
    <use xlink:href="#widget402" filter="url(#filter401)" />
    <use xlink:href="#widget402" />
  </g>
</svg>