<?xml version="1.0" encoding="utf-8"?>
<svg version="1.1" xmlns:xlink="http://www.w3.org/1999/xlink" width="28px" height="34px" xmlns="http://www.w3.org/2000/svg">
  <defs>
    <filter x="378px" y="181px" width="28px" height="34px" filterUnits="userSpaceOnUse" id="filter1023">
      <feOffset dx="1" dy="1" in="SourceAlpha" result="shadowOffsetInner" />
      <feGaussianBlur stdDeviation="2.5" in="shadowOffsetInner" result="shadowGaussian" />
      <feComposite in2="shadowGaussian" operator="atop" in="SourceAlpha" result="shadowComposite" />
      <feColorMatrix type="matrix" values="0 0 0 0 0  0 0 0 0 0  0 0 0 0 0  0 0 0 0.698039215686274 0  " in="shadowComposite" />
    </filter>
    <g id="widget1024">
      <path d="M 391 208.036928468354  C 387.6 202.40734059591  382.5 199.029587872444  382.5 193.4  C 382.5 190.465714285714  384.2 185.5  391 185.5  C 397.8 185.5  399.5 190.465714285714  399.5 193.4  C 399.5 199.029587872444  394.4 202.40734059591  391 208.036928468354  Z " fill-rule="nonzero" fill="#009dd9" stroke="none" />
      <path d="M 391 209  C 387.4 203  382 199.4  382 193.4  C 382 190.28  383.8 185  391 185  C 398.2 185  400 190.28  400 193.4  C 400 199.4  394.6 203  391 209  Z M 391 207.073856936707  C 394.2 201.81468119182  399 198.659175744887  399 193.4  C 399 190.651428571429  397.4 186  391 186  C 384.6 186  383 190.651428571429  383 193.4  C 383 198.659175744887  387.8 201.81468119182  391 207.073856936707  Z " fill-rule="nonzero" fill="#ffffff" stroke="none" />
    </g>
  </defs>
  <g transform="matrix(1 0 0 1 -378 -181 )">
    <use xlink:href="#widget1024" filter="url(#filter1023)" />
    <use xlink:href="#widget1024" />
  </g>
</svg>