<?xml version="1.0" encoding="utf-8"?>
<svg version="1.1" xmlns:xlink="http://www.w3.org/1999/xlink" width="40px" height="50px" xmlns="http://www.w3.org/2000/svg">
  <defs>
    <filter x="566px" y="126px" width="40px" height="50px" filterUnits="userSpaceOnUse" id="filter37">
      <feOffset dx="1" dy="1" in="SourceAlpha" result="shadowOffsetInner" />
      <feGaussianBlur stdDeviation="2.5" in="shadowOffsetInner" result="shadowGaussian" />
      <feComposite in2="shadowGaussian" operator="atop" in="SourceAlpha" result="shadowComposite" />
      <feColorMatrix type="matrix" values="0 0 0 0 0  0 0 0 0 0  0 0 0 0 0  0 0 0 0.698039215686274 0  " in="shadowComposite" />
    </filter>
    <g id="widget38">
      <path d="M 585 169.036928468354  C 579.2 159.40734059591  570.5 153.629587872444  570.5 144  C 570.5 138.985714285714  573.4 130.5  585 130.5  C 596.6 130.5  599.5 138.985714285714  599.5 144  C 599.5 153.629587872444  590.8 159.40734059591  585 169.036928468354  Z " fill-rule="nonzero" fill="#009dd9" stroke="none" />
      <path d="M 585 170  C 579 160  570 154  570 144  C 570 138.8  573 130  585 130  C 597 130  600 138.8  600 144  C 600 154  591 160  585 170  Z M 585 168.073856936707  C 590.6 158.81468119182  599 153.259175744887  599 144  C 599 139.171428571429  596.2 131  585 131  C 573.8 131  571 139.171428571429  571 144  C 571 153.259175744887  579.4 158.81468119182  585 168.073856936707  Z " fill-rule="nonzero" fill="#ffffff" stroke="none" />
    </g>
  </defs>
  <g transform="matrix(1 0 0 1 -566 -126 )">
    <use xlink:href="#widget38" filter="url(#filter37)" />
    <use xlink:href="#widget38" />
  </g>
</svg>