<?xml version="1.0" encoding="utf-8"?>
<svg version="1.1" xmlns:xlink="http://www.w3.org/1999/xlink" width="12px" height="12px" viewBox="232 249  12 12" xmlns="http://www.w3.org/2000/svg">
  <path d="M 238 249  C 241.36 249  244 251.64  244 255  C 244 258.36  241.36 261  238 261  C 234.64 261  232 258.36  232 255  C 232 251.64  234.64 249  238 249  Z " fill-rule="nonzero" fill="#ffffff" stroke="none" />
  <path d="M 238 249.5  C 241.08 249.5  243.5 251.92  243.5 255  C 243.5 258.08  241.08 260.5  238 260.5  C 234.92 260.5  232.5 258.08  232.5 255  C 232.5 251.92  234.92 249.5  238 249.5  Z " stroke-width="1" stroke="#797979" fill="none" />
  <path d="M 238 258  C 236.32 258  235 256.68  235 255  C 235 253.32  236.32 252  238 252  C 239.68 252  241 253.32  241 255  C 241 256.68  239.68 258  238 258  " fill-rule="nonzero" fill="#797979" stroke="none" />
</svg>