<?xml version="1.0" encoding="utf-8"?>
<svg version="1.1" xmlns:xlink="http://www.w3.org/1999/xlink" width="333px" height="375px" xmlns="http://www.w3.org/2000/svg">
  <g transform="matrix(1 0 0 1 -542 -91 )">
    <path d="M 708.5 92.5  C 800.9 92.5  873.5 174.34  873.5 278.5  C 873.5 382.66  800.9 464.5  708.5 464.5  C 616.1 464.5  543.5 382.66  543.5 278.5  C 543.5 174.34  616.1 92.5  708.5 92.5  Z " fill-rule="nonzero" fill="#ffffff" stroke="none" fill-opacity="0" />
    <path d="M 708.5 92  C 801.18 92  874 174.06  874 278.5  C 874 382.94  801.18 465  708.5 465  C 615.82 465  543 382.94  543 278.5  C 543 174.06  615.82 92  708.5 92  Z " stroke-width="2" stroke-dasharray="18,8" stroke="#ffffff" fill="none" />
  </g>
</svg>