<?xml version="1.0" encoding="utf-8"?>
<svg version="1.1" xmlns:xlink="http://www.w3.org/1999/xlink" width="20px" height="20px" xmlns="http://www.w3.org/2000/svg">
  <g transform="matrix(1 0 0 1 -392 -169 )">
    <path d="M 19.6563573883161 9.53907815631263  C 19.8854524627721 9.67267869071476  20 9.82631930527722  20 10  C 20 10.1736806947228  19.8854524627721 10.3273213092852  19.6563573883161 10.4609218436874  L 3.6426116838488 19.7995991983968  C 3.4135166093929 19.9331997327989  3.15005727376861 20  2.85223367697594 20  C 2.55441008018328 20  2.29095074455899 19.9331997327989  2.06185567010309 19.7995991983968  L 0.343642611683849 18.7975951903808  C 0.11454753722795 18.6639946559786  0 18.5103540414162  0 18.3366733466934  C 0 18.1629926519706  0.11454753722795 18.0093520374081  0.343642611683849 17.875751503006  L 13.8487972508591 10  L 0.343642611683849 2.12424849699399  C 0.11454753722795 1.99064796259185  0 1.83700734802939  0 1.66332665330661  C 0 1.48964595858383  0.11454753722795 1.33600534402137  0.343642611683849 1.20240480961924  L 2.06185567010309 0.200400801603207  C 2.29095074455899 0.0668002672010681  2.55441008018328 0  2.85223367697594 0  C 3.15005727376861 0  3.4135166093929 0.0668002672010681  3.6426116838488 0.200400801603207  L 19.6563573883161 9.53907815631263  Z " fill-rule="nonzero" fill="#f59a23" stroke="none" transform="matrix(1 0 0 1 392 169 )" />
  </g>
</svg>