<?xml version="1.0" encoding="utf-8"?>
<svg version="1.1" xmlns:xlink="http://www.w3.org/1999/xlink" width="56px" height="70px" xmlns="http://www.w3.org/2000/svg">
  <g transform="matrix(1 0 0 1 -504 -412 )">
    <path d="M 504 412  L 560 412  L 560 482  L 504 482  L 504 412  " fill-rule="nonzero" fill="#cccccc" stroke="none" />
    <path d="M 508 416  L 556 416  L 556 478  L 508 478  L 508 416  " fill-rule="nonzero" fill="#ffffff" stroke="none" />
    <path d="M 537.32 430.9  C 534.968 430.9  533.12 429.052  533.12 426.7  C 533.12 424.348  534.968 422.5  537.32 422.5  C 539.672 422.5  541.52 424.348  541.52 426.7  C 541.52 429.052  539.672 430.9  537.32 430.9  " fill-rule="nonzero" fill="#cccccc" stroke="none" />
    <path d="M 510 477  L 510 444.55  L 521.25 429.8  L 537 441.6  L 546 438.65  L 555 441.6  L 555 477  L 510 477  " fill-rule="nonzero" fill="#169bd5" stroke="none" />
  </g>
</svg>