<?xml version="1.0" encoding="utf-8"?>
<svg version="1.1" xmlns:xlink="http://www.w3.org/1999/xlink" width="414px" height="235px" xmlns="http://www.w3.org/2000/svg">
  <g>
    <path d="M 0 0  L 414 0  L 414 235  L 0 235  L 0 0  " fill-rule="nonzero" fill="#cccccc" stroke="none" />
    <path d="M 16 16  L 398 16  L 398 219  L 16 219  L 16 16  " fill-rule="nonzero" fill="#ffffff" stroke="none" />
    <path d="M 232.905 70.5  C 223.035 70.5  215.28 62.745  215.28 52.875  C 215.28 43.005  223.035 35.25  232.905 35.25  C 242.775 35.25  250.53 43.005  250.53 52.875  C 250.53 62.745  242.775 70.5  232.905 70.5  " fill-rule="nonzero" fill="#cccccc" stroke="none" />
    <path d="M 22 213  L 22 107.95  L 114.5 60.2  L 244 147.949275362319  L 318 88.85  L 392 147.949275362319  L 392 213  L 22 213  " fill-rule="nonzero" fill="#169bd5" stroke="none" />
  </g>
</svg>