<?xml version="1.0" encoding="utf-8"?>
<svg version="1.1" xmlns:xlink="http://www.w3.org/1999/xlink" width="79px" height="50px" xmlns="http://www.w3.org/2000/svg">
  <g transform="matrix(1 0 0 1 -110 0 )">
    <path d="M 110 0  L 189 0  L 189 50  L 110 50  L 110 0  " fill-rule="nonzero" fill="#cccccc" stroke="none" />
    <path d="M 114 4  L 185 4  L 185 46  L 114 46  L 114 4  " fill-rule="nonzero" fill="#ffffff" stroke="none" />
    <path d="M 154.83 15  C 152.73 15  151.08 13.35  151.08 11.25  C 151.08 9.15  152.73 7.5  154.83 7.5  C 156.93 7.5  158.58 9.15  158.58 11.25  C 158.58 13.35  156.93 15  154.83 15  " fill-rule="nonzero" fill="#cccccc" stroke="none" />
    <path d="M 116 45  L 116 23.55  L 133 13.8  L 156.8 30.1898734177215  L 170.4 19.65  L 184 30.1898734177215  L 184 45  L 116 45  " fill-rule="nonzero" fill="#169bd5" stroke="none" />
  </g>
</svg>