<?xml version="1.0" encoding="utf-8"?>
<svg version="1.1" xmlns:xlink="http://www.w3.org/1999/xlink" width="60px" height="60px" xmlns="http://www.w3.org/2000/svg">
  <g transform="matrix(1 0 0 1 -354 -588 )">
    <path d="M 354 588  L 414 588  L 414 648  L 354 648  L 354 588  " fill-rule="nonzero" fill="#cccccc" stroke="none" />
    <path d="M 358 592  L 410 592  L 410 644  L 358 644  L 358 592  " fill-rule="nonzero" fill="#ffffff" stroke="none" />
    <path d="M 389.7 606  C 387.18 606  385.2 604.02  385.2 601.5  C 385.2 598.98  387.18 597  389.7 597  C 392.22 597  394.2 598.98  394.2 601.5  C 394.2 604.02  392.22 606  389.7 606  " fill-rule="nonzero" fill="#cccccc" stroke="none" />
    <path d="M 360 643  L 360 616.05  L 372.25 603.8  L 389.4 613.6  L 399.2 611.15  L 409 613.6  L 409 643  L 360 643  " fill-rule="nonzero" fill="#169bd5" stroke="none" />
  </g>
</svg>