<?xml version="1.0" encoding="utf-8"?>
<svg version="1.1" xmlns:xlink="http://www.w3.org/1999/xlink" width="84px" height="50px" xmlns="http://www.w3.org/2000/svg">
  <g>
    <path d="M 0 0  L 84 0  L 84 50  L 0 50  L 0 0  " fill-rule="nonzero" fill="#cccccc" stroke="none" />
    <path d="M 4 4  L 80 4  L 80 46  L 4 46  L 4 4  " fill-rule="nonzero" fill="#ffffff" stroke="none" />
    <path d="M 47.43 15  C 45.33 15  43.68 13.35  43.68 11.25  C 43.68 9.15  45.33 7.5  47.43 7.5  C 49.53 7.5  51.18 9.15  51.18 11.25  C 51.18 13.35  49.53 15  47.43 15  " fill-rule="nonzero" fill="#cccccc" stroke="none" />
    <path d="M 6 45  L 6 23.55  L 24.25 13.8  L 49.8 31.0714285714286  L 64.4 19.65  L 79 31.0714285714286  L 79 45  L 6 45  " fill-rule="nonzero" fill="#169bd5" stroke="none" />
  </g>
</svg>