<?xml version="1.0" encoding="utf-8"?>
<svg version="1.1" xmlns:xlink="http://www.w3.org/1999/xlink" width="190px" height="72px" xmlns="http://www.w3.org/2000/svg">
  <defs>
    <mask fill="white" id="clip62">
      <path d="M 5 72  C 2.225 72  0 69.775  0 67  L 0 5  C 0 2.225  2.225 0  5 0  L 185 0  C 187.775 0  190 2.225  190 5  L 190 67  C 190 69.775  187.775 72  185 72  " fill-rule="evenodd" />
    </mask>
  </defs>
  <g>
    <path d="M 0 0  L 190 0  L 190 72  L 0 72  L 0 0  " fill-rule="nonzero" fill="#cccccc" stroke="none" mask="url(#clip62)" />
    <path d="M 5 5  L 185 5  L 185 67  L 5 67  L 5 5  " fill-rule="nonzero" fill="#ffffff" stroke="none" mask="url(#clip62)" />
    <path d="M 104.2 21.6  C 101.176 21.6  98.8 19.224  98.8 16.2  C 98.8 13.176  101.176 10.8  104.2 10.8  C 107.224 10.8  109.6 13.176  109.6 16.2  C 109.6 19.224  107.224 21.6  104.2 21.6  " fill-rule="nonzero" fill="#cccccc" stroke="none" mask="url(#clip62)" />
    <path d="M 7 65  L 7 33.1  L 51 18.6  L 112.6 51.8126315789474  L 147.8 27.3  L 183 51.8126315789474  L 183 65  L 7 65  " fill-rule="nonzero" fill="#169bd5" stroke="none" mask="url(#clip62)" />
  </g>
</svg>