<?xml version="1.0" encoding="utf-8"?>
<svg version="1.1" xmlns:xlink="http://www.w3.org/1999/xlink" width="77px" height="50px" xmlns="http://www.w3.org/2000/svg">
  <g transform="matrix(1 0 0 1 -214 0 )">
    <path d="M 214 0  L 291 0  L 291 50  L 214 50  L 214 0  " fill-rule="nonzero" fill="#cccccc" stroke="none" />
    <path d="M 218 4  L 287 4  L 287 46  L 218 46  L 218 4  " fill-rule="nonzero" fill="#ffffff" stroke="none" />
    <path d="M 257.79 15  C 255.69 15  254.04 13.35  254.04 11.25  C 254.04 9.15  255.69 7.5  257.79 7.5  C 259.89 7.5  261.54 9.15  261.54 11.25  C 261.54 13.35  259.89 15  257.79 15  " fill-rule="nonzero" fill="#cccccc" stroke="none" />
    <path d="M 220 45  L 220 23.55  L 236.5 13.8  L 259.6 29.8051948051948  L 272.8 19.65  L 286 29.8051948051948  L 286 45  L 220 45  " fill-rule="nonzero" fill="#169bd5" stroke="none" />
  </g>
</svg>