<?xml version="1.0" encoding="utf-8"?>
<svg version="1.1" xmlns:xlink="http://www.w3.org/1999/xlink" width="392px" height="85px" xmlns="http://www.w3.org/2000/svg">
  <defs>
    <mask fill="white" id="clip461">
      <path d="M 5 112  C 2.225 112  0 109.775  0 107  L 0 32  C 0 29.225  2.225 27  5 27  L 387 27  C 389.775 27  392 29.225  392 32  L 392 107  C 392 109.775  389.775 112  387 112  " fill-rule="evenodd" />
    </mask>
  </defs>
  <g transform="matrix(1 0 0 1 0 -27 )">
    <path d="M 0 27  L 392 27  L 392 112  L 0 112  L 0 27  " fill-rule="nonzero" fill="#cccccc" stroke="none" mask="url(#clip461)" />
    <path d="M 6 33  L 386 33  L 386 106  L 6 106  L 6 33  " fill-rule="nonzero" fill="#ffffff" stroke="none" mask="url(#clip461)" />
    <path d="M 210.215 52.5  C 206.645 52.5  203.84 49.695  203.84 46.125  C 203.84 42.555  206.645 39.75  210.215 39.75  C 213.785 39.75  216.59 42.555  216.59 46.125  C 216.59 49.695  213.785 52.5  210.215 52.5  " fill-rule="nonzero" fill="#cccccc" stroke="none" mask="url(#clip461)" />
    <path d="M 8 104  L 8 66.05  L 102 48.8  L 233.6 95.0229591836735  L 308.8 59.15  L 384 95.0229591836735  L 384 104  L 8 104  " fill-rule="nonzero" fill="#169bd5" stroke="none" mask="url(#clip461)" />
  </g>
</svg>