<?xml version="1.0" encoding="utf-8"?>
<svg version="1.1" xmlns:xlink="http://www.w3.org/1999/xlink" width="75px" height="50px" xmlns="http://www.w3.org/2000/svg">
  <g transform="matrix(1 0 0 1 -317 0 )">
    <path d="M 317 0  L 392 0  L 392 50  L 317 50  L 317 0  " fill-rule="nonzero" fill="#cccccc" stroke="none" />
    <path d="M 321 4  L 388 4  L 388 46  L 321 46  L 321 4  " fill-rule="nonzero" fill="#ffffff" stroke="none" />
    <path d="M 359.75 15  C 357.65 15  356 13.35  356 11.25  C 356 9.15  357.65 7.5  359.75 7.5  C 361.85 7.5  363.5 9.15  363.5 11.25  C 363.5 13.35  361.85 15  359.75 15  " fill-rule="nonzero" fill="#cccccc" stroke="none" />
    <path d="M 323 45  L 323 23.55  L 339 13.8  L 361.4 29.4  L 374.2 19.65  L 387 29.4  L 387 45  L 323 45  " fill-rule="nonzero" fill="#169bd5" stroke="none" />
  </g>
</svg>