<?xml version="1.0" encoding="utf-8"?>
<svg version="1.1" xmlns:xlink="http://www.w3.org/1999/xlink" width="188px" height="72px" xmlns="http://www.w3.org/2000/svg">
  <defs>
    <mask fill="white" id="clip194">
      <path d="M 209 72  C 206.225 72  204 69.775  204 67  L 204 5  C 204 2.225  206.225 0  209 0  L 387 0  C 389.775 0  392 2.225  392 5  L 392 67  C 392 69.775  389.775 72  387 72  " fill-rule="evenodd" />
    </mask>
  </defs>
  <g transform="matrix(1 0 0 1 -204 0 )">
    <path d="M 204 0  L 392 0  L 392 72  L 204 72  L 204 0  " fill-rule="nonzero" fill="#cccccc" stroke="none" mask="url(#clip194)" />
    <path d="M 209 5  L 387 5  L 387 67  L 209 67  L 209 5  " fill-rule="nonzero" fill="#ffffff" stroke="none" mask="url(#clip194)" />
    <path d="M 307.16 21.6  C 304.136 21.6  301.76 19.224  301.76 16.2  C 301.76 13.176  304.136 10.8  307.16 10.8  C 310.184 10.8  312.56 13.176  312.56 16.2  C 312.56 19.224  310.184 21.6  307.16 21.6  " fill-rule="nonzero" fill="#cccccc" stroke="none" mask="url(#clip194)" />
    <path d="M 211 65  L 211 33.1  L 254.5 18.6  L 315.4 51.6723404255319  L 350.2 27.3  L 385 51.6723404255319  L 385 65  L 211 65  " fill-rule="nonzero" fill="#169bd5" stroke="none" mask="url(#clip194)" />
  </g>
</svg>