<?xml version="1.0" encoding="utf-8"?>
<svg version="1.1" xmlns:xlink="http://www.w3.org/1999/xlink" width="112px" height="57px" xmlns="http://www.w3.org/2000/svg">
  <defs>
    <mask fill="white" id="clip38">
      <path d="M 5 57  C 2.225 57  0 54.775  0 52  L 0 5  C 0 2.225  2.225 0  5 0  L 107 0  C 109.775 0  112 2.225  112 5  L 112 52  C 112 54.775  109.775 57  107 57  " fill-rule="evenodd" />
    </mask>
  </defs>
  <g>
    <path d="M 0 0  L 112 0  L 112 57  L 0 57  L 0 0  " fill-rule="nonzero" fill="#cccccc" stroke="none" mask="url(#clip38)" />
    <path d="M 4 4  L 108 4  L 108 53  L 4 53  L 4 4  " fill-rule="nonzero" fill="#ffffff" stroke="none" mask="url(#clip38)" />
    <path d="M 62.515 17.1  C 60.121 17.1  58.24 15.219  58.24 12.825  C 58.24 10.431  60.121 8.55  62.515 8.55  C 64.909 8.55  66.79 10.431  66.79 12.825  C 66.79 15.219  64.909 17.1  62.515 17.1  " fill-rule="nonzero" fill="#cccccc" stroke="none" mask="url(#clip38)" />
    <path d="M 6 52  L 6 26.7  L 31.25 15.2  L 66.6 37.9535714285714  L 86.8 22.1  L 107 37.9535714285714  L 107 52  L 6 52  " fill-rule="nonzero" fill="#169bd5" stroke="none" mask="url(#clip38)" />
  </g>
</svg>