<?xml version="1.0" encoding="utf-8"?>
<svg version="1.1" xmlns:xlink="http://www.w3.org/1999/xlink" width="61px" height="35px" xmlns="http://www.w3.org/2000/svg">
  <g>
    <path d="M 0 0  L 61 0  L 61 35  L 0 35  L 0 0  " fill-rule="nonzero" fill="#cccccc" stroke="none" />
    <path d="M 2 2  L 59 2  L 59 33  L 2 33  L 2 2  " fill-rule="nonzero" fill="#ffffff" stroke="none" />
    <path d="M 34.345 10.5  C 32.875 10.5  31.72 9.345  31.72 7.875  C 31.72 6.405  32.875 5.25  34.345 5.25  C 35.815 5.25  36.97 6.405  36.97 7.875  C 36.97 9.345  35.815 10.5  34.345 10.5  " fill-rule="nonzero" fill="#cccccc" stroke="none" />
    <path d="M 3 32  L 3 16.05  L 16.75 8.8  L 36 22.016393442623  L 47 13.15  L 58 22.016393442623  L 58 32  L 3 32  " fill-rule="nonzero" fill="#169bd5" stroke="none" />
  </g>
</svg>