<?xml version="1.0" encoding="utf-8"?>
<svg version="1.1" xmlns:xlink="http://www.w3.org/1999/xlink" width="19px" height="19px" xmlns="http://www.w3.org/2000/svg">
  <g transform="matrix(1 0 0 1 -235 -215 )">
    <path d="M 18.6221590909092 7.28693181818187  C 18.874053030303 7.53882575757575  19 7.844696969697  19 8.20454545454538  L 19 10.7954545454546  C 19 11.155303030303  18.874053030303 11.4611742424242  18.6221590909092 11.7130681818181  C 18.3702651515151 11.9649621212121  18.0643939393939 12.0909090909091  17.7045454545454 12.0909090909091  L 12.0909090909091 12.0909090909091  L 12.0909090909091 17.7045454545454  C 12.0909090909091 18.0643939393939  11.9649621212122 18.3702651515151  11.7130681818181 18.6221590909091  C 11.4611742424242 18.874053030303  11.155303030303 19  10.7954545454546 19  L 8.20454545454541 19  C 7.844696969697 19  7.53882575757578 18.874053030303  7.28693181818187 18.6221590909091  C 7.03503787878785 18.3702651515151  6.90909090909085 18.0643939393939  6.90909090909085 17.7045454545454  L 6.90909090909085 12.0909090909091  L 1.29545454545459 12.0909090909091  C 0.935606060606062 12.0909090909091  0.629734848484873 11.9649621212121  0.37784090909085 11.7130681818181  C 0.125946969696997 11.4611742424242  0 11.155303030303  0 10.7954545454546  L 0 8.20454545454538  C 0 7.844696969697  0.125946969696997 7.53882575757575  0.37784090909085 7.28693181818187  C 0.629734848484873 7.03503787878788  0.935606060606062 6.90909090909088  1.29545454545459 6.90909090909088  L 6.90909090909085 6.90909090909088  L 6.90909090909085 1.29545454545462  C 6.90909090909085 0.935606060606119  7.03503787878785 0.629734848484873  7.28693181818187 0.377840909090878  C 7.53882575757578 0.125946969696997  7.844696969697 0  8.20454545454541 0  L 10.7954545454546 0  C 11.155303030303 0  11.4611742424242 0.125946969696997  11.7130681818181 0.377840909090878  C 11.9649621212122 0.629734848484873  12.0909090909091 0.935606060606119  12.0909090909091 1.29545454545462  L 12.0909090909091 6.90909090909088  L 17.7045454545454 6.90909090909088  C 18.0643939393939 6.90909090909088  18.3702651515151 7.03503787878788  18.6221590909092 7.28693181818187  Z " fill-rule="nonzero" fill="#d7d7d7" stroke="none" transform="matrix(1 0 0 1 235 215 )" />
  </g>
</svg>