<?xml version="1.0" encoding="utf-8"?>
<svg version="1.1" xmlns:xlink="http://www.w3.org/1999/xlink" width="86px" height="50px" xmlns="http://www.w3.org/2000/svg">
  <g transform="matrix(1 0 0 1 -383 -330 )">
    <path d="M 383 330  L 469 330  L 469 380  L 383 380  L 383 330  " fill-rule="nonzero" fill="#cccccc" stroke="none" />
    <path d="M 387 334  L 465 334  L 465 376  L 387 376  L 387 334  " fill-rule="nonzero" fill="#ffffff" stroke="none" />
    <path d="M 431.47 345  C 429.37 345  427.72 343.35  427.72 341.25  C 427.72 339.15  429.37 337.5  431.47 337.5  C 433.57 337.5  435.22 339.15  435.22 341.25  C 435.22 343.35  433.57 345  431.47 345  " fill-rule="nonzero" fill="#cccccc" stroke="none" />
    <path d="M 389 375  L 389 353.55  L 407.75 343.8  L 434 361.395348837209  L 449 349.65  L 464 361.395348837209  L 464 375  L 389 375  " fill-rule="nonzero" fill="#169bd5" stroke="none" />
  </g>
</svg>