<?xml version="1.0" encoding="utf-8"?>
<svg version="1.1" xmlns:xlink="http://www.w3.org/1999/xlink" width="50px" height="50px" xmlns="http://www.w3.org/2000/svg">
  <g transform="matrix(1 0 0 1 -304 -330 )">
    <path d="M 304 330  L 354 330  L 354 380  L 304 380  L 304 330  " fill-rule="nonzero" fill="#cccccc" stroke="none" />
    <path d="M 308 334  L 350 334  L 350 376  L 308 376  L 308 334  " fill-rule="nonzero" fill="#ffffff" stroke="none" />
    <path d="M 333.75 345  C 331.65 345  330 343.35  330 341.25  C 330 339.15  331.65 337.5  333.75 337.5  C 335.85 337.5  337.5 339.15  337.5 341.25  C 337.5 343.35  335.85 345  333.75 345  " fill-rule="nonzero" fill="#cccccc" stroke="none" />
    <path d="M 310 375  L 310 353.55  L 319.75 343.8  L 333.4 351.6  L 341.2 349.65  L 349 351.6  L 349 375  L 310 375  " fill-rule="nonzero" fill="#169bd5" stroke="none" />
  </g>
</svg>