<?xml version="1.0" encoding="utf-8"?>
<svg version="1.1" xmlns:xlink="http://www.w3.org/1999/xlink" width="414px" height="200px" xmlns="http://www.w3.org/2000/svg">
  <g transform="matrix(1 0 0 1 0 -90 )">
    <path d="M 0 90  L 414 90  L 414 290  L 0 290  L 0 90  " fill-rule="nonzero" fill="#cccccc" stroke="none" />
    <path d="M 14 104  L 400 104  L 400 276  L 14 276  L 14 104  " fill-rule="nonzero" fill="#ffffff" stroke="none" />
    <path d="M 230.28 150  C 221.88 150  215.28 143.4  215.28 135  C 215.28 126.6  221.88 120  230.28 120  C 238.68 120  245.28 126.6  245.28 135  C 245.28 143.4  238.68 150  230.28 150  " fill-rule="nonzero" fill="#cccccc" stroke="none" />
    <path d="M 19 271  L 19 181.9  L 113 141.4  L 244.6 224.04347826087  L 319.8 165.7  L 395 224.04347826087  L 395 271  L 19 271  " fill-rule="nonzero" fill="#169bd5" stroke="none" />
  </g>
</svg>