<?xml version="1.0" encoding="utf-8"?>
<svg version="1.1" xmlns:xlink="http://www.w3.org/1999/xlink" width="30px" height="37px" xmlns="http://www.w3.org/2000/svg">
  <defs>
    <filter x="217px" y="37px" width="30px" height="37px" filterUnits="userSpaceOnUse" id="filter53">
      <feOffset dx="1" dy="1" in="SourceAlpha" result="shadowOffsetInner" />
      <feGaussianBlur stdDeviation="2.5" in="shadowOffsetInner" result="shadowGaussian" />
      <feComposite in2="shadowGaussian" operator="atop" in="SourceAlpha" result="shadowComposite" />
      <feColorMatrix type="matrix" values="0 0 0 0 0  0 0 0 0 0  0 0 0 0 0  0 0 0 0.698039215686274 0  " in="shadowComposite" />
    </filter>
    <g id="widget54">
      <path d="M 231 67.0287944182552  C 227.2 60.6523350266186  221.5 56.8264593916366  221.5 50.45  C 221.5 47.1257142857143  223.4 41.5  231 41.5  C 238.6 41.5  240.5 47.1257142857143  240.5 50.45  C 240.5 56.8264593916366  234.8 60.6523350266186  231 67.0287944182552  Z " fill-rule="nonzero" fill="#009dd9" stroke="none" />
      <path d="M 231 68  C 227 61.25  221 57.2  221 50.45  C 221 46.94  223 41  231 41  C 239 41  241 46.94  241 50.45  C 241 57.2  235 61.25  231 68  Z M 231 66.0575888365105  C 234.6 60.0546700532372  240 56.4529187832733  240 50.45  C 240 47.3114285714286  238.2 42  231 42  C 223.8 42  222 47.3114285714286  222 50.45  C 222 56.4529187832733  227.4 60.0546700532372  231 66.0575888365105  Z " fill-rule="nonzero" fill="#ffffff" stroke="none" />
    </g>
  </defs>
  <g transform="matrix(1 0 0 1 -217 -37 )">
    <use xlink:href="#widget54" filter="url(#filter53)" />
    <use xlink:href="#widget54" />
  </g>
</svg>