<?xml version="1.0" encoding="utf-8"?>
<svg version="1.1" xmlns:xlink="http://www.w3.org/1999/xlink" width="199px" height="37px" xmlns="http://www.w3.org/2000/svg">
  <defs>
    <mask fill="white" id="clip880">
      <path d="M 14.754205275235 14  L 19.258064516129 0  L 23.7619237570231 14  L 38.3367184216468 14  L 26.5454618484408 22.4822052085577  L 31.049321089335 36.3769721694963  L 19.258064516129 27.7895339218771  L 7.4668079429232 36.3769721694963  L 11.9706671838172 22.4822052085577  L 0.179410610611399 14  L 14.754205275235 14  Z M 54.8751730171705 14  L 59.3790322580645 0  L 63.8828914989585 14  L 78.4576861635821 14  L 66.6664295903764 22.4822052085577  L 71.1702888312703 36.3769721694963  L 59.3790322580645 27.7895339218771  L 47.5877756848586 36.3769721694963  L 52.0916349257527 22.4822052085577  L 40.3003783525468 14  L 54.8751730171705 14  Z M 94.996140759106 14  L 99.5 0  L 104.003859240894 14  L 118.578653905518 14  L 106.787397332312 22.4822052085577  L 111.291256573206 36.3769721694963  L 99.5 27.7895339218771  L 87.7087434267941 36.3769721694963  L 92.2126026676882 22.4822052085577  L 80.4213460944823 14  L 94.996140759106 14  Z M 135.117108501042 14  L 139.620967741935 0  L 144.124826982829 14  L 158.699621647453 14  L 146.908365074247 22.4822052085577  L 151.412224315141 36.3769721694963  L 139.620967741935 27.7895339218771  L 127.82971116873 36.3769721694963  L 132.333570409624 22.4822052085577  L 120.542313836418 14  L 135.117108501042 14  Z M 175.238076242977 14  L 179.741935483871 0  L 184.245794724765 14  L 198.820589389389 14  L 187.029332816183 22.4822052085577  L 191.533192057077 36.3769721694963  L 179.741935483871 27.7895339218771  L 167.950678910665 36.3769721694963  L 172.454538151559 22.4822052085577  L 160.663281578353 14  L 175.238076242977 14  Z " fill-rule="evenodd" />
    </mask>
  </defs>
  <g transform="matrix(1 0 0 1 -111 0 )">
    <path d="M 14.754205275235 14  L 19.258064516129 0  L 23.7619237570231 14  L 38.3367184216468 14  L 26.5454618484408 22.4822052085577  L 31.049321089335 36.3769721694963  L 19.258064516129 27.7895339218771  L 7.4668079429232 36.3769721694963  L 11.9706671838172 22.4822052085577  L 0.179410610611399 14  L 14.754205275235 14  Z M 54.8751730171705 14  L 59.3790322580645 0  L 63.8828914989585 14  L 78.4576861635821 14  L 66.6664295903764 22.4822052085577  L 71.1702888312703 36.3769721694963  L 59.3790322580645 27.7895339218771  L 47.5877756848586 36.3769721694963  L 52.0916349257527 22.4822052085577  L 40.3003783525468 14  L 54.8751730171705 14  Z M 94.996140759106 14  L 99.5 0  L 104.003859240894 14  L 118.578653905518 14  L 106.787397332312 22.4822052085577  L 111.291256573206 36.3769721694963  L 99.5 27.7895339218771  L 87.7087434267941 36.3769721694963  L 92.2126026676882 22.4822052085577  L 80.4213460944823 14  L 94.996140759106 14  Z M 135.117108501042 14  L 139.620967741935 0  L 144.124826982829 14  L 158.699621647453 14  L 146.908365074247 22.4822052085577  L 151.412224315141 36.3769721694963  L 139.620967741935 27.7895339218771  L 127.82971116873 36.3769721694963  L 132.333570409624 22.4822052085577  L 120.542313836418 14  L 135.117108501042 14  Z M 175.238076242977 14  L 179.741935483871 0  L 184.245794724765 14  L 198.820589389389 14  L 187.029332816183 22.4822052085577  L 191.533192057077 36.3769721694963  L 179.741935483871 27.7895339218771  L 167.950678910665 36.3769721694963  L 172.454538151559 22.4822052085577  L 160.663281578353 14  L 175.238076242977 14  Z " fill-rule="nonzero" fill="#ffffff" stroke="none" fill-opacity="0" transform="matrix(1 0 0 1 111 0 )" />
    <path d="M 14.754205275235 14  L 19.258064516129 0  L 23.7619237570231 14  L 38.3367184216468 14  L 26.5454618484408 22.4822052085577  L 31.049321089335 36.3769721694963  L 19.258064516129 27.7895339218771  L 7.4668079429232 36.3769721694963  L 11.9706671838172 22.4822052085577  L 0.179410610611399 14  L 14.754205275235 14  Z " stroke-width="2" stroke="#ff9900" fill="none" transform="matrix(1 0 0 1 111 0 )" mask="url(#clip880)" />
    <path d="M 54.8751730171705 14  L 59.3790322580645 0  L 63.8828914989585 14  L 78.4576861635821 14  L 66.6664295903764 22.4822052085577  L 71.1702888312703 36.3769721694963  L 59.3790322580645 27.7895339218771  L 47.5877756848586 36.3769721694963  L 52.0916349257527 22.4822052085577  L 40.3003783525468 14  L 54.8751730171705 14  Z " stroke-width="2" stroke="#ff9900" fill="none" transform="matrix(1 0 0 1 111 0 )" mask="url(#clip880)" />
    <path d="M 94.996140759106 14  L 99.5 0  L 104.003859240894 14  L 118.578653905518 14  L 106.787397332312 22.4822052085577  L 111.291256573206 36.3769721694963  L 99.5 27.7895339218771  L 87.7087434267941 36.3769721694963  L 92.2126026676882 22.4822052085577  L 80.4213460944823 14  L 94.996140759106 14  Z " stroke-width="2" stroke="#ff9900" fill="none" transform="matrix(1 0 0 1 111 0 )" mask="url(#clip880)" />
    <path d="M 135.117108501042 14  L 139.620967741935 0  L 144.124826982829 14  L 158.699621647453 14  L 146.908365074247 22.4822052085577  L 151.412224315141 36.3769721694963  L 139.620967741935 27.7895339218771  L 127.82971116873 36.3769721694963  L 132.333570409624 22.4822052085577  L 120.542313836418 14  L 135.117108501042 14  Z " stroke-width="2" stroke="#ff9900" fill="none" transform="matrix(1 0 0 1 111 0 )" mask="url(#clip880)" />
    <path d="M 175.238076242977 14  L 179.741935483871 0  L 184.245794724765 14  L 198.820589389389 14  L 187.029332816183 22.4822052085577  L 191.533192057077 36.3769721694963  L 179.741935483871 27.7895339218771  L 167.950678910665 36.3769721694963  L 172.454538151559 22.4822052085577  L 160.663281578353 14  L 175.238076242977 14  Z " stroke-width="2" stroke="#ff9900" fill="none" transform="matrix(1 0 0 1 111 0 )" mask="url(#clip880)" />
  </g>
</svg>