<?xml version="1.0" encoding="utf-8"?>
<svg version="1.1" xmlns:xlink="http://www.w3.org/1999/xlink" width="159px" height="37px" xmlns="http://www.w3.org/2000/svg">
  <defs>
    <mask fill="white" id="clip871">
      <path d="M 14.7654388714549 14  L 19.2727272727273 0  L 23.7800156739996 14  L 38.3659073347133 14  L 26.5656731030841 22.4822052085577  L 31.0729615043565 36.3769721694963  L 19.2727272727273 27.7895339218771  L 7.47249304109806 36.3769721694963  L 11.9797814423704 22.4822052085577  L 0.179547210741305 14  L 14.7654388714549 14  Z M 54.9169540229701 14  L 59.4242424242424 0  L 63.9315308255148 14  L 78.5174224862284 14  L 66.7171882545993 22.4822052085577  L 71.2244766558717 36.3769721694963  L 59.4242424242424 27.7895339218771  L 47.6240081926132 36.3769721694963  L 52.1312965938856 22.4822052085577  L 40.3310623622564 14  L 54.9169540229701 14  Z M 95.0684691744852 14  L 99.5757575757576 0  L 104.08304597703 14  L 118.668937637744 14  L 106.868703406114 22.4822052085577  L 111.375991807387 36.3769721694963  L 99.5757575757576 27.7895339218771  L 87.7755233441284 36.3769721694963  L 92.2828117454008 22.4822052085577  L 80.4825775137716 14  L 95.0684691744852 14  Z M 135.219984326 14  L 139.727272727273 0  L 144.234561128545 14  L 158.820452789259 14  L 147.02021855763 22.4822052085577  L 151.527506958902 36.3769721694963  L 139.727272727273 27.7895339218771  L 127.927038495644 36.3769721694963  L 132.434326896916 22.4822052085577  L 120.634092665287 14  L 135.219984326 14  Z " fill-rule="evenodd" />
    </mask>
  </defs>
  <g transform="matrix(1 0 0 1 -111 0 )">
    <path d="M 14.7654388714549 14  L 19.2727272727273 0  L 23.7800156739996 14  L 38.3659073347133 14  L 26.5656731030841 22.4822052085577  L 31.0729615043565 36.3769721694963  L 19.2727272727273 27.7895339218771  L 7.47249304109806 36.3769721694963  L 11.9797814423704 22.4822052085577  L 0.179547210741305 14  L 14.7654388714549 14  Z M 54.9169540229701 14  L 59.4242424242424 0  L 63.9315308255148 14  L 78.5174224862284 14  L 66.7171882545993 22.4822052085577  L 71.2244766558717 36.3769721694963  L 59.4242424242424 27.7895339218771  L 47.6240081926132 36.3769721694963  L 52.1312965938856 22.4822052085577  L 40.3310623622564 14  L 54.9169540229701 14  Z M 95.0684691744852 14  L 99.5757575757576 0  L 104.08304597703 14  L 118.668937637744 14  L 106.868703406114 22.4822052085577  L 111.375991807387 36.3769721694963  L 99.5757575757576 27.7895339218771  L 87.7755233441284 36.3769721694963  L 92.2828117454008 22.4822052085577  L 80.4825775137716 14  L 95.0684691744852 14  Z M 135.219984326 14  L 139.727272727273 0  L 144.234561128545 14  L 158.820452789259 14  L 147.02021855763 22.4822052085577  L 151.527506958902 36.3769721694963  L 139.727272727273 27.7895339218771  L 127.927038495644 36.3769721694963  L 132.434326896916 22.4822052085577  L 120.634092665287 14  L 135.219984326 14  Z " fill-rule="nonzero" fill="#ff9900" stroke="none" transform="matrix(1 0 0 1 111 0 )" />
    <path d="M 14.7654388714549 14  L 19.2727272727273 0  L 23.7800156739996 14  L 38.3659073347133 14  L 26.5656731030841 22.4822052085577  L 31.0729615043565 36.3769721694963  L 19.2727272727273 27.7895339218771  L 7.47249304109806 36.3769721694963  L 11.9797814423704 22.4822052085577  L 0.179547210741305 14  L 14.7654388714549 14  Z " stroke-width="2" stroke="#ff9900" fill="none" transform="matrix(1 0 0 1 111 0 )" mask="url(#clip871)" />
    <path d="M 54.9169540229701 14  L 59.4242424242424 0  L 63.9315308255148 14  L 78.5174224862284 14  L 66.7171882545993 22.4822052085577  L 71.2244766558717 36.3769721694963  L 59.4242424242424 27.7895339218771  L 47.6240081926132 36.3769721694963  L 52.1312965938856 22.4822052085577  L 40.3310623622564 14  L 54.9169540229701 14  Z " stroke-width="2" stroke="#ff9900" fill="none" transform="matrix(1 0 0 1 111 0 )" mask="url(#clip871)" />
    <path d="M 95.0684691744852 14  L 99.5757575757576 0  L 104.08304597703 14  L 118.668937637744 14  L 106.868703406114 22.4822052085577  L 111.375991807387 36.3769721694963  L 99.5757575757576 27.7895339218771  L 87.7755233441284 36.3769721694963  L 92.2828117454008 22.4822052085577  L 80.4825775137716 14  L 95.0684691744852 14  Z " stroke-width="2" stroke="#ff9900" fill="none" transform="matrix(1 0 0 1 111 0 )" mask="url(#clip871)" />
    <path d="M 135.219984326 14  L 139.727272727273 0  L 144.234561128545 14  L 158.820452789259 14  L 147.02021855763 22.4822052085577  L 151.527506958902 36.3769721694963  L 139.727272727273 27.7895339218771  L 127.927038495644 36.3769721694963  L 132.434326896916 22.4822052085577  L 120.634092665287 14  L 135.219984326 14  Z " stroke-width="2" stroke="#ff9900" fill="none" transform="matrix(1 0 0 1 111 0 )" mask="url(#clip871)" />
  </g>
</svg>