<?xml version="1.0" encoding="utf-8"?>
<svg version="1.1" xmlns:xlink="http://www.w3.org/1999/xlink" width="40px" height="40px" xmlns="http://www.w3.org/2000/svg">
  <g transform="matrix(1 0 0 1 -111 0 )">
    <path d="M 126.872991498207 14.3196601125011  L 131 1.61803398874989  L 135.127008501793 14.3196601125011  L 148.482288557315 14.3196601125011  L 137.677640027761 22.1696967693728  L 141.804648529554 34.871322893124  L 131 27.0212862362522  L 120.195351470446 34.871322893124  L 124.322359972239 22.1696967693728  L 113.517711442685 14.3196601125011  L 126.872991498207 14.3196601125011  Z " fill-rule="nonzero" fill="#ff9900" stroke="none" />
    <path d="M 126.509720234204 13.8196601125011  L 131 0  L 135.490279765796 13.8196601125011  L 150.021130325903 13.8196601125011  L 138.265425280054 22.3606797749979  L 142.755705045849 36.1803398874989  L 131 27.6393202250021  L 119.244294954151 36.1803398874989  L 123.734574719946 22.3606797749979  L 111.978869674097 13.8196601125011  L 126.509720234204 13.8196601125011  Z M 131 3.23606797749979  L 127.23626276221 14.8196601125011  L 115.056553211272 14.8196601125011  L 124.910145224531 21.9787137637478  L 121.146407986741 33.5623058987491  L 131 26.4032522475023  L 140.853592013259 33.5623058987491  L 137.089854775469 21.9787137637478  L 146.943446788728 14.8196601125011  L 134.763737237791 14.8196601125011  L 131 3.23606797749979  Z " fill-rule="nonzero" fill="#ff9900" stroke="none" />
  </g>
</svg>