<?xml version="1.0" encoding="utf-8"?>
<svg version="1.1" xmlns:xlink="http://www.w3.org/1999/xlink" width="79px" height="37px" xmlns="http://www.w3.org/2000/svg">
  <defs>
    <mask fill="white" id="clip165">
      <path d="M 14.8222946237516 14  L 19.3469387755102 0  L 23.8715829272688 14  L 38.5136389763564 14  L 26.667966800054 22.4822052085577  L 31.1926109518126 36.3769721694963  L 19.3469387755102 27.7895339218771  L 7.50126659920784 36.3769721694963  L 12.0259107509664 22.4822052085577  L 0.180238574664031 14  L 14.8222946237516 14  Z M 55.1284170727312 14  L 59.6530612244898 0  L 64.1777053762484 14  L 78.819761425336 14  L 66.9740892490336 22.4822052085577  L 71.4987334007922 36.3769721694963  L 59.6530612244898 27.7895339218771  L 47.8073890481874 36.3769721694963  L 52.332033199946 22.4822052085577  L 40.4863610236436 14  L 55.1284170727312 14  Z " fill-rule="evenodd" />
    </mask>
  </defs>
  <g transform="matrix(1 0 0 1 -111 0 )">
    <path d="M 14.8222946237516 14  L 19.3469387755102 0  L 23.8715829272688 14  L 38.5136389763564 14  L 26.667966800054 22.4822052085577  L 31.1926109518126 36.3769721694963  L 19.3469387755102 27.7895339218771  L 7.50126659920784 36.3769721694963  L 12.0259107509664 22.4822052085577  L 0.180238574664031 14  L 14.8222946237516 14  Z M 55.1284170727312 14  L 59.6530612244898 0  L 64.1777053762484 14  L 78.819761425336 14  L 66.9740892490336 22.4822052085577  L 71.4987334007922 36.3769721694963  L 59.6530612244898 27.7895339218771  L 47.8073890481874 36.3769721694963  L 52.332033199946 22.4822052085577  L 40.4863610236436 14  L 55.1284170727312 14  Z " fill-rule="nonzero" fill="#ffffff" stroke="none" fill-opacity="0" transform="matrix(1 0 0 1 111 0 )" />
    <path d="M 14.8222946237516 14  L 19.3469387755102 0  L 23.8715829272688 14  L 38.5136389763564 14  L 26.667966800054 22.4822052085577  L 31.1926109518126 36.3769721694963  L 19.3469387755102 27.7895339218771  L 7.50126659920784 36.3769721694963  L 12.0259107509664 22.4822052085577  L 0.180238574664031 14  L 14.8222946237516 14  Z " stroke-width="2" stroke="#ff9900" fill="none" transform="matrix(1 0 0 1 111 0 )" mask="url(#clip165)" />
    <path d="M 55.1284170727312 14  L 59.6530612244898 0  L 64.1777053762484 14  L 78.819761425336 14  L 66.9740892490336 22.4822052085577  L 71.4987334007922 36.3769721694963  L 59.6530612244898 27.7895339218771  L 47.8073890481874 36.3769721694963  L 52.332033199946 22.4822052085577  L 40.4863610236436 14  L 55.1284170727312 14  Z " stroke-width="2" stroke="#ff9900" fill="none" transform="matrix(1 0 0 1 111 0 )" mask="url(#clip165)" />
  </g>
</svg>