<?xml version="1.0" encoding="utf-8"?>
<svg version="1.1" xmlns:xlink="http://www.w3.org/1999/xlink" width="119px" height="37px" xmlns="http://www.w3.org/2000/svg">
  <defs>
    <mask fill="white" id="clip884">
      <path d="M 14.784262735391 14  L 19.2972972972973 0  L 23.8103318592036 14  L 38.4148184863384 14  L 26.5995406108647 22.4822052085577  L 31.112575172771 36.3769721694963  L 19.2972972972973 27.7895339218771  L 7.48201942182362 36.3769721694963  L 11.9950539837299 22.4822052085577  L 0.179776108256249 14  L 14.784262735391 14  Z M 54.9869654380937 14  L 59.5 0  L 64.0130345619063 14  L 78.617521189041 14  L 66.8022433135674 22.4822052085577  L 71.3152778754737 36.3769721694963  L 59.5 27.7895339218771  L 47.6847221245263 36.3769721694963  L 52.1977566864326 22.4822052085577  L 40.382478810959 14  L 54.9869654380937 14  Z M 95.1896681407965 14  L 99.7027027027027 0  L 104.215737264609 14  L 118.820223891744 14  L 107.00494601627 22.4822052085577  L 111.517980578176 36.3769721694963  L 99.7027027027027 27.7895339218771  L 87.887424827229 36.3769721694963  L 92.4004593891353 22.4822052085577  L 80.5851815136616 14  L 95.1896681407965 14  Z " fill-rule="evenodd" />
    </mask>
  </defs>
  <g transform="matrix(1 0 0 1 -111 0 )">
    <path d="M 14.784262735391 14  L 19.2972972972973 0  L 23.8103318592036 14  L 38.4148184863384 14  L 26.5995406108647 22.4822052085577  L 31.112575172771 36.3769721694963  L 19.2972972972973 27.7895339218771  L 7.48201942182362 36.3769721694963  L 11.9950539837299 22.4822052085577  L 0.179776108256249 14  L 14.784262735391 14  Z M 54.9869654380937 14  L 59.5 0  L 64.0130345619063 14  L 78.617521189041 14  L 66.8022433135674 22.4822052085577  L 71.3152778754737 36.3769721694963  L 59.5 27.7895339218771  L 47.6847221245263 36.3769721694963  L 52.1977566864326 22.4822052085577  L 40.382478810959 14  L 54.9869654380937 14  Z M 95.1896681407965 14  L 99.7027027027027 0  L 104.215737264609 14  L 118.820223891744 14  L 107.00494601627 22.4822052085577  L 111.517980578176 36.3769721694963  L 99.7027027027027 27.7895339218771  L 87.887424827229 36.3769721694963  L 92.4004593891353 22.4822052085577  L 80.5851815136616 14  L 95.1896681407965 14  Z " fill-rule="nonzero" fill="#ffffff" stroke="none" fill-opacity="0" transform="matrix(1 0 0 1 111 0 )" />
    <path d="M 14.784262735391 14  L 19.2972972972973 0  L 23.8103318592036 14  L 38.4148184863384 14  L 26.5995406108647 22.4822052085577  L 31.112575172771 36.3769721694963  L 19.2972972972973 27.7895339218771  L 7.48201942182362 36.3769721694963  L 11.9950539837299 22.4822052085577  L 0.179776108256249 14  L 14.784262735391 14  Z " stroke-width="2" stroke="#ff9900" fill="none" transform="matrix(1 0 0 1 111 0 )" mask="url(#clip884)" />
    <path d="M 54.9869654380937 14  L 59.5 0  L 64.0130345619063 14  L 78.617521189041 14  L 66.8022433135674 22.4822052085577  L 71.3152778754737 36.3769721694963  L 59.5 27.7895339218771  L 47.6847221245263 36.3769721694963  L 52.1977566864326 22.4822052085577  L 40.382478810959 14  L 54.9869654380937 14  Z " stroke-width="2" stroke="#ff9900" fill="none" transform="matrix(1 0 0 1 111 0 )" mask="url(#clip884)" />
    <path d="M 95.1896681407965 14  L 99.7027027027027 0  L 104.215737264609 14  L 118.820223891744 14  L 107.00494601627 22.4822052085577  L 111.517980578176 36.3769721694963  L 99.7027027027027 27.7895339218771  L 87.887424827229 36.3769721694963  L 92.4004593891353 22.4822052085577  L 80.5851815136616 14  L 95.1896681407965 14  Z " stroke-width="2" stroke="#ff9900" fill="none" transform="matrix(1 0 0 1 111 0 )" mask="url(#clip884)" />
  </g>
</svg>