<?xml version="1.0" encoding="utf-8"?>
<svg version="1.1" xmlns:xlink="http://www.w3.org/1999/xlink" width="25px" height="25px" xmlns="http://www.w3.org/2000/svg">
  <g transform="matrix(1 0 0 1 -293 -642 )">
    <path d="M 24.502840909091 9.58806818181824  C 24.8342803030303 9.91950757575762  25 10.3219696969697  25 10.7954545454545  L 25 14.2045454545455  C 25 14.6780303030303  24.8342803030303 15.0804924242424  24.502840909091 15.4119318181818  C 24.1714015151515 15.7433712121212  23.7689393939394 15.9090909090909  23.2954545454545 15.9090909090909  L 15.9090909090909 15.9090909090909  L 15.9090909090909 23.2954545454545  C 15.9090909090909 23.7689393939394  15.7433712121212 24.1714015151515  15.4119318181818 24.502840909091  C 15.0804924242424 24.8342803030303  14.6780303030303 25  14.2045454545455 25  L 10.7954545454545 25  C 10.3219696969697 25  9.91950757575762 24.8342803030303  9.58806818181824 24.502840909091  C 9.25662878787875 24.1714015151515  9.09090909090901 23.7689393939394  9.09090909090901 23.2954545454545  L 9.09090909090901 15.9090909090909  L 1.7045454545455 15.9090909090909  C 1.23106060606062 15.9090909090909  0.828598484848499 15.7433712121212  0.497159090909008 15.4119318181818  C 0.165719696969745 15.0804924242424  0 14.6780303030303  0 14.2045454545455  L 0 10.7954545454545  C 0 10.3219696969697  0.165719696969745 9.91950757575762  0.497159090909008 9.58806818181824  C 0.828598484848499 9.25662878787875  1.23106060606062 9.09090909090901  1.7045454545455 9.09090909090901  L 9.09090909090901 9.09090909090901  L 9.09090909090901 1.7045454545455  C 9.09090909090901 1.23106060606062  9.25662878787875 0.828598484848499  9.58806818181824 0.497159090909008  C 9.91950757575762 0.165719696969745  10.3219696969697 0  10.7954545454545 0  L 14.2045454545455 0  C 14.6780303030303 0  15.0804924242424 0.165719696969745  15.4119318181818 0.497159090909008  C 15.7433712121212 0.828598484848499  15.9090909090909 1.23106060606062  15.9090909090909 1.7045454545455  L 15.9090909090909 9.09090909090901  L 23.2954545454545 9.09090909090901  C 23.7689393939394 9.09090909090901  24.1714015151515 9.25662878787875  24.502840909091 9.58806818181824  Z " fill-rule="nonzero" fill="#d7d7d7" stroke="none" transform="matrix(1 0 0 1 293 642 )" />
  </g>
</svg>