<?xml version="1.0" encoding="utf-8"?>
<svg version="1.1" xmlns:xlink="http://www.w3.org/1999/xlink" width="12px" height="12px" viewBox="190 2.5  12 12" xmlns="http://www.w3.org/2000/svg">
  <path d="M 196 2.5  C 199.36 2.5  202 5.14  202 8.5  C 202 11.86  199.36 14.5  196 14.5  C 192.64 14.5  190 11.86  190 8.5  C 190 5.14  192.64 2.5  196 2.5  Z " fill-rule="nonzero" fill="#ffffff" stroke="none" />
  <path d="M 196 3  C 199.08 3  201.5 5.42  201.5 8.5  C 201.5 11.58  199.08 14  196 14  C 192.92 14  190.5 11.58  190.5 8.5  C 190.5 5.42  192.92 3  196 3  Z " stroke-width="1" stroke="#797979" fill="none" />
  <path d="M 196 11.5  C 194.32 11.5  193 10.18  193 8.5  C 193 6.82  194.32 5.5  196 5.5  C 197.68 5.5  199 6.82  199 8.5  C 199 10.18  197.68 11.5  196 11.5  " fill-rule="nonzero" fill="#797979" stroke="none" />
</svg>