<?xml version="1.0" encoding="utf-8"?>
<svg version="1.1" xmlns:xlink="http://www.w3.org/1999/xlink" width="26px" height="10px" preserveAspectRatio="xMinYMid meet" viewBox="259 321  26 8" xmlns="http://www.w3.org/2000/svg">
  <path d="M 260 325.5  L 275 325.5  A 5 5 0 0 0 280.5 320.5 L 280.5 305  A 5 5 0 0 1 285.5 300.5 L 395 300.5  A 5 5 0 0 1 400.5 305.5 L 400.5 314  A 5 5 0 0 0 405.5 319.5 L 413 319.5  " stroke-width="1" stroke="#ff3399" fill="none" />
  <path d="M 262 322.5  A 3 3 0 0 0 259 325.5 A 3 3 0 0 0 262 328.5 A 3 3 0 0 0 265 325.5 A 3 3 0 0 0 262 322.5 Z " fill-rule="nonzero" fill="#ff3399" stroke="none" />
</svg>