<?xml version="1.0" encoding="utf-8"?>
<svg version="1.1" xmlns:xlink="http://www.w3.org/1999/xlink" width="354px" height="253px" xmlns="http://www.w3.org/2000/svg">
  <g transform="matrix(1 0 0 1 -10 -422 )">
    <path d="M 11 426  A 3 3 0 0 1 14 423 L 360 423  A 3 3 0 0 1 363 426 L 363 671  A 3 3 0 0 1 360 674 L 14 674  A 3 3 0 0 1 11 671 L 11 426  Z " fill-rule="nonzero" fill="#ff3333" stroke="none" fill-opacity="0.0980392156862745" />
    <path d="M 10.5 426  A 3.5 3.5 0 0 1 14 422.5 L 360 422.5  A 3.5 3.5 0 0 1 363.5 426 L 363.5 671  A 3.5 3.5 0 0 1 360 674.5 L 14 674.5  A 3.5 3.5 0 0 1 10.5 671 L 10.5 426  Z " stroke-width="1" stroke-dasharray="9,4" stroke="#ff3333" fill="none" stroke-dashoffset="0.5" />
  </g>
</svg>