<?xml version="1.0" encoding="utf-8"?>
<svg version="1.1" xmlns:xlink="http://www.w3.org/1999/xlink" width="30px" height="30px" xmlns="http://www.w3.org/2000/svg">
  <g transform="matrix(1 0 0 1 -365 -617 )">
    <path d="M 20.33203125 5.80078125  C 18.7044270833333 4.85026041666667  16.9270833333333 4.375  15 4.375  C 13.0729166666667 4.375  11.2955729166667 4.85026041666667  9.66796875 5.80078125  C 8.04036458333333 6.75130208333333  6.75130208333333 8.04036458333333  5.80078125 9.66796875  C 4.85026041666667 11.2955729166667  4.375 13.0729166666667  4.375 15  C 4.375 16.9270833333333  4.85026041666667 18.7044270833333  5.80078125 20.33203125  C 6.75130208333333 21.9596354166667  8.04036458333333 23.2486979166667  9.66796875 24.19921875  C 11.2955729166667 25.1497395833333  13.0729166666667 25.625  15 25.625  C 16.9270833333333 25.625  18.7044270833333 25.1497395833333  20.33203125 24.19921875  C 21.9596354166667 23.2486979166667  23.2486979166667 21.9596354166667  24.19921875 20.33203125  C 25.1497395833333 18.7044270833333  25.625 16.9270833333333  25.625 15  C 25.625 13.0729166666667  25.1497395833333 11.2955729166667  24.19921875 9.66796875  C 23.2486979166667 8.04036458333333  21.9596354166667 6.75130208333333  20.33203125 5.80078125  Z M 27.98828125 7.470703125  C 29.3294270833333 9.76888020833333  30 12.2786458333333  30 15  C 30 17.7213541666667  29.3294270833333 20.2311197916667  27.98828125 22.529296875  C 26.6471354166667 24.8274739583333  24.8274739583333 26.6471354166667  22.529296875 27.98828125  C 20.2311197916667 29.3294270833333  17.7213541666667 30  15 30  C 12.2786458333333 30  9.76888020833333 29.3294270833333  7.470703125 27.98828125  C 5.17252604166667 26.6471354166667  3.35286458333333 24.8274739583333  2.01171875 22.529296875  C 0.670572916666667 20.2311197916667  0 17.7213541666667  0 15  C 0 12.2786458333333  0.670572916666667 9.76888020833333  2.01171875 7.470703125  C 3.35286458333333 5.17252604166667  5.17252604166667 3.35286458333333  7.470703125 2.01171875  C 9.76888020833333 0.670572916666664  12.2786458333333 0  15 0  C 17.7213541666667 0  20.2311197916667 0.670572916666664  22.529296875 2.01171875  C 24.8274739583333 3.35286458333333  26.6471354166667 5.17252604166667  27.98828125 7.470703125  Z " fill-rule="nonzero" fill="#000000" stroke="none" transform="matrix(1 0 0 1 365 617 )" />
  </g>
</svg>