<?xml version="1.0" encoding="utf-8"?>
<svg version="1.1" xmlns:xlink="http://www.w3.org/1999/xlink" width="67px" height="31px" xmlns="http://www.w3.org/2000/svg">
  <defs>
    <mask fill="white" id="clip931">
      <path d="M 12.570806832802 12  L 16.4081632653062 0  L 20.2455196978102 12  L 32.6634659672896 12  L 22.6171364000458 18.8364422017646  L 26.45449283255 30.478003709578  L 16.4081632653062 23.2831230156268  L 6.36183369806234 30.478003709578  L 10.1991901305664 18.8364422017646  L 0.152860563322659 12  L 12.570806832802 12  Z M 46.7544803021898 12  L 50.5918367346938 0  L 54.429193167198 12  L 66.8471394366773 12  L 56.8008098694336 18.8364422017646  L 60.6381663019377 30.478003709578  L 50.5918367346938 23.2831230156268  L 40.54550716745 30.478003709578  L 44.3828635999542 18.8364422017646  L 34.3365340327104 12  L 46.7544803021898 12  Z " fill-rule="evenodd" />
    </mask>
  </defs>
  <g transform="matrix(1 0 0 1 -94 0 )">
    <path d="M 12.570806832802 12  L 16.4081632653062 0  L 20.2455196978102 12  L 32.6634659672896 12  L 22.6171364000458 18.8364422017646  L 26.45449283255 30.478003709578  L 16.4081632653062 23.2831230156268  L 6.36183369806234 30.478003709578  L 10.1991901305664 18.8364422017646  L 0.152860563322659 12  L 12.570806832802 12  Z M 46.7544803021898 12  L 50.5918367346938 0  L 54.429193167198 12  L 66.8471394366773 12  L 56.8008098694336 18.8364422017646  L 60.6381663019377 30.478003709578  L 50.5918367346938 23.2831230156268  L 40.54550716745 30.478003709578  L 44.3828635999542 18.8364422017646  L 34.3365340327104 12  L 46.7544803021898 12  Z " fill-rule="nonzero" fill="#ffffff" stroke="none" fill-opacity="0" transform="matrix(1 0 0 1 94 0 )" />
    <path d="M 12.570806832802 12  L 16.4081632653062 0  L 20.2455196978102 12  L 32.6634659672896 12  L 22.6171364000458 18.8364422017646  L 26.45449283255 30.478003709578  L 16.4081632653062 23.2831230156268  L 6.36183369806234 30.478003709578  L 10.1991901305664 18.8364422017646  L 0.152860563322659 12  L 12.570806832802 12  Z " stroke-width="2" stroke="#ff9900" fill="none" transform="matrix(1 0 0 1 94 0 )" mask="url(#clip931)" />
    <path d="M 46.7544803021898 12  L 50.5918367346938 0  L 54.429193167198 12  L 66.8471394366773 12  L 56.8008098694336 18.8364422017646  L 60.6381663019377 30.478003709578  L 50.5918367346938 23.2831230156268  L 40.54550716745 30.478003709578  L 44.3828635999542 18.8364422017646  L 34.3365340327104 12  L 46.7544803021898 12  Z " stroke-width="2" stroke="#ff9900" fill="none" transform="matrix(1 0 0 1 94 0 )" mask="url(#clip931)" />
  </g>
</svg>