<?xml version="1.0" encoding="utf-8"?>
<svg version="1.1" xmlns:xlink="http://www.w3.org/1999/xlink" width="34px" height="34px" xmlns="http://www.w3.org/2000/svg">
  <g transform="matrix(1 0 0 1 -94 0 )">
    <path d="M 107.546533463076 12.2467110956259  L 111 1.61803398874989  L 114.453466536924 12.2467110956259  L 125.62911900843 12.2467110956259  L 116.587826235753 18.8155948031232  L 120.041292772677 29.4442719099992  L 111 22.8753882025019  L 101.958707227323 29.4442719099992  L 105.412173764247 18.8155948031232  L 96.37088099157 12.2467110956259  L 107.546533463076 12.2467110956259  Z " fill-rule="nonzero" fill="#ffffff" stroke="none" fill-opacity="0" />
    <path d="M 107.183262199074 11.7467110956259  L 111 0  L 114.816737800926 11.7467110956259  L 127.167960777018 11.7467110956259  L 117.175611488046 19.0065778087482  L 120.992349288972 30.7532889043741  L 111 23.4934221912518  L 101.007650711028 30.7532889043741  L 104.824388511954 19.0065778087482  L 94.8320392229824 11.7467110956259  L 107.183262199074 11.7467110956259  Z M 111 3.23606797749979  L 107.909804727079 12.7467110956259  L 97.9097227601576 12.7467110956259  L 105.999959016539 18.6246117974981  L 102.909763743618 28.1352549156242  L 111 22.257354213752  L 119.090236256382 28.1352549156242  L 116.000040983461 18.6246117974981  L 124.090277239842 12.7467110956259  L 114.090195272921 12.7467110956259  L 111 3.23606797749979  Z " fill-rule="nonzero" fill="#ff9900" stroke="none" />
  </g>
</svg>