<?xml version="1.0" encoding="utf-8"?>
<svg version="1.1" xmlns:xlink="http://www.w3.org/1999/xlink" width="101px" height="31px" xmlns="http://www.w3.org/2000/svg">
  <defs>
    <mask fill="white" id="clip670">
      <path d="M 12.5479876997856 12  L 16.3783783783784 0  L 20.2087690569712 12  L 32.6041736732788 12  L 22.5760806865322 18.8364422017646  L 26.406471365125 30.478003709578  L 16.3783783783784 23.2831230156268  L 6.35028539163181 30.478003709578  L 10.1806760702246 18.8364422017646  L 0.152583083477993 12  L 12.5479876997856 12  Z M 46.6696093214073 12  L 50.5 0  L 54.3303906785927 12  L 66.7257952949004 12  L 56.6977023081539 18.8364422017646  L 60.5280929867466 30.478003709578  L 50.5 23.2831230156268  L 40.4719070132534 30.478003709578  L 44.3022976918461 18.8364422017646  L 34.2742047050996 12  L 46.6696093214073 12  Z M 80.7912309430289 12  L 84.6216216216216 0  L 88.4520123002144 12  L 100.847416916522 12  L 90.8193239297754 18.8364422017646  L 94.6497146083682 30.478003709578  L 84.6216216216216 23.2831230156268  L 74.593528634875 30.478003709578  L 78.4239193134678 18.8364422017646  L 68.3958263267212 12  L 80.7912309430289 12  Z " fill-rule="evenodd" />
    </mask>
  </defs>
  <g transform="matrix(1 0 0 1 -94 0 )">
    <path d="M 12.5479876997856 12  L 16.3783783783784 0  L 20.2087690569712 12  L 32.6041736732788 12  L 22.5760806865322 18.8364422017646  L 26.406471365125 30.478003709578  L 16.3783783783784 23.2831230156268  L 6.35028539163181 30.478003709578  L 10.1806760702246 18.8364422017646  L 0.152583083477993 12  L 12.5479876997856 12  Z M 46.6696093214073 12  L 50.5 0  L 54.3303906785927 12  L 66.7257952949004 12  L 56.6977023081539 18.8364422017646  L 60.5280929867466 30.478003709578  L 50.5 23.2831230156268  L 40.4719070132534 30.478003709578  L 44.3022976918461 18.8364422017646  L 34.2742047050996 12  L 46.6696093214073 12  Z M 80.7912309430289 12  L 84.6216216216216 0  L 88.4520123002144 12  L 100.847416916522 12  L 90.8193239297754 18.8364422017646  L 94.6497146083682 30.478003709578  L 84.6216216216216 23.2831230156268  L 74.593528634875 30.478003709578  L 78.4239193134678 18.8364422017646  L 68.3958263267212 12  L 80.7912309430289 12  Z " fill-rule="nonzero" fill="#ff9900" stroke="none" transform="matrix(1 0 0 1 94 0 )" />
    <path d="M 12.5479876997856 12  L 16.3783783783784 0  L 20.2087690569712 12  L 32.6041736732788 12  L 22.5760806865322 18.8364422017646  L 26.406471365125 30.478003709578  L 16.3783783783784 23.2831230156268  L 6.35028539163181 30.478003709578  L 10.1806760702246 18.8364422017646  L 0.152583083477993 12  L 12.5479876997856 12  Z " stroke-width="2" stroke="#ff9900" fill="none" transform="matrix(1 0 0 1 94 0 )" mask="url(#clip670)" />
    <path d="M 46.6696093214073 12  L 50.5 0  L 54.3303906785927 12  L 66.7257952949004 12  L 56.6977023081539 18.8364422017646  L 60.5280929867466 30.478003709578  L 50.5 23.2831230156268  L 40.4719070132534 30.478003709578  L 44.3022976918461 18.8364422017646  L 34.2742047050996 12  L 46.6696093214073 12  Z " stroke-width="2" stroke="#ff9900" fill="none" transform="matrix(1 0 0 1 94 0 )" mask="url(#clip670)" />
    <path d="M 80.7912309430289 12  L 84.6216216216216 0  L 88.4520123002144 12  L 100.847416916522 12  L 90.8193239297754 18.8364422017646  L 94.6497146083682 30.478003709578  L 84.6216216216216 23.2831230156268  L 74.593528634875 30.478003709578  L 78.4239193134678 18.8364422017646  L 68.3958263267212 12  L 80.7912309430289 12  Z " stroke-width="2" stroke="#ff9900" fill="none" transform="matrix(1 0 0 1 94 0 )" mask="url(#clip670)" />
  </g>
</svg>