<?xml version="1.0" encoding="utf-8"?>
<svg version="1.1" xmlns:xlink="http://www.w3.org/1999/xlink" width="168px" height="31px" xmlns="http://www.w3.org/2000/svg">
  <defs>
    <mask fill="white" id="clip193">
      <path d="M 12.4558114886406 12  L 16.258064516129 0  L 20.0603175436175 12  L 32.3646668082244 12  L 22.4102391484325 18.8364422017646  L 26.212492175921 30.478003709578  L 16.258064516129 23.2831230156268  L 6.30363685633717 30.478003709578  L 10.1058898838256 18.8364422017646  L 0.151462224033744 12  L 12.4558114886406 12  Z M 46.3267792305761 12  L 50.1290322580645 0  L 53.9312852855529 12  L 66.2356345501598 12  L 56.281206890368 18.8364422017646  L 60.0834599178564 30.478003709578  L 50.1290322580645 23.2831230156268  L 40.1746045982726 30.478003709578  L 43.9768576257611 18.8364422017646  L 34.0224299659692 12  L 46.3267792305761 12  Z M 80.1977469725116 12  L 84 0  L 87.8022530274884 12  L 100.106602292095 12  L 90.1521746323034 18.8364422017646  L 93.9544276597919 30.478003709578  L 84 23.2831230156268  L 74.0455723402081 30.478003709578  L 77.8478253676966 18.8364422017646  L 67.8933977079047 12  L 80.1977469725116 12  Z M 114.068714714447 12  L 117.870967741935 0  L 121.673220769424 12  L 133.977570034031 12  L 124.023142374239 18.8364422017646  L 127.825395401727 30.478003709578  L 117.870967741935 23.2831230156268  L 107.916540082144 30.478003709578  L 111.718793109632 18.8364422017646  L 101.76436544984 12  L 114.068714714447 12  Z M 147.939682456383 12  L 151.741935483871 0  L 155.544188511359 12  L 167.848537775966 12  L 157.894110116174 18.8364422017646  L 161.696363143663 30.478003709578  L 151.741935483871 23.2831230156268  L 141.787507824079 30.478003709578  L 145.589760851568 18.8364422017646  L 135.635333191776 12  L 147.939682456383 12  Z " fill-rule="evenodd" />
    </mask>
  </defs>
  <g transform="matrix(1 0 0 1 -94 0 )">
    <path d="M 12.4558114886406 12  L 16.258064516129 0  L 20.0603175436175 12  L 32.3646668082244 12  L 22.4102391484325 18.8364422017646  L 26.212492175921 30.478003709578  L 16.258064516129 23.2831230156268  L 6.30363685633717 30.478003709578  L 10.1058898838256 18.8364422017646  L 0.151462224033744 12  L 12.4558114886406 12  Z M 46.3267792305761 12  L 50.1290322580645 0  L 53.9312852855529 12  L 66.2356345501598 12  L 56.281206890368 18.8364422017646  L 60.0834599178564 30.478003709578  L 50.1290322580645 23.2831230156268  L 40.1746045982726 30.478003709578  L 43.9768576257611 18.8364422017646  L 34.0224299659692 12  L 46.3267792305761 12  Z M 80.1977469725116 12  L 84 0  L 87.8022530274884 12  L 100.106602292095 12  L 90.1521746323034 18.8364422017646  L 93.9544276597919 30.478003709578  L 84 23.2831230156268  L 74.0455723402081 30.478003709578  L 77.8478253676966 18.8364422017646  L 67.8933977079047 12  L 80.1977469725116 12  Z M 114.068714714447 12  L 117.870967741935 0  L 121.673220769424 12  L 133.977570034031 12  L 124.023142374239 18.8364422017646  L 127.825395401727 30.478003709578  L 117.870967741935 23.2831230156268  L 107.916540082144 30.478003709578  L 111.718793109632 18.8364422017646  L 101.76436544984 12  L 114.068714714447 12  Z M 147.939682456383 12  L 151.741935483871 0  L 155.544188511359 12  L 167.848537775966 12  L 157.894110116174 18.8364422017646  L 161.696363143663 30.478003709578  L 151.741935483871 23.2831230156268  L 141.787507824079 30.478003709578  L 145.589760851568 18.8364422017646  L 135.635333191776 12  L 147.939682456383 12  Z " fill-rule="nonzero" fill="#ffffff" stroke="none" fill-opacity="0" transform="matrix(1 0 0 1 94 0 )" />
    <path d="M 12.4558114886406 12  L 16.258064516129 0  L 20.0603175436175 12  L 32.3646668082244 12  L 22.4102391484325 18.8364422017646  L 26.212492175921 30.478003709578  L 16.258064516129 23.2831230156268  L 6.30363685633717 30.478003709578  L 10.1058898838256 18.8364422017646  L 0.151462224033744 12  L 12.4558114886406 12  Z " stroke-width="2" stroke="#ff9900" fill="none" transform="matrix(1 0 0 1 94 0 )" mask="url(#clip193)" />
    <path d="M 46.3267792305761 12  L 50.1290322580645 0  L 53.9312852855529 12  L 66.2356345501598 12  L 56.281206890368 18.8364422017646  L 60.0834599178564 30.478003709578  L 50.1290322580645 23.2831230156268  L 40.1746045982726 30.478003709578  L 43.9768576257611 18.8364422017646  L 34.0224299659692 12  L 46.3267792305761 12  Z " stroke-width="2" stroke="#ff9900" fill="none" transform="matrix(1 0 0 1 94 0 )" mask="url(#clip193)" />
    <path d="M 80.1977469725116 12  L 84 0  L 87.8022530274884 12  L 100.106602292095 12  L 90.1521746323034 18.8364422017646  L 93.9544276597919 30.478003709578  L 84 23.2831230156268  L 74.0455723402081 30.478003709578  L 77.8478253676966 18.8364422017646  L 67.8933977079047 12  L 80.1977469725116 12  Z " stroke-width="2" stroke="#ff9900" fill="none" transform="matrix(1 0 0 1 94 0 )" mask="url(#clip193)" />
    <path d="M 114.068714714447 12  L 117.870967741935 0  L 121.673220769424 12  L 133.977570034031 12  L 124.023142374239 18.8364422017646  L 127.825395401727 30.478003709578  L 117.870967741935 23.2831230156268  L 107.916540082144 30.478003709578  L 111.718793109632 18.8364422017646  L 101.76436544984 12  L 114.068714714447 12  Z " stroke-width="2" stroke="#ff9900" fill="none" transform="matrix(1 0 0 1 94 0 )" mask="url(#clip193)" />
    <path d="M 147.939682456383 12  L 151.741935483871 0  L 155.544188511359 12  L 167.848537775966 12  L 157.894110116174 18.8364422017646  L 161.696363143663 30.478003709578  L 151.741935483871 23.2831230156268  L 141.787507824079 30.478003709578  L 145.589760851568 18.8364422017646  L 135.635333191776 12  L 147.939682456383 12  Z " stroke-width="2" stroke="#ff9900" fill="none" transform="matrix(1 0 0 1 94 0 )" mask="url(#clip193)" />
  </g>
</svg>