<?xml version="1.0" encoding="utf-8"?>
<svg version="1.1" xmlns:xlink="http://www.w3.org/1999/xlink" width="134px" height="31px" xmlns="http://www.w3.org/2000/svg">
  <defs>
    <mask fill="white" id="clip59">
      <path d="M 12.443828986006 12  L 16.2424242424243 0  L 20.0410194988425 12  L 32.33353196762 12  L 22.388680476813 18.8364422017646  L 26.1872757332313 30.478003709578  L 16.2424242424243 23.2831230156268  L 6.29757275161723 30.478003709578  L 10.0961680080354 18.8364422017646  L 0.151316517228521 12  L 12.443828986006 12  Z M 46.2822128243899 12  L 50.080808080808 0  L 53.8794033372263 12  L 66.1719158060038 12  L 56.2270643151969 18.8364422017646  L 60.0256595716151 30.478003709578  L 50.080808080808 23.2831230156268  L 40.1359565900011 30.478003709578  L 43.9345518464193 18.8364422017646  L 33.9897003556123 12  L 46.2822128243899 12  Z M 80.1205966627737 12  L 83.919191919192 0  L 87.7177871756101 12  L 100.010299644388 12  L 90.0654481535807 18.8364422017646  L 93.864043409999 30.478003709578  L 83.919191919192 23.2831230156268  L 73.9743404283849 30.478003709578  L 77.7729356848032 18.8364422017646  L 67.8280841939962 12  L 80.1205966627737 12  Z M 113.958980501158 12  L 117.757575757576 0  L 121.556171013994 12  L 133.848683482772 12  L 123.903831991964 18.8364422017646  L 127.702427248383 30.478003709578  L 117.757575757576 23.2831230156268  L 107.812724266769 30.478003709578  L 111.611319523187 18.8364422017646  L 101.66646803238 12  L 113.958980501158 12  Z " fill-rule="evenodd" />
    </mask>
  </defs>
  <g transform="matrix(1 0 0 1 -94 0 )">
    <path d="M 12.443828986006 12  L 16.2424242424243 0  L 20.0410194988425 12  L 32.33353196762 12  L 22.388680476813 18.8364422017646  L 26.1872757332313 30.478003709578  L 16.2424242424243 23.2831230156268  L 6.29757275161723 30.478003709578  L 10.0961680080354 18.8364422017646  L 0.151316517228521 12  L 12.443828986006 12  Z M 46.2822128243899 12  L 50.080808080808 0  L 53.8794033372263 12  L 66.1719158060038 12  L 56.2270643151969 18.8364422017646  L 60.0256595716151 30.478003709578  L 50.080808080808 23.2831230156268  L 40.1359565900011 30.478003709578  L 43.9345518464193 18.8364422017646  L 33.9897003556123 12  L 46.2822128243899 12  Z M 80.1205966627737 12  L 83.919191919192 0  L 87.7177871756101 12  L 100.010299644388 12  L 90.0654481535807 18.8364422017646  L 93.864043409999 30.478003709578  L 83.919191919192 23.2831230156268  L 73.9743404283849 30.478003709578  L 77.7729356848032 18.8364422017646  L 67.8280841939962 12  L 80.1205966627737 12  Z M 113.958980501158 12  L 117.757575757576 0  L 121.556171013994 12  L 133.848683482772 12  L 123.903831991964 18.8364422017646  L 127.702427248383 30.478003709578  L 117.757575757576 23.2831230156268  L 107.812724266769 30.478003709578  L 111.611319523187 18.8364422017646  L 101.66646803238 12  L 113.958980501158 12  Z " fill-rule="nonzero" fill="#ff9900" stroke="none" transform="matrix(1 0 0 1 94 0 )" />
    <path d="M 12.443828986006 12  L 16.2424242424243 0  L 20.0410194988425 12  L 32.33353196762 12  L 22.388680476813 18.8364422017646  L 26.1872757332313 30.478003709578  L 16.2424242424243 23.2831230156268  L 6.29757275161723 30.478003709578  L 10.0961680080354 18.8364422017646  L 0.151316517228521 12  L 12.443828986006 12  Z " stroke-width="2" stroke="#ff9900" fill="none" transform="matrix(1 0 0 1 94 0 )" mask="url(#clip59)" />
    <path d="M 46.2822128243899 12  L 50.080808080808 0  L 53.8794033372263 12  L 66.1719158060038 12  L 56.2270643151969 18.8364422017646  L 60.0256595716151 30.478003709578  L 50.080808080808 23.2831230156268  L 40.1359565900011 30.478003709578  L 43.9345518464193 18.8364422017646  L 33.9897003556123 12  L 46.2822128243899 12  Z " stroke-width="2" stroke="#ff9900" fill="none" transform="matrix(1 0 0 1 94 0 )" mask="url(#clip59)" />
    <path d="M 80.1205966627737 12  L 83.919191919192 0  L 87.7177871756101 12  L 100.010299644388 12  L 90.0654481535807 18.8364422017646  L 93.864043409999 30.478003709578  L 83.919191919192 23.2831230156268  L 73.9743404283849 30.478003709578  L 77.7729356848032 18.8364422017646  L 67.8280841939962 12  L 80.1205966627737 12  Z " stroke-width="2" stroke="#ff9900" fill="none" transform="matrix(1 0 0 1 94 0 )" mask="url(#clip59)" />
    <path d="M 113.958980501158 12  L 117.757575757576 0  L 121.556171013994 12  L 133.848683482772 12  L 123.903831991964 18.8364422017646  L 127.702427248383 30.478003709578  L 117.757575757576 23.2831230156268  L 107.812724266769 30.478003709578  L 111.611319523187 18.8364422017646  L 101.66646803238 12  L 113.958980501158 12  Z " stroke-width="2" stroke="#ff9900" fill="none" transform="matrix(1 0 0 1 94 0 )" mask="url(#clip59)" />
  </g>
</svg>