<?xml version="1.0" encoding="utf-8"?>
<svg version="1.1" xmlns:xlink="http://www.w3.org/1999/xlink" width="14px" height="14px" xmlns="http://www.w3.org/2000/svg">
  <g transform="matrix(1 0 0 1 -158 -472 )">
    <path d="M 13.721590909091 5.36931818181822  C 13.9071969696969 5.55492424242427  14 5.78030303030306  14 6.04545454545452  L 14 7.95454545454548  C 14 8.21969696969694  13.9071969696969 8.44507575757573  13.721590909091 8.63068181818178  C 13.5359848484848 8.8162878787879  13.310606060606 8.90909090909089  13.0454545454545 8.90909090909089  L 8.90909090909089 8.90909090909089  L 8.90909090909089 13.0454545454545  C 8.90909090909089 13.310606060606  8.8162878787879 13.5359848484848  8.63068181818178 13.721590909091  C 8.44507575757573 13.9071969696969  8.21969696969694 14  7.95454545454548 14  L 6.04545454545452 14  C 5.78030303030306 14  5.55492424242427 13.9071969696969  5.36931818181822 13.721590909091  C 5.1837121212121 13.5359848484848  5.09090909090904 13.310606060606  5.09090909090904 13.0454545454545  L 5.09090909090904 8.90909090909089  L 0.954545454545478 8.90909090909089  C 0.689393939393949 8.90909090909089  0.464015151515159 8.8162878787879  0.278409090909045 8.63068181818178  C 0.0928030303030573 8.44507575757573  0 8.21969696969694  0 7.95454545454548  L 0 6.04545454545452  C 0 5.78030303030306  0.0928030303030573 5.55492424242427  0.278409090909045 5.36931818181822  C 0.464015151515159 5.1837121212121  0.689393939393949 5.09090909090904  0.954545454545478 5.09090909090904  L 5.09090909090904 5.09090909090904  L 5.09090909090904 0.954545454545478  C 5.09090909090904 0.689393939393949  5.1837121212121 0.464015151515159  5.36931818181822 0.278409090909045  C 5.55492424242427 0.0928030303030573  5.78030303030306 0  6.04545454545452 0  L 7.95454545454548 0  C 8.21969696969694 0  8.44507575757573 0.0928030303030573  8.63068181818178 0.278409090909045  C 8.8162878787879 0.464015151515159  8.90909090909089 0.689393939393949  8.90909090909089 0.954545454545478  L 8.90909090909089 5.09090909090904  L 13.0454545454545 5.09090909090904  C 13.310606060606 5.09090909090904  13.5359848484848 5.1837121212121  13.721590909091 5.36931818181822  Z " fill-rule="nonzero" fill="#d7d7d7" stroke="none" transform="matrix(1 0 0 1 158 472 )" />
  </g>
</svg>