<?xml version="1.0" encoding="utf-8"?>
<svg version="1.1" xmlns:xlink="http://www.w3.org/1999/xlink" width="709px" height="404px" xmlns="http://www.w3.org/2000/svg">
  <g transform="matrix(1 0 0 1 -18 -918 )">
    <path d="M 18 918  L 727 918  L 727 1322  L 18 1322  L 18 918  " fill-rule="nonzero" fill="#cccccc" stroke="none" />
    <path d="M 46 946  L 699 946  L 699 1294  L 46 1294  L 46 946  " fill-rule="nonzero" fill="#ffffff" stroke="none" />
    <path d="M 416.98 1039.2  C 400.012 1039.2  386.68 1025.868  386.68 1008.9  C 386.68 991.932  400.012 978.6  416.98 978.6  C 433.948 978.6  447.28 991.932  447.28 1008.9  C 447.28 1025.868  433.948 1039.2  416.98 1039.2  " fill-rule="nonzero" fill="#cccccc" stroke="none" />
    <path d="M 56 1284  L 56 1103.6  L 214.25 1021.6  L 435.8 1171.86008462623  L 562.4 1070.8  L 689 1171.86008462623  L 689 1284  L 56 1284  " fill-rule="nonzero" fill="#169bd5" stroke="none" />
  </g>
</svg>