<?xml version="1.0" encoding="utf-8"?>
<svg version="1.1" xmlns:xlink="http://www.w3.org/1999/xlink" width="373px" height="264px" xmlns="http://www.w3.org/2000/svg">
  <g transform="matrix(1 0 0 1 -1 -272 )">
    <path d="M 2 276  A 3 3 0 0 1 5 273 L 370 273  A 3 3 0 0 1 373 276 L 373 532  A 3 3 0 0 1 370 535 L 5 535  A 3 3 0 0 1 2 532 L 2 276  Z " fill-rule="nonzero" fill="#ff3333" stroke="none" fill-opacity="0.0980392156862745" />
    <path d="M 1.5 276  A 3.5 3.5 0 0 1 5 272.5 L 370 272.5  A 3.5 3.5 0 0 1 373.5 276 L 373.5 532  A 3.5 3.5 0 0 1 370 535.5 L 5 535.5  A 3.5 3.5 0 0 1 1.5 532 L 1.5 276  Z " stroke-width="1" stroke-dasharray="9,4" stroke="#ff3333" fill="none" stroke-dashoffset="0.5" />
  </g>
</svg>