<?xml version="1.0" encoding="utf-8"?>
<svg version="1.1" xmlns:xlink="http://www.w3.org/1999/xlink" width="373px" height="264px" xmlns="http://www.w3.org/2000/svg">
  <g transform="matrix(1 0 0 1 -1 -339 )">
    <path d="M 2 343  A 3 3 0 0 1 5 340 L 370 340  A 3 3 0 0 1 373 343 L 373 599  A 3 3 0 0 1 370 602 L 5 602  A 3 3 0 0 1 2 599 L 2 343  Z " fill-rule="nonzero" fill="#ff3333" stroke="none" fill-opacity="0.0980392156862745" />
    <path d="M 1.5 343  A 3.5 3.5 0 0 1 5 339.5 L 370 339.5  A 3.5 3.5 0 0 1 373.5 343 L 373.5 599  A 3.5 3.5 0 0 1 370 602.5 L 5 602.5  A 3.5 3.5 0 0 1 1.5 599 L 1.5 343  Z " stroke-width="1" stroke-dasharray="9,4" stroke="#ff3333" fill="none" stroke-dashoffset="0.5" />
  </g>
</svg>