<?xml version="1.0" encoding="utf-8"?>
<svg version="1.1" xmlns:xlink="http://www.w3.org/1999/xlink" width="515px" height="261px" xmlns="http://www.w3.org/2000/svg">
  <g transform="matrix(1 0 0 1 -385 -342 )">
    <path d="M 386 346  A 3 3 0 0 1 389 343 L 896 343  A 3 3 0 0 1 899 346 L 899 599  A 3 3 0 0 1 896 602 L 389 602  A 3 3 0 0 1 386 599 L 386 346  Z " fill-rule="nonzero" fill="#ff3333" stroke="none" fill-opacity="0.0980392156862745" />
    <path d="M 385.5 346  A 3.5 3.5 0 0 1 389 342.5 L 896 342.5  A 3.5 3.5 0 0 1 899.5 346 L 899.5 599  A 3.5 3.5 0 0 1 896 602.5 L 389 602.5  A 3.5 3.5 0 0 1 385.5 599 L 385.5 346  Z " stroke-width="1" stroke-dasharray="9,4" stroke="#ff3333" fill="none" stroke-dashoffset="0.5" />
  </g>
</svg>