<?xml version="1.0" encoding="utf-8"?>
<svg version="1.1" xmlns:xlink="http://www.w3.org/1999/xlink" width="515px" height="261px" xmlns="http://www.w3.org/2000/svg">
  <g transform="matrix(1 0 0 1 -385 -275 )">
    <path d="M 386 279  A 3 3 0 0 1 389 276 L 896 276  A 3 3 0 0 1 899 279 L 899 532  A 3 3 0 0 1 896 535 L 389 535  A 3 3 0 0 1 386 532 L 386 279  Z " fill-rule="nonzero" fill="#ff3333" stroke="none" fill-opacity="0.0980392156862745" />
    <path d="M 385.5 279  A 3.5 3.5 0 0 1 389 275.5 L 896 275.5  A 3.5 3.5 0 0 1 899.5 279 L 899.5 532  A 3.5 3.5 0 0 1 896 535.5 L 389 535.5  A 3.5 3.5 0 0 1 385.5 532 L 385.5 279  Z " stroke-width="1" stroke-dasharray="9,4" stroke="#ff3333" fill="none" stroke-dashoffset="0.5" />
  </g>
</svg>