<?xml version="1.0" encoding="utf-8"?>
<svg version="1.1" xmlns:xlink="http://www.w3.org/1999/xlink" width="21px" height="21px" xmlns="http://www.w3.org/2000/svg">
  <g transform="matrix(1 0 0 1 -397 -98 )">
    <path d="M 15.5859375 12.619140625  C 15.7955729166667 12.9016927083333  15.818359375 13.2024739583333  15.654296875 13.521484375  C 15.4993489583333 13.8404947916667  15.2395833333333 14  14.875 14  L 6.125 14  C 5.76041666666667 14  5.50065104166667 13.8404947916667  5.345703125 13.521484375  C 5.181640625 13.2024739583333  5.20442708333333 12.9016927083333  5.4140625 12.619140625  L 9.7890625 6.494140625  C 9.96223958333333 6.248046875  10.19921875 6.125  10.5 6.125  C 10.80078125 6.125  11.0377604166667 6.248046875  11.2109375 6.494140625  L 15.5859375 12.619140625  Z M 17.3701171875 17.3701171875  C 17.4567057291667 17.2835286458333  17.5 17.1809895833333  17.5 17.0625  L 17.5 3.9375  C 17.5 3.81901041666667  17.4567057291667 3.71647135416667  17.3701171875 3.6298828125  C 17.2835286458333 3.54329427083333  17.1809895833333 3.5  17.0625 3.5  L 3.9375 3.5  C 3.81901041666667 3.5  3.71647135416667 3.54329427083333  3.6298828125 3.6298828125  C 3.54329427083333 3.71647135416667  3.5 3.81901041666667  3.5 3.9375  L 3.5 17.0625  C 3.5 17.1809895833333  3.54329427083333 17.2835286458333  3.6298828125 17.3701171875  C 3.71647135416667 17.4567057291667  3.81901041666667 17.5  3.9375 17.5  L 17.0625 17.5  C 17.1809895833333 17.5  17.2835286458333 17.4567057291667  17.3701171875 17.3701171875  Z M 19.8447265625 1.1552734375  C 20.6149088541667 1.92545572916666  21 2.85286458333333  21 3.9375  L 21 17.0625  C 21 18.1471354166667  20.6149088541667 19.0745442708333  19.8447265625 19.8447265625  C 19.0745442708333 20.6149088541667  18.1471354166667 21  17.0625 21  L 3.9375 21  C 2.85286458333333 21  1.92545572916667 20.6149088541667  1.1552734375 19.8447265625  C 0.385091145833333 19.0745442708333  0 18.1471354166667  0 17.0625  L 0 3.9375  C 0 2.85286458333333  0.385091145833333 1.92545572916666  1.1552734375 1.1552734375  C 1.92545572916667 0.385091145833332  2.85286458333333 0  3.9375 0  L 17.0625 0  C 18.1471354166667 0  19.0745442708333 0.385091145833332  19.8447265625 1.1552734375  Z " fill-rule="nonzero" fill="#000000" stroke="none" transform="matrix(1 0 0 1 397 98 )" />
  </g>
</svg>