<svg t="1662516739605" class="icon" viewBox="0 0 1024 1024" version="1.1" xmlns="http://www.w3.org/2000/svg" p-id="2848" width="200" height="200"><path d="M517.621551 501.697306m-501.55102 0a501.55102 501.55102 0 1 0 1003.10204 0 501.55102 501.55102 0 1 0-1003.10204 0Z" fill="#F59A23" p-id="2849"></path><path d="M685.557551 375.59902c0.271673 3.928816 0.417959 7.878531 0.417959 11.849143 0 92.431673-75.378939 167.371755-168.353959 167.371755-92.97502 0-168.353959-74.940082-168.353959-167.371755 0-3.970612 0.146286-7.941224 0.417959-11.849143h335.872z m-264.756245 193.682286l93.999021 130.131592a4.743837 4.743837 0 0 0 7.732244-0.020898l92.36898-129.922612a4.743837 4.743837 0 0 1 5.642449-1.671837c17.596082 7.105306 30.761796 12.977633 39.455347 17.700571l101.982041 55.296a77.217959 77.217959 0 0 1 40.395755 67.876572v69.840979c0 14.210612-11.493878 25.746286-25.725388 25.746286h-518.060408c-14.210612 0-25.725388-11.514776-25.725388-25.746286v-69.840979c0-28.316735 15.506286-54.37649 40.395755-67.876572l101.982041-55.296c7.356082-3.99151 20.68898-9.926531 39.915102-17.825959a4.743837 4.743837 0 0 1 5.642449 1.609143z m207.621225-371.064163a52.976327 52.976327 0 0 1 52.871836 49.486367l0.10449 3.489959v88.816327H349.184v-88.816327a52.976327 52.976327 0 0 1 49.486367-52.871836l3.48996-0.10449h226.262204z m-105.534694 21.441306h-15.213715a4.743837 4.743837 0 0 0-4.576653 3.489959l-0.167183 1.253878v32.329143H470.601143a4.743837 4.743837 0 0 0-4.597551 3.489959l-0.146286 1.253877v15.255511c0 2.173388 1.462857 4.012408 3.469061 4.555755l1.253878 0.188081h32.350041v32.329143c0 2.173388 1.462857 4.012408 3.489959 4.576653l1.253877 0.167184h15.234613c2.173388 0 4.012408-1.462857 4.576653-3.489959l0.167183-1.253878V281.432816h32.329143c2.194286 0 4.033306-1.462857 4.576653-3.469061l0.167184-1.253877v-15.255511a4.743837 4.743837 0 0 0-3.489959-4.555755l-1.253878-0.167183H527.652571v-32.329143a4.743837 4.743837 0 0 0-3.489959-4.597551l-1.253877-0.167184z" fill="#ffffff" p-id="2850" data-spm-anchor-id="a313x.7781069.0.i15" class="selected"></path></svg>