<svg t="1662516806375" class="icon" viewBox="0 0 1024 1024" version="1.1" xmlns="http://www.w3.org/2000/svg" p-id="3366" width="200" height="200"><path d="M514.027102 505.521633m-501.55102 0a501.55102 501.55102 0 1 0 1003.10204 0 501.55102 501.55102 0 1 0-1003.10204 0Z" fill="#F59A23" p-id="3367"></path><path d="M741.48049 390.164898a214.872816 214.872816 0 0 1 86.016 172.324571 214.83102 214.83102 0 0 1-68.649796 157.842286l6.24849 36.822204a11.932735 11.932735 0 0 1-16.384 13.019429l-38.243266-16.007837a211.027592 211.027592 0 0 1-96.130612 23.029551c-31.075265 0-60.604082-6.687347-87.186286-18.724571 129.149388-31.493224 225.112816-148.68898 225.112817-288.475429 0-27.648-3.761633-54.418286-10.783347-79.830204z m-285.131755-177.214694c141.270204 0 255.79102 115.356735 255.79102 257.630041s-114.520816 257.630041-255.79102 257.630041c-29.988571 0-58.744163-5.203592-85.472653-14.733062l-88.816327 34.899592a11.932735 11.932735 0 0 1-16.133224-13.123918l13.374693-78.701714a257.776327 257.776327 0 0 1-78.74351-185.991837c0-142.273306 114.520816-257.609143 255.791021-257.609143z m15.171918 169.001796h-34.795102a4.785633 4.785633 0 0 0-4.597551 3.510857l-0.188082 1.253878v59.454694h-59.433796a4.785633 4.785633 0 0 0-4.597551 3.510857l-0.167183 1.253877v34.816c0 2.194286 1.462857 4.054204 3.489959 4.597551l1.274775 0.167184h59.433796v59.454694c0 2.194286 1.504653 4.033306 3.510858 4.597551l1.274775 0.167184h34.795102a4.785633 4.785633 0 0 0 4.597551-3.510858l0.188082-1.253877v-59.454694h59.433796a4.785633 4.785633 0 0 0 4.597551-3.489959l0.188081-1.274776v-34.816a4.785633 4.785633 0 0 0-3.510857-4.597551l-1.253877-0.167183h-59.454694v-59.433796a4.785633 4.785633 0 0 0-3.510857-4.597551l-1.253878-0.188082z" fill="#ffffff" p-id="3368" data-spm-anchor-id="a313x.7781069.0.i24" class="selected"></path></svg>