<svg t="1662516841497" class="icon" viewBox="0 0 1024 1024" version="1.1" xmlns="http://www.w3.org/2000/svg" p-id="3617" width="200" height="200"><path d="M517.621551 501.697306m-501.55102 0a501.55102 501.55102 0 1 0 1003.10204 0 501.55102 501.55102 0 1 0-1003.10204 0Z" fill="#F59A23" p-id="3618"></path><path d="M810.19298 448.61649V729.276082a48.754939 48.754939 0 0 1-48.754939 48.754938H273.805061A48.754939 48.754939 0 0 1 225.050122 729.276082V448.61649h585.142858z m-274.181225 69.73649h-36.780408a5.475265 5.475265 0 0 0-5.349878 4.242285l-0.146285 1.253878v60.186122h-60.186123a5.475265 5.475265 0 0 0-5.349877 4.221388l-0.146286 1.253878v36.822204c0 2.591347 1.818122 4.764735 4.221388 5.328979l1.253877 0.146286h60.186123l0.020898 60.186122c0 2.612245 1.797224 4.785633 4.221387 5.349878l1.253878 0.146286h36.822204a5.475265 5.475265 0 0 0 5.32898-4.221388l0.146285-1.253878v-60.227918l60.186123 0.020898a5.475265 5.475265 0 0 0 5.349877-4.221388l0.146286-1.253877v-36.801306a5.475265 5.475265 0 0 0-4.221388-5.349878l-1.253877-0.146286h-60.227919v-60.186122a5.475265 5.475265 0 0 0-4.200489-5.349878l-1.253878-0.146285z m119.766204-292.989388c13.458286 0 24.387918 10.929633 24.387919 24.387918v35.986286h81.272163A48.754939 48.754939 0 0 1 810.19298 334.513633v65.619591H225.050122V334.513633a48.754939 48.754939 0 0 1 48.754939-48.775837h81.293061v-35.986286a24.387918 24.387918 0 0 1 48.754939 0v35.986286h227.53698v-35.986286c0-13.458286 10.929633-24.36702 24.387918-24.36702z" fill="#ffffff" p-id="3619" data-spm-anchor-id="a313x.7781069.0.i28" class="selected"></path></svg>