<svg t="1662516871051" class="icon" viewBox="0 0 1024 1024" version="1.1" xmlns="http://www.w3.org/2000/svg" p-id="4195" width="200" height="200"><path d="M517.621551 501.697306m-501.55102 0a501.55102 501.55102 0 1 0 1003.10204 0 501.55102 501.55102 0 1 0-1003.10204 0Z" fill="#F59A23" p-id="4196"></path><path d="M737.530776 794.101551H340.574041a58.535184 58.535184 0 0 1-46.686041-17.993143 63.341714 63.341714 0 0 1-17.345306-48.441469v-106.307919c0-12.225306 16.237714-22.151837 28.024163-22.151836s25.579102 9.926531 25.579102 22.151836v103.194123a20.897959 20.897959 0 0 0 20.897959 20.897959l386.486858 0.062694c11.786449 0 21.315918 12.329796 21.315918 24.555102 0 12.225306-9.529469 24.032653-21.315918 24.032653z m2.445061-568.570775c13.312 12.643265 20.187429 30.761796 18.682775 49.214693v365.087347c-2.25698 36.571429-32.182857 65.013551-68.29453 64.950857H304.399673c-5.642449 0-17.763265-2.298776-21.775673-6.332081a21.817469 21.817469 0 0 1-6.24849-15.318204V274.745469c0-35.881796 28.672-64.971755 64.031347-64.971755h349.957225a59.18302 59.18302 0 0 1 49.611755 15.757062z m-113.371429 111.030857l-154.937469 68.796081a12.308898 12.308898 0 0 0-6.373878 5.537959l-66.915265 156.086858a8.359184 8.359184 0 0 0 10.929633 10.992326l153.18204-64.365714c2.96751-1.003102 5.01551-3.99151 7.021715-7.06351l68.169143-159.054368a8.359184 8.359184 0 0 0-11.075919-10.929632zM517.621551 439.003429a20.897959 20.897959 0 1 1 0 41.795918 20.897959 20.897959 0 0 1 0-41.795918z" fill="#ffffff" p-id="4197" data-spm-anchor-id="a313x.7781069.0.i35" class="selected"></path></svg>