<?xml version="1.0" encoding="utf-8"?>
<svg version="1.1" xmlns:xlink="http://www.w3.org/1999/xlink" width="291px" height="27px" xmlns="http://www.w3.org/2000/svg">
  <g transform="matrix(1 0 0 1 -54 -313 )">
    <path d="M 0 20.2666666666667  C 16.5245901639344 22.9333333333333  22.4262295081967 24.5333333333333  35.4098360655738 22.9333333333333  C 48.3934426229508 21.3333333333333  56.6923386857946 10.318253518455  74.3606557377049 8.53333333333333  C 97.128463843533 6.23324328289609  105.049180327869 13.8666666666667  113.311475409836 17.0666666666667  C 121.573770491803 20.2666666666667  131.016393442623 23.4666666666667  146.360655737705 22.9333333333333  C 161.704918032787 22.4  160.312440189253 5.33333333333333  177.049180327869 1.06666666666667  C 193.785920466485 -3.2  200.983542814483 8  217.180327868852 12.2666666666667  C 233.377112923222 16.5333333333333  243.147540983607 9.6  254.950819672131 8.53333333333333  C 266.754098360656 7.46666666666667  277.377049180328 6.93333333333333  288 8  " stroke-width="2" stroke="#7ecf51" fill="none" transform="matrix(1 0 0 1 55 314 )" />
  </g>
</svg>