<?xml version="1.0" encoding="utf-8"?>
<svg version="1.1" xmlns:xlink="http://www.w3.org/1999/xlink" width="289px" height="46px" xmlns="http://www.w3.org/2000/svg">
  <g transform="matrix(1 0 0 1 -55 -312 )">
    <path d="M 0.784038369059934 43  C 7.06172839506173 24.3493975903614  24.716049382716 12.433734939759  37.3929131147725 12.9518072289157  C 50.0697768468289 13.4698795180723  55.203031812158 19.3483034930775  72.8208564170749 17.6144578313253  C 95.5235987704286 15.3801836106445  92.9173525251746 3.62650602409639  108.248799719377 3.62650602409639  C 123.58024691358 3.62650602409639  125.934156378601 19.6867469879518  143.67674302168 17.6144578313253  C 161.419329664759 15.5421686746988  163.59670781893 10.8795180722892  180.285617767392 6.73493975903614  C 196.974527715855 2.59036144578313  198.382131680553 -0.518072289156627  214.532629626285 3.62650602409639  C 230.683127572016 7.7710843373494  237.46024050738 18.1325301204819  249.960572928587 17.6144578313253  C 262.460905349794 17.0963855421687  278.938271604938 5.69879518072289  285.38851623089 0  " stroke-width="2" stroke="#61a5e8" fill="none" transform="matrix(1 0 0 1 56 313 )" />
  </g>
</svg>