<svg t="1605770065215" class="icon" viewBox="0 0 1024 1024" version="1.1" xmlns="http://www.w3.org/2000/svg" p-id="10937" width="200" height="200"><path d="M896 0a128 128 0 0 1 128 128v768a128 128 0 0 1-128 128H128a128 128 0 0 1-128-128V128a128 128 0 0 1 128-128zM298.666667 469.333333a42.666667 42.666667 0 0 0-42.666667 42.666667v256a42.666667 42.666667 0 0 0 85.333333 0v-256a42.666667 42.666667 0 0 0-42.666666-42.666667z m426.666666 0a42.666667 42.666667 0 0 0-42.666666 42.666667v256a42.666667 42.666667 0 0 0 85.333333 0v-256a42.666667 42.666667 0 0 0-42.666667-42.666667z m-213.333333-170.666666a42.666667 42.666667 0 0 0-42.666667 42.666666v426.666667a42.666667 42.666667 0 0 0 85.333334 0V341.333333a42.666667 42.666667 0 0 0-42.666667-42.666666z" fill="#008df0" p-id="10938"></path></svg>