<?xml version="1.0" encoding="utf-8"?>
<svg version="1.1" xmlns:xlink="http://www.w3.org/1999/xlink" width="20px" height="20px" xmlns="http://www.w3.org/2000/svg">
  <g transform="matrix(1 0 0 1 -34 -14 )">
    <path d="M 34 14  L 54 14  L 54 34  L 34 34  L 34 14  " fill-rule="nonzero" fill="#cccccc" stroke="none" />
    <path d="M 35 15  L 53 15  L 53 33  L 35 33  L 35 15  " fill-rule="nonzero" fill="#ffffff" stroke="none" />
    <path d="M 45.9 20  C 45.06 20  44.4 19.34  44.4 18.5  C 44.4 17.66  45.06 17  45.9 17  C 46.74 17  47.4 17.66  47.4 18.5  C 47.4 19.34  46.74 20  45.9 20  " fill-rule="nonzero" fill="#cccccc" stroke="none" />
    <path d="M 36 33  L 36 23.65  L 40.25 19.4  L 46.2 22.8  L 49.6 21.95  L 53 22.8  L 53 33  L 36 33  " fill-rule="nonzero" fill="#169bd5" stroke="none" />
  </g>
</svg>