<svg t="1662518094199" class="icon" viewBox="0 0 1024 1024" version="1.1" xmlns="http://www.w3.org/2000/svg" p-id="21733" width="200" height="200"><path d="M512 1024C229.233778 1024 0 794.766222 0 512S229.233778 0 512 0s512 229.233778 512 512-229.233778 512-512 512z m178.204444-389.831111l18.005334-5.077333 0.654222-0.170667a44.686222 44.686222 0 0 0 25.671111-21.020445c5.632-9.671111 7.68-21.575111 4.977778-32.938666l-8.334222-36.849778 23.623111-24.817778 1.024-0.668444c7.850667-9.159111 12.174222-19.683556 12.174222-31.402667 0-11.733333-4.323556-22.926222-12.174222-31.232l-24.177778-26.638222-0.824889-1.038222 8.632889-35.143111a45.070222 45.070222 0 0 0-4.977778-32.753778 43.818667 43.818667 0 0 0-25.671111-21.020445l-35.328-11.178666-9.656889-34.588445c-3.299556-10.88-10.666667-20.721778-20.508444-26.339555a43.178667 43.178667 0 0 0-32.440889-4.579556l-35.982222 8.120889-25.187556-25.059556A44.885333 44.885333 0 0 0 519.054222 227.555556c-11.52 0-22.314667 4.408889-30.648889 12.231111l-25.969777 24.803555-1.024 0.853334-34.304-8.675556c-10.496-2.759111-21.290667-1.038222-30.819556 3.726222l-1.507556 0.853334c-10.126222 5.617778-17.322667 15.459556-20.622222 26.339555l-10.666666 35.441778-33.649778 10.325333h-0.668445c-11.036444 3.356444-19.968 10.88-25.671111 21.020445-5.688889 9.841778-7.68 21.575111-4.977778 32.753777l7.978667 36.124445 0.369778 0.668444-23.637333 24.931556-1.024 0.668444A47.630222 47.630222 0 0 0 270.222222 481.223111c0 11.662222 4.323556 22.243556 11.989334 31.032889l24.291555 26.652444 0.668445 0.853334-8.647112 35.128889a48.497778 48.497778 0 0 0 4.024889 31.416889l1.024 1.521777a44.017778 44.017778 0 0 0 25.6 21.020445l18.346667 5.930666-72.32 118.186667a14.08 14.08 0 0 0 4.494222 19.370667 13.937778 13.937778 0 0 0 11.52 1.834666l85.76-20.352 20.152889 88.419556c1.678222 7.452444 9.358222 12.586667 16.967111 10.695111 3.655111-0.981333 6.656-3.541333 8.632889-6.286222l72.632889-118.798222c7.011556 4.764444 15.288889 6.968889 23.637333 6.968889 8.334222 0 16.668444-2.204444 23.623111-6.968889l72.632889 118.798222c1.976889 2.688 4.977778 5.262222 8.817778 6.286222 7.495111 1.891556 15.160889-3.242667 16.668445-10.695111l20.152888-88.419556 86.243556 20.337778c3.655111 1.052444 7.68 0.497778 11.335111-1.820444 6.357333-4.096 8.334222-12.714667 4.309333-19.370667l-72.561777-118.798222zM519.111111 584.177778c-55.054222 0-99.740444-45.454222-99.740444-101.617778 0-56.163556 44.686222-101.560889 99.740444-101.560889s99.740444 45.468444 99.740445 101.617778c0 56.163556-44.686222 101.560889-99.740445 101.560889z" fill="#F59A23" p-id="21734"></path></svg>