<svg t="1662518026490" class="icon" viewBox="0 0 1024 1024" version="1.1" xmlns="http://www.w3.org/2000/svg" p-id="19065" width="200" height="200"><path d="M398.336 243.712h226.816c20.48 0 37.376-16.896 36.864-37.888v-15.872c0-20.48-16.384-37.376-36.864-37.888H398.336c-20.48 0-37.376 16.896-36.864 37.888v15.872c0 20.992 16.384 37.888 36.864 37.888z" fill="#F59A23" p-id="19066"></path><path d="M769.024 222.72h-61.44c-3.072 38.4-34.816 67.584-73.216 68.096H390.144c-38.4 0-70.144-29.696-73.216-68.096h-61.44C174.08 222.208 107.52 288.256 107.52 369.664v353.792c0 81.408 66.048 147.456 147.456 147.968H769.024c81.408 0 147.456-66.048 147.456-147.456V370.176c0-81.408-66.048-147.456-147.456-147.456z m-97.28 356.352c0 12.288-9.728 22.016-22.016 22.016h-83.968v83.456c0 12.288-9.728 22.016-22.016 22.016H480.256c-12.288 0-22.016-9.728-22.016-21.504V601.088H374.272c-12.288 0-22.016-9.728-22.016-22.016v-64c0-12.288 10.24-22.016 22.016-22.016h83.456V409.6c0-12.288 9.728-22.016 22.016-22.016h63.488c12.288 0 22.016 9.728 22.016 22.016v83.456h83.456c11.776 0 21.504 9.728 22.016 22.016l1.024 64z" fill="#F59A23" p-id="19067"></path></svg>