<?xml version="1.0" encoding="utf-8"?>
<svg version="1.1" xmlns:xlink="http://www.w3.org/1999/xlink" width="12px" height="12px" viewBox="166 1.5  12 12" xmlns="http://www.w3.org/2000/svg">
  <path d="M 172 1.5  C 175.36 1.5  178 4.14  178 7.5  C 178 10.86  175.36 13.5  172 13.5  C 168.64 13.5  166 10.86  166 7.5  C 166 4.14  168.64 1.5  172 1.5  Z " fill-rule="nonzero" fill="#ffffff" stroke="none" />
  <path d="M 172 2  C 175.08 2  177.5 4.42  177.5 7.5  C 177.5 10.58  175.08 13  172 13  C 168.92 13  166.5 10.58  166.5 7.5  C 166.5 4.42  168.92 2  172 2  Z " stroke-width="1" stroke="#797979" fill="none" />
  <path d="M 172 10.5  C 170.32 10.5  169 9.18  169 7.5  C 169 5.82  170.32 4.5  172 4.5  C 173.68 4.5  175 5.82  175 7.5  C 175 9.18  173.68 10.5  172 10.5  " fill-rule="nonzero" fill="#797979" stroke="none" />
</svg>