<?xml version="1.0" encoding="utf-8"?>
<svg version="1.1" xmlns:xlink="http://www.w3.org/1999/xlink" width="100px" height="100px" xmlns="http://www.w3.org/2000/svg">
  <g transform="matrix(1 0 0 1 -14 -989 )">
    <path d="M 14 989  L 114 989  L 114 1089  L 14 1089  L 14 989  " fill-rule="nonzero" fill="#cccccc" stroke="none" />
    <path d="M 21 996  L 107 996  L 107 1082  L 21 1082  L 21 996  " fill-rule="nonzero" fill="#ffffff" stroke="none" />
    <path d="M 73.5 1019  C 69.3 1019  66 1015.7  66 1011.5  C 66 1007.3  69.3 1004  73.5 1004  C 77.7 1004  81 1007.3  81 1011.5  C 81 1015.7  77.7 1019  73.5 1019  " fill-rule="nonzero" fill="#cccccc" stroke="none" />
    <path d="M 24 1080  L 24 1035.45  L 44.25 1015.2  L 72.6 1031.4  L 88.8 1027.35  L 105 1031.4  L 105 1080  L 24 1080  " fill-rule="nonzero" fill="#169bd5" stroke="none" />
  </g>
</svg>