<?xml version="1.0" encoding="utf-8"?>
<svg version="1.1" xmlns:xlink="http://www.w3.org/1999/xlink" width="12px" height="12px" viewBox="184 50.5  12 12" xmlns="http://www.w3.org/2000/svg">
  <path d="M 190 50.5  C 193.36 50.5  196 53.14  196 56.5  C 196 59.86  193.36 62.5  190 62.5  C 186.64 62.5  184 59.86  184 56.5  C 184 53.14  186.64 50.5  190 50.5  Z " fill-rule="nonzero" fill="#ffffff" stroke="none" />
  <path d="M 190 51  C 193.08 51  195.5 53.42  195.5 56.5  C 195.5 59.58  193.08 62  190 62  C 186.92 62  184.5 59.58  184.5 56.5  C 184.5 53.42  186.92 51  190 51  Z " stroke-width="1" stroke="#797979" fill="none" />
  <path d="M 190 59.5  C 188.32 59.5  187 58.18  187 56.5  C 187 54.82  188.32 53.5  190 53.5  C 191.68 53.5  193 54.82  193 56.5  C 193 58.18  191.68 59.5  190 59.5  " fill-rule="nonzero" fill="#797979" stroke="none" />
</svg>