<?xml version="1.0" encoding="utf-8"?>
<svg version="1.1" xmlns:xlink="http://www.w3.org/1999/xlink" width="12px" height="12px" viewBox="96 1.5  12 12" xmlns="http://www.w3.org/2000/svg">
  <path d="M 102 1.5  C 105.36 1.5  108 4.14  108 7.5  C 108 10.86  105.36 13.5  102 13.5  C 98.64 13.5  96 10.86  96 7.5  C 96 4.14  98.64 1.5  102 1.5  Z " fill-rule="nonzero" fill="#ffffff" stroke="none" />
  <path d="M 102 2  C 105.08 2  107.5 4.42  107.5 7.5  C 107.5 10.58  105.08 13  102 13  C 98.92 13  96.5 10.58  96.5 7.5  C 96.5 4.42  98.92 2  102 2  Z " stroke-width="1" stroke="#797979" fill="none" />
  <path d="M 102 10.5  C 100.32 10.5  99 9.18  99 7.5  C 99 5.82  100.32 4.5  102 4.5  C 103.68 4.5  105 5.82  105 7.5  C 105 9.18  103.68 10.5  102 10.5  " fill-rule="nonzero" fill="#797979" stroke="none" />
</svg>