<?xml version="1.0" encoding="utf-8"?>
<svg version="1.1" xmlns:xlink="http://www.w3.org/1999/xlink" width="12px" height="12px" viewBox="166 81.5  12 12" xmlns="http://www.w3.org/2000/svg">
  <path d="M 172 81.5  C 175.36 81.5  178 84.14  178 87.5  C 178 90.86  175.36 93.5  172 93.5  C 168.64 93.5  166 90.86  166 87.5  C 166 84.14  168.64 81.5  172 81.5  Z " fill-rule="nonzero" fill="#ffffff" stroke="none" />
  <path d="M 172 82  C 175.08 82  177.5 84.42  177.5 87.5  C 177.5 90.58  175.08 93  172 93  C 168.92 93  166.5 90.58  166.5 87.5  C 166.5 84.42  168.92 82  172 82  Z " stroke-width="1" stroke="#797979" fill="none" />
  <path d="M 172 90.5  C 170.32 90.5  169 89.18  169 87.5  C 169 85.82  170.32 84.5  172 84.5  C 173.68 84.5  175 85.82  175 87.5  C 175 89.18  173.68 90.5  172 90.5  " fill-rule="nonzero" fill="#797979" stroke="none" />
</svg>