<?xml version="1.0" encoding="utf-8"?>
<svg version="1.1" xmlns:xlink="http://www.w3.org/1999/xlink" width="12px" height="12px" viewBox="160 611.5  12 12" xmlns="http://www.w3.org/2000/svg">
  <path d="M 166 611.5  C 169.36 611.5  172 614.14  172 617.5  C 172 620.86  169.36 623.5  166 623.5  C 162.64 623.5  160 620.86  160 617.5  C 160 614.14  162.64 611.5  166 611.5  Z " fill-rule="nonzero" fill="#ffffff" stroke="none" />
  <path d="M 166 612  C 169.08 612  171.5 614.42  171.5 617.5  C 171.5 620.58  169.08 623  166 623  C 162.92 623  160.5 620.58  160.5 617.5  C 160.5 614.42  162.92 612  166 612  Z " stroke-width="1" stroke="#797979" fill="none" />
  <path d="M 166 620.5  C 164.32 620.5  163 619.18  163 617.5  C 163 615.82  164.32 614.5  166 614.5  C 167.68 614.5  169 615.82  169 617.5  C 169 619.18  167.68 620.5  166 620.5  " fill-rule="nonzero" fill="#797979" stroke="none" />
</svg>