<?xml version="1.0" encoding="utf-8"?>
<svg version="1.1" xmlns:xlink="http://www.w3.org/1999/xlink" width="12px" height="12px" viewBox="90 611.5  12 12" xmlns="http://www.w3.org/2000/svg">
  <path d="M 96 611.5  C 99.36 611.5  102 614.14  102 617.5  C 102 620.86  99.36 623.5  96 623.5  C 92.64 623.5  90 620.86  90 617.5  C 90 614.14  92.64 611.5  96 611.5  Z " fill-rule="nonzero" fill="#ffffff" stroke="none" />
  <path d="M 96 612  C 99.08 612  101.5 614.42  101.5 617.5  C 101.5 620.58  99.08 623  96 623  C 92.92 623  90.5 620.58  90.5 617.5  C 90.5 614.42  92.92 612  96 612  Z " stroke-width="1" stroke="#797979" fill="none" />
  <path d="M 96 620.5  C 94.32 620.5  93 619.18  93 617.5  C 93 615.82  94.32 614.5  96 614.5  C 97.68 614.5  99 615.82  99 617.5  C 99 619.18  97.68 620.5  96 620.5  " fill-rule="nonzero" fill="#797979" stroke="none" />
</svg>