<?xml version="1.0" encoding="utf-8"?>
<svg version="1.1" xmlns:xlink="http://www.w3.org/1999/xlink" width="80px" height="80px" xmlns="http://www.w3.org/2000/svg">
  <g transform="matrix(1 0 0 1 -145 -23 )">
    <path d="M 145 23  L 225 23  L 225 103  L 145 103  L 145 23  " fill-rule="nonzero" fill="#cccccc" stroke="none" />
    <path d="M 151 29  L 219 29  L 219 97  L 151 97  L 151 29  " fill-rule="nonzero" fill="#ffffff" stroke="none" />
    <path d="M 192.6 47  C 189.24 47  186.6 44.36  186.6 41  C 186.6 37.64  189.24 35  192.6 35  C 195.96 35  198.6 37.64  198.6 41  C 198.6 44.36  195.96 47  192.6 47  " fill-rule="nonzero" fill="#cccccc" stroke="none" />
    <path d="M 153 95  L 153 59.8  L 169 43.8  L 191.4 56.6  L 204.2 53.4  L 217 56.6  L 217 95  L 153 95  " fill-rule="nonzero" fill="#169bd5" stroke="none" />
  </g>
</svg>