<?xml version="1.0" encoding="utf-8"?>
<svg version="1.1" xmlns:xlink="http://www.w3.org/1999/xlink" width="100px" height="26px" xmlns="http://www.w3.org/2000/svg">
  <g transform="matrix(1 0 0 1 -18 -589 )">
    <path d="M 18.5 593  A 3.5 3.5 0 0 1 22 589.5 L 114 589.5  A 3.5 3.5 0 0 1 117.5 593 L 117.5 611  A 3.5 3.5 0 0 1 114 614.5 L 22 614.5  A 3.5 3.5 0 0 1 18.5 611 L 18.5 593  Z " fill-rule="nonzero" fill="#ffffff" stroke="none" fill-opacity="0" />
    <path d="M 18.5 593  A 3.5 3.5 0 0 1 22 589.5 L 114 589.5  A 3.5 3.5 0 0 1 117.5 593 L 117.5 611  A 3.5 3.5 0 0 1 114 614.5 L 22 614.5  A 3.5 3.5 0 0 1 18.5 611 L 18.5 593  Z " stroke-width="1" stroke="#a7b6c4" fill="none" />
  </g>
</svg>