<?xml version="1.0" encoding="utf-8"?>
<svg version="1.1" xmlns:xlink="http://www.w3.org/1999/xlink" width="110px" height="36px" xmlns="http://www.w3.org/2000/svg">
  <defs>
    <filter x="13px" y="584px" width="110px" height="36px" filterUnits="userSpaceOnUse" id="filter732">
      <feOffset dx="0" dy="0" in="SourceAlpha" result="shadowOffsetInner" />
      <feGaussianBlur stdDeviation="2.5" in="shadowOffsetInner" result="shadowGaussian" />
      <feComposite in2="shadowGaussian" operator="atop" in="SourceAlpha" result="shadowComposite" />
      <feColorMatrix type="matrix" values="0 0 0 0 0.8  0 0 0 0 0.8  0 0 0 0 0.8  0 0 0 1 0  " in="shadowComposite" />
    </filter>
    <g id="widget733">
      <path d="M 19.5 593  A 2.5 2.5 0 0 1 22 590.5 L 114 590.5  A 2.5 2.5 0 0 1 116.5 593 L 116.5 611  A 2.5 2.5 0 0 1 114 613.5 L 22 613.5  A 2.5 2.5 0 0 1 19.5 611 L 19.5 593  Z " fill-rule="nonzero" fill="#ffffff" stroke="none" fill-opacity="0" />
      <path d="M 19 593  A 3 3 0 0 1 22 590 L 114 590  A 3 3 0 0 1 117 593 L 117 611  A 3 3 0 0 1 114 614 L 22 614  A 3 3 0 0 1 19 611 L 19 593  Z " stroke-width="2" stroke="#7ca7ec" fill="none" />
    </g>
  </defs>
  <g transform="matrix(1 0 0 1 -13 -584 )">
    <use xlink:href="#widget733" filter="url(#filter732)" />
    <use xlink:href="#widget733" />
  </g>
</svg>