<svg t="1590763456912" class="icon" viewBox="0 0 1024 1024" version="1.1" xmlns="http://www.w3.org/2000/svg" p-id="2426" width="13" height="13"><path d="M180.705882 0h662.588236c102.4 0 180.705882 78.305882 180.705882 180.705882v662.588236c0 102.4-78.305882 180.705882-180.705882 180.705882H180.705882c-102.4 0-180.705882-78.305882-180.705882-180.705882V180.705882c0-102.4 78.305882-180.705882 180.705882-180.705882z" fill="#F2F7FD" p-id="2427"></path><path d="M686.682353 397.552941H349.364706c-24.094118 0-48.188235 18.070588-48.188235 48.188235 0 12.047059 6.023529 24.094118 12.047058 30.117648L481.882353 626.447059c18.070588 18.070588 54.211765 18.070588 72.282353 0L722.823529 475.858824c18.070588-18.070588 18.070588-48.188235 0-66.258824-12.047059-6.023529-24.094118-12.047059-36.141176-12.047059z" fill="#4A90E2" p-id="2428"></path></svg>