<?xml version="1.0" encoding="utf-8"?>
<svg version="1.1" xmlns:xlink="http://www.w3.org/1999/xlink" width="11px" height="6px" xmlns="http://www.w3.org/2000/svg">
  <g transform="matrix(1 0 0 1 -98 -599 )">
    <path d="M 10.7958984375 0.197916666666657  C 10.9319661458333 0.329861111111114  11 0.486111111111114  11 0.666666666666657  C 11 0.847222222222229  10.9319661458333 1.00347222222223  10.7958984375 1.13541666666666  L 5.9833984375 5.80208333333334  C 5.84733072916662 5.93402777777777  5.68619791666662 6  5.5 6  C 5.31380208333338 6  5.15266927083338 5.93402777777777  5.0166015625 5.80208333333334  L 0.204101562499955 1.13541666666666  C 0.0680338541666901 1.00347222222223  0 0.847222222222229  0 0.666666666666657  C 0 0.486111111111114  0.0680338541666901 0.329861111111114  0.204101562499955 0.197916666666657  C 0.340169270833335 0.0659722222222285  0.501302083333335 0  0.687499999999957 0  L 10.3125 0  C 10.4986979166667 0  10.6598307291667 0.0659722222222285  10.7958984375 0.197916666666657  Z " fill-rule="nonzero" fill="#3bb19c" stroke="none" transform="matrix(1 0 0 1 98 599 )" />
  </g>
</svg>