<?xml version="1.0" encoding="utf-8"?>
<svg version="1.1" xmlns:xlink="http://www.w3.org/1999/xlink" width="14px" height="14px" xmlns="http://www.w3.org/2000/svg">
  <g>
    <path d="M 13.4888000488281 1.9850845355019  C 13.4888000488281 1.17583847589046  12.8250884973556 0.511199951171875  12.0149154644981 0.511199951171875  L 1.9850845355019 0.511199951171875  C 1.17583847589046 0.511199951171875  0.511199951171875 1.17491150264442  0.511199951171875 1.9850845355019  L 0.511199951171875 12.0149154644981  C 0.511199951171875 12.8241615241095  1.17491150264442 13.4888000488281  1.9850845355019 13.4888000488281  L 12.0149154644981 13.4888000488281  C 12.8250884973556 13.4888000488281  13.4888000488281 12.8250884973556  13.4888000488281 12.0149154644981  L 13.4888000488281 1.9850845355019  Z M 12.6044692956954 12.0149154644981  C 12.5985096131168 12.3382235531683  12.337313722478 12.5985993609161  12.0139884912521 12.6035423224494  L 1.98601150874794 12.6035423224494  C 1.66249111979561 12.598571853105  1.40142814689501 12.3375088802044  1.39645767755061 12.0139884912521  L 1.39645767755061 1.98601150874794  C 1.39645767755061 1.66713333310932  1.66713333310932 1.39645767755061  1.98601150874794 1.39645767755061  L 12.0139884912521 1.39645767755061  C 12.3328666668907 1.39645767755061  12.6044692956954 1.66713333310932  12.6044692956954 1.98601150874794  L 12.6044692956954 12.0139884912521  Z " fill-rule="nonzero" fill="#000000" stroke="none" />
  </g>
</svg>