<?xml version="1.0" encoding="utf-8"?>
<svg version="1.1" xmlns:xlink="http://www.w3.org/1999/xlink" width="9px" height="16px" xmlns="http://www.w3.org/2000/svg">
  <g transform="matrix(1 0 0 1 -138 -595 )">
    <path d="M 8.84536082474224 0.961923847695402  C 8.94845360824743 1.06880427521708  9 1.1917167668671  9 1.33066132264537  C 9 1.46960587842341  8.94845360824743 1.59251837007344  8.84536082474224 1.69939879759522  L 2.76804123711341 8  L 8.84536082474224 14.3006012024048  C 8.94845360824743 14.4074816299266  9 14.5303941215766  9 14.6693386773546  C 9 14.8082832331329  8.94845360824743 14.9311957247829  8.84536082474224 15.0380761523046  L 8.0721649484536 15.8396793587175  C 7.96907216494844 15.9465597862392  7.85051546391753 16  7.71649484536081 16  C 7.58247422680412 16  7.46391752577318 15.9465597862392  7.36082474226802 15.8396793587175  L 0.154639175257756 8.36873747494997  C 0.0515463917525949 8.26185704742818  0 8.13894455577827  0 8  C 0 7.86105544422173  0.0515463917525949 7.73814295257182  0.154639175257756 7.63126252505003  L 7.36082474226802 0.16032064128251  C 7.46391752577318 0.0534402137608367  7.58247422680412 0  7.71649484536081 0  C 7.85051546391753 0  7.96907216494844 0.0534402137608367  8.0721649484536 0.16032064128251  L 8.84536082474224 0.961923847695402  Z " fill-rule="nonzero" fill="#c9c9c9" stroke="none" transform="matrix(1 0 0 1 138 595 )" />
  </g>
</svg>