<?xml version="1.0" encoding="utf-8"?>
<svg version="1.1" xmlns:xlink="http://www.w3.org/1999/xlink" width="9px" height="16px" xmlns="http://www.w3.org/2000/svg">
  <g transform="matrix(1 0 0 1 -208 -595 )">
    <path d="M 8.84536082474227 7.63126252505015  C 8.94845360824741 7.73814295257182  9 7.86105544422173  9 8  C 9 8.13894455577827  8.94845360824741 8.26185704742818  8.84536082474227 8.36873747494985  L 1.63917525773195 15.8396793587175  C 1.53608247422682 15.9465597862392  1.41752577319585 16  1.28350515463916 16  C 1.14948453608247 16  1.03092783505156 15.9465597862392  0.927835051546367 15.8396793587175  L 0.154639175257728 15.0380761523046  C 0.0515463917525949 14.9311957247829  0 14.8082832331329  0 14.6693386773547  C 0 14.5303941215765  0.0515463917525949 14.4074816299266  0.154639175257728 14.3006012024048  L 6.23195876288662 8  L 0.154639175257728 1.69939879759522  C 0.0515463917525949 1.59251837007344  0 1.46960587842352  0 1.33066132264526  C 0 1.1917167668671  0.0515463917525949 1.06880427521708  0.154639175257728 0.961923847695402  L 0.927835051546367 0.16032064128251  C 1.03092783505156 0.0534402137608367  1.14948453608247 0  1.28350515463916 0  C 1.41752577319585 0  1.53608247422682 0.0534402137608367  1.63917525773195 0.16032064128251  L 8.84536082474227 7.63126252505015  Z " fill-rule="nonzero" fill="#c9c9c9" stroke="none" transform="matrix(1 0 0 1 208 595 )" />
  </g>
</svg>