<svg t="1575689145347" class="icon" viewBox="0 0 1024 1024" version="1.1" xmlns="http://www.w3.org/2000/svg" p-id="4483" width="35" height="35"><path d="M341.888 674.3296l125.7984 115.3536a49.9456 49.9456 0 0 0 67.5072 0l125.824-115.3536h215.0656c27.5968 0 49.9456 22.3744 49.9456 49.9712v118.0928a49.9456 49.9456 0 0 1-49.9456 49.9456H151.7824a49.9456 49.9456 0 0 1-49.92-49.92v-118.1184c0-27.5968 22.3488-49.9712 49.92-49.9712h190.1056z" fill="#8AB6FE" p-id="4484"></path><path d="M601.344 472.2176h135.6032a24.9856 24.9856 0 0 1 16.896 43.392l-235.52 215.8848a24.9856 24.9856 0 0 1-33.7408 0l-235.52-215.8848a24.9856 24.9856 0 0 1 16.896-43.392h135.5776V193.0496c0-27.5968 22.3744-49.9712 49.9712-49.9712h99.8912c27.5968 0 49.9456 22.3744 49.9456 49.9712v279.168z" fill="#3C85FD" p-id="4485"></path></svg>