<?xml version="1.0" encoding="utf-8"?>
<svg version="1.1" xmlns:xlink="http://www.w3.org/1999/xlink" width="110px" height="118px" xmlns="http://www.w3.org/2000/svg">
  <defs>
    <filter x="13px" y="476px" width="110px" height="118px" filterUnits="userSpaceOnUse" id="filter437">
      <feOffset dx="0" dy="0" in="SourceAlpha" result="shadowOffsetInner" />
      <feGaussianBlur stdDeviation="2.5" in="shadowOffsetInner" result="shadowGaussian" />
      <feComposite in2="shadowGaussian" operator="atop" in="SourceAlpha" result="shadowComposite" />
      <feColorMatrix type="matrix" values="0 0 0 0 0  0 0 0 0 0  0 0 0 0 0  0 0 0 0.349019607843137 0  " in="shadowComposite" />
    </filter>
    <g id="widget438">
      <path d="M 19.5 485  A 2.5 2.5 0 0 1 22 482.5 L 114 482.5  A 2.5 2.5 0 0 1 116.5 485 L 116.5 585  A 2.5 2.5 0 0 1 114 587.5 L 22 587.5  A 2.5 2.5 0 0 1 19.5 585 L 19.5 485  Z " fill-rule="nonzero" fill="#ffffff" stroke="none" fill-opacity="0" />
      <path d="M 19 485  A 3 3 0 0 1 22 482 L 114 482  A 3 3 0 0 1 117 485 L 117 585  A 3 3 0 0 1 114 588 L 22 588  A 3 3 0 0 1 19 585 L 19 485  Z " stroke-width="2" stroke="#7ca7ec" fill="none" />
    </g>
  </defs>
  <g transform="matrix(1 0 0 1 -13 -476 )">
    <use xlink:href="#widget438" filter="url(#filter437)" />
    <use xlink:href="#widget438" />
  </g>
</svg>