<?xml version="1.0" encoding="utf-8"?>
<svg version="1.1" xmlns:xlink="http://www.w3.org/1999/xlink" width="300px" height="170px" xmlns="http://www.w3.org/2000/svg">
  <g transform="matrix(1 0 0 1 -434 -192 )">
    <path d="M 434 192  L 734 192  L 734 362  L 434 362  L 434 192  " fill-rule="nonzero" fill="#cccccc" stroke="none" />
    <path d="M 446 204  L 722 204  L 722 350  L 446 350  L 446 204  " fill-rule="nonzero" fill="#ffffff" stroke="none" />
    <path d="M 602.75 243  C 595.61 243  590 237.39  590 230.25  C 590 223.11  595.61 217.5  602.75 217.5  C 609.89 217.5  615.5 223.11  615.5 230.25  C 615.5 237.39  609.89 243  602.75 243  " fill-rule="nonzero" fill="#cccccc" stroke="none" />
    <path d="M 451 346  L 451 270.65  L 517.75 236.4  L 611.2 299.42  L 664.6 256.95  L 718 299.42  L 718 346  L 451 346  " fill-rule="nonzero" fill="#169bd5" stroke="none" />
  </g>
</svg>