<?xml version="1.0" encoding="utf-8"?>
<svg version="1.1" xmlns:xlink="http://www.w3.org/1999/xlink" width="10px" height="15px" xmlns="http://www.w3.org/2000/svg">
  <g transform="matrix(1 0 0 1 -148 -134 )">
    <path d="M 9.82817869415807 7.15430861723447  C 9.94272623138603 7.25450901803607  10 7.36973947895792  10 7.5  C 10 7.63026052104208  9.94272623138603 7.74549098196393  9.82817869415807 7.84569138276553  L 1.8213058419244 14.8496993987976  C 1.70675830469645 14.9498997995992  1.57502863688431 15  1.42611683848797 15  C 1.27720504009164 15  1.1454753722795 14.9498997995992  1.03092783505155 14.8496993987976  L 0.171821305841924 14.0981963927856  C 0.0572737686139748 13.997995991984  0 13.8827655310621  0 13.75250501002  C 0 13.622244488978  0.0572737686139748 13.5070140280561  0.171821305841924 13.4068136272545  L 6.92439862542955 7.5  L 0.171821305841924 1.59318637274549  C 0.0572737686139748 1.49298597194389  0 1.37775551102204  0 1.24749498997996  C 0 1.11723446893787  0.0572737686139748 1.00200400801603  0.171821305841924 0.901803607214428  L 1.03092783505155 0.150300601202405  C 1.1454753722795 0.0501002004008011  1.27720504009164 0  1.42611683848797 0  C 1.57502863688431 0  1.70675830469645 0.0501002004008011  1.8213058419244 0.150300601202405  L 9.82817869415807 7.15430861723447  Z " fill-rule="nonzero" fill="#ffffff" stroke="none" transform="matrix(1 0 0 1 148 134 )" />
  </g>
</svg>