<svg t="1605778222505" class="icon" viewBox="0 0 1024 1024" version="1.1" xmlns="http://www.w3.org/2000/svg" p-id="3930" width="200" height="200"><path d="M553.86203003 156.61769104a59.43740844 59.43740844 0 0 0-79.86785889 0L151.037323 463.27838135a29.79286193 29.79286193 0 0 0 39.89685059 44.25361633l5.13542175-4.87586975V822.7208252a59.58572388 59.58572388 0 0 0 59.58572388 59.65988159h173.39927672v-179.38751221a41.95472717 41.95472717 0 0 1 41.97326661-42.01034546h81.59202576a41.95472717 41.95472717 0 0 1 41.97326659 42.01034546v179.38751221h177.51502992a59.58572388 59.58572388 0 0 0 59.6042633-59.6598816V506.56794739c13.2371521 11.97647094 32.01759338 11.06803894 43.03001404-1.20506286a29.79286193 29.79286193 0 0 0-2.15057373-42.08450318L553.86203003 156.63623047z" fill="#1296db" p-id="3931"></path></svg>