<?xml version="1.0" encoding="utf-8"?>
<svg version="1.1" xmlns:xlink="http://www.w3.org/1999/xlink" width="100px" height="60px" xmlns="http://www.w3.org/2000/svg">
  <defs>
    <linearGradient gradientUnits="userSpaceOnUse" x1="124" y1="363" x2="124" y2="423" id="LinearGradient1">
      <stop id="Stop2" stop-color="#ffffff" offset="0" />
      <stop id="Stop3" stop-color="#f2f2f2" offset="0" />
      <stop id="Stop4" stop-color="#e4e4e4" offset="1" />
      <stop id="Stop5" stop-color="#ffffff" offset="1" />
    </linearGradient>
  </defs>
  <g transform="matrix(1 0 0 1 -74 -363 )">
    <path d="M 124 363  C 152 363  174 376.2  174 393  C 174 409.8  152 423  124 423  C 96 423  74 409.8  74 393  C 74 376.2  96 363  124 363  Z " fill-rule="nonzero" fill="url(#LinearGradient1)" stroke="none" />
    <path d="M 124 363.5  C 151.72 363.5  173.5 376.48  173.5 393  C 173.5 409.52  151.72 422.5  124 422.5  C 96.28 422.5  74.5 409.52  74.5 393  C 74.5 376.48  96.28 363.5  124 363.5  Z " stroke-width="1" stroke="#797979" fill="none" />
  </g>
</svg>