<?xml version="1.0" encoding="utf-8"?>
<svg version="1.1" xmlns:xlink="http://www.w3.org/1999/xlink" width="50px" height="38px" xmlns="http://www.w3.org/2000/svg">
  <g transform="matrix(1 0 0 1 -180 -111 )">
    <path d="M 49.0967741935484 5.24579124579125  C 49.6989247311828 5.84287317620651  50 6.5679012345679  50 7.42087542087542  C 50 8.27384960718294  49.6989247311828 8.99887766554433  49.0967741935484 9.5959595959596  L 25.741935483871 32.7542087542088  L 21.3548387096774 37.1043771043771  C 20.752688172043 37.7014590347924  20.0215053763441 38  19.1612903225806 38  C 18.3010752688172 38  17.5698924731183 37.7014590347924  16.9677419354839 37.1043771043771  L 12.5806451612903 32.7542087542088  L 0.903225806451613 21.1750841750842  C 0.301075268817205 20.5780022446689  0 19.8529741863075  0 19  C 0 18.1470258136925  0.301075268817205 17.4219977553311  0.903225806451613 16.8249158249158  L 5.29032258064516 12.4747474747475  C 5.89247311827957 11.8776655443322  6.6236559139785 11.5791245791246  7.48387096774194 11.5791245791246  C 8.34408602150538 11.5791245791246  9.0752688172043 11.8776655443322  9.67741935483871 12.4747474747475  L 19.1612903225806 21.9107744107744  L 40.3225806451613 0.895622895622896  C 40.9247311827957 0.298540965207631  41.6559139784946 0  42.5161290322581 0  C 43.3763440860215 0  44.1075268817204 0.298540965207631  44.7096774193548 0.895622895622896  L 49.0967741935484 5.24579124579125  Z " fill-rule="nonzero" fill="#ffffff" stroke="none" transform="matrix(1 0 0 1 180 111 )" />
  </g>
</svg>