<?xml version="1.0" encoding="utf-8"?>
<svg version="1.1" xmlns:xlink="http://www.w3.org/1999/xlink" width="11px" height="11px" xmlns="http://www.w3.org/2000/svg">
  <defs>
    <path d="M 0 0  L 200 0  L 200 200  L 0 200  Z " fill-rule="evenodd" fill="black" id="path302" />
    <clipPath id="clip303">
      <use xlink:href="#path302" />
    </clipPath>
    <defs>
      <style type="text/css"><![CDATA[
@font-face {
  font-family: "ifont";
  src: url("//at.alicdn.com/t/font_1442373896_4754455.eot?#iefix") format("embedded-opentype"), url("//at.alicdn.com/t/font_1442373896_4754455.woff") format("woff"), url("//at.alicdn.com/t/font_1442373896_4754455.ttf") format("truetype"), url("//at.alicdn.com/t/font_1442373896_4754455.svg#ifont") format("svg");
}

]]></style>
    </defs>
    <g class="transform-group">
      <g transform="scale(0.1953125, 0.1953125)">
        <path d="M557.311759 513.248864l265.280473-263.904314c12.54369-12.480043 12.607338-32.704421 0.127295-45.248112-12.512727-12.576374-32.704421-12.607338-45.248112-0.127295L512.127295 467.904421 249.088241 204.063755c-12.447359-12.480043-32.704421-12.54369-45.248112-0.063647-12.512727 12.480043-12.54369 32.735385-0.063647 45.280796l262.975407 263.775299-265.151458 263.744335c-12.54369 12.480043-12.607338 32.704421-0.127295 45.248112 6.239161 6.271845 14.463432 9.440452 22.687703 9.440452 8.160624 0 16.319527-3.103239 22.560409-9.311437l265.216826-263.807983 265.440452 266.240344c6.239161 6.271845 14.432469 9.407768 22.65674 9.407768 8.191587 0 16.352211-3.135923 22.591372-9.34412 12.512727-12.480043 12.54369-32.704421 0.063647-45.248112L557.311759 513.248864z" fill="#272636"></path>
      </g>
    </g>
    <filter x="-50.00%" y="-50.00%" width="200.00%" height="200.00%" filterUnits="objectBoundingBox" id="filter304">
      <feColorMatrix type="matrix" values="1 0 0 0 0  0 1 0 0 0  0 0 1 0 0  0 0 0 1 0  " in="SourceGraphic" />
    </filter>
    <mask fill="white" id="clip305">
      <path d="M 335.5 75.5  C 334.39 75.5  333.5 74.61  333.5 73.5  L 333.5 67.5  C 333.5 66.39  334.39 65.5  335.5 65.5  L 341.5 65.5  C 342.61 65.5  343.5 66.39  343.5 67.5  L 343.5 73.5  C 343.5 74.61  342.61 75.5  341.5 75.5  L 335.5 75.5  " fill-rule="evenodd" />
    </mask>
  </defs>
  <g transform="matrix(1 0 0 1 -333 -65 )">
    <g transform="matrix(0.055 0 0 0.055 333 65 )" clip-path="url(#clip303)" filter="url(#filter304)">
      <g class="transform-group">
        <g transform="scale(0.1953125, 0.1953125)">
          <path d="M557.311759 513.248864l265.280473-263.904314c12.54369-12.480043 12.607338-32.704421 0.127295-45.248112-12.512727-12.576374-32.704421-12.607338-45.248112-0.127295L512.127295 467.904421 249.088241 204.063755c-12.447359-12.480043-32.704421-12.54369-45.248112-0.063647-12.512727 12.480043-12.54369 32.735385-0.063647 45.280796l262.975407 263.775299-265.151458 263.744335c-12.54369 12.480043-12.607338 32.704421-0.127295 45.248112 6.239161 6.271845 14.463432 9.440452 22.687703 9.440452 8.160624 0 16.319527-3.103239 22.560409-9.311437l265.216826-263.807983 265.440452 266.240344c6.239161 6.271845 14.432469 9.407768 22.65674 9.407768 8.191587 0 16.352211-3.135923 22.591372-9.34412 12.512727-12.480043 12.54369-32.704421 0.063647-45.248112L557.311759 513.248864z" fill="#272636"></path>
        </g>
      </g>
    </g>
    <path d="M 335 75.5  C 334.1675 75.5  333.5 74.8325  333.5 74  L 333.5 67  C 333.5 66.1675  334.1675 65.5  335 65.5  L 342 65.5  C 342.8325 65.5  343.5 66.1675  343.5 67  L 343.5 74  C 343.5 74.8325  342.8325 75.5  342 75.5  L 335 75.5  Z " stroke-width="1" stroke="#797979" fill="none" mask="url(#clip305)" />
  </g>
</svg>