<?xml version="1.0" encoding="utf-8"?>
<svg version="1.1" xmlns:xlink="http://www.w3.org/1999/xlink" width="13px" height="14px" xmlns="http://www.w3.org/2000/svg">
  <g transform="matrix(1 0 0 1 -324 -85 )">
    <path d="M 12.6936026936027 10.4646464646465  C 12.8978675645342 10.6846240179574  13 10.9517396184063  13 11.2659932659933  C 13 11.5802469135802  12.8978675645342 11.8473625140292  12.6936026936027 12.0673400673401  L 11.2053872053872 13.6700336700337  C 11.0011223344557 13.8900112233446  10.7530864197531 14  10.4612794612795 14  C 10.1694725028058 14  9.92143658810325 13.8900112233446  9.71717171717172 13.6700336700337  L 6.5 10.2053872053872  L 3.28282828282828 13.6700336700337  C 3.07856341189675 13.8900112233446  2.83052749719416 14  2.53872053872054 14  C 2.24691358024691 14  1.99887766554433 13.8900112233446  1.79461279461279 13.6700336700337  L 0.306397306397306 12.0673400673401  C 0.102132435465769 11.8473625140292  0 11.5802469135802  0 11.2659932659933  C 0 10.9517396184063  0.102132435465769 10.6846240179574  0.306397306397306 10.4646464646465  L 3.52356902356902 7  L 0.306397306397306 3.53535353535353  C 0.102132435465769 3.31537598204265  0 3.04826038159371  0 2.73400673400673  C 0 2.41975308641975  0.102132435465769 2.15263748597082  0.306397306397306 1.93265993265993  L 1.79461279461279 0.32996632996633  C 1.99887766554433 0.109988776655443  2.24691358024691 0  2.53872053872054 0  C 2.83052749719416 0  3.07856341189675 0.109988776655443  3.28282828282828 0.32996632996633  L 6.5 3.7946127946128  L 9.71717171717172 0.32996632996633  C 9.92143658810325 0.109988776655443  10.1694725028058 0  10.4612794612795 0  C 10.7530864197531 0  11.0011223344557 0.109988776655443  11.2053872053872 0.32996632996633  L 12.6936026936027 1.93265993265993  C 12.8978675645342 2.15263748597082  13 2.41975308641975  13 2.73400673400673  C 13 3.04826038159371  12.8978675645342 3.31537598204265  12.6936026936027 3.53535353535353  L 9.47643097643098 7  L 12.6936026936027 10.4646464646465  Z " fill-rule="nonzero" fill="#333333" stroke="none" transform="matrix(1 0 0 1 324 85 )" />
  </g>
</svg>