<?xml version="1.0" encoding="utf-8"?>
<svg version="1.1" xmlns:xlink="http://www.w3.org/1999/xlink" width="12px" height="12px" viewBox="120 2.5  12 12" xmlns="http://www.w3.org/2000/svg">
  <path d="M 126 2.5  C 129.36 2.5  132 5.14  132 8.5  C 132 11.86  129.36 14.5  126 14.5  C 122.64 14.5  120 11.86  120 8.5  C 120 5.14  122.64 2.5  126 2.5  Z " fill-rule="nonzero" fill="#ffffff" stroke="none" />
  <path d="M 126 3  C 129.08 3  131.5 5.42  131.5 8.5  C 131.5 11.58  129.08 14  126 14  C 122.92 14  120.5 11.58  120.5 8.5  C 120.5 5.42  122.92 3  126 3  Z " stroke-width="1" stroke="#797979" fill="none" />
  <path d="M 126 11.5  C 124.32 11.5  123 10.18  123 8.5  C 123 6.82  124.32 5.5  126 5.5  C 127.68 5.5  129 6.82  129 8.5  C 129 10.18  127.68 11.5  126 11.5  " fill-rule="nonzero" fill="#797979" stroke="none" />
</svg>