<?xml version="1.0" encoding="utf-8"?>
<svg version="1.1" xmlns:xlink="http://www.w3.org/1999/xlink" width="20px" height="20px" xmlns="http://www.w3.org/2000/svg">
  <g transform="matrix(1 0 0 1 -769 -328 )">
    <path d="M 779 328  C 784.6 328  789 332.4  789 338  C 789 343.6  784.6 348  779 348  C 773.4 348  769 343.6  769 338  C 769 332.4  773.4 328  779 328  Z " fill-rule="nonzero" fill="#f2f2f2" stroke="none" />
    <path d="M 779 328.5  C 784.32 328.5  788.5 332.68  788.5 338  C 788.5 343.32  784.32 347.5  779 347.5  C 773.68 347.5  769.5 343.32  769.5 338  C 769.5 332.68  773.68 328.5  779 328.5  Z " stroke-width="1" stroke="#cccccc" fill="none" />
  </g>
</svg>