<?xml version="1.0" encoding="utf-8"?>
<svg version="1.1" xmlns:xlink="http://www.w3.org/1999/xlink" width="12px" height="12px" viewBox="280 236.5  12 12" xmlns="http://www.w3.org/2000/svg">
  <path d="M 286 236.5  C 289.36 236.5  292 239.14  292 242.5  C 292 245.86  289.36 248.5  286 248.5  C 282.64 248.5  280 245.86  280 242.5  C 280 239.14  282.64 236.5  286 236.5  Z " fill-rule="nonzero" fill="#ffffff" stroke="none" />
  <path d="M 286 237  C 289.08 237  291.5 239.42  291.5 242.5  C 291.5 245.58  289.08 248  286 248  C 282.92 248  280.5 245.58  280.5 242.5  C 280.5 239.42  282.92 237  286 237  Z " stroke-width="1" stroke="#797979" fill="none" />
  <path d="M 286 245.5  C 284.32 245.5  283 244.18  283 242.5  C 283 240.82  284.32 239.5  286 239.5  C 287.68 239.5  289 240.82  289 242.5  C 289 244.18  287.68 245.5  286 245.5  " fill-rule="nonzero" fill="#797979" stroke="none" />
</svg>