<?xml version="1.0" encoding="utf-8"?>
<svg version="1.1" xmlns:xlink="http://www.w3.org/1999/xlink" width="12px" height="12px" viewBox="280 186.5  12 12" xmlns="http://www.w3.org/2000/svg">
  <path d="M 286 186.5  C 289.36 186.5  292 189.14  292 192.5  C 292 195.86  289.36 198.5  286 198.5  C 282.64 198.5  280 195.86  280 192.5  C 280 189.14  282.64 186.5  286 186.5  Z " fill-rule="nonzero" fill="#ffffff" stroke="none" />
  <path d="M 286 187  C 289.08 187  291.5 189.42  291.5 192.5  C 291.5 195.58  289.08 198  286 198  C 282.92 198  280.5 195.58  280.5 192.5  C 280.5 189.42  282.92 187  286 187  Z " stroke-width="1" stroke="#797979" fill="none" />
  <path d="M 286 195.5  C 284.32 195.5  283 194.18  283 192.5  C 283 190.82  284.32 189.5  286 189.5  C 287.68 189.5  289 190.82  289 192.5  C 289 194.18  287.68 195.5  286 195.5  " fill-rule="nonzero" fill="#797979" stroke="none" />
</svg>