<?xml version="1.0" encoding="utf-8"?>
<svg version="1.1" xmlns:xlink="http://www.w3.org/1999/xlink" width="110px" height="62px" xmlns="http://www.w3.org/2000/svg">
  <g transform="matrix(1 0 0 1 -280 -306 )">
    <path d="M 280 306  L 390 306  L 390 368  L 280 368  L 280 306  " fill-rule="nonzero" fill="#cccccc" stroke="none" />
    <path d="M 284 310  L 386 310  L 386 364  L 284 364  L 284 310  " fill-rule="nonzero" fill="#ffffff" stroke="none" />
    <path d="M 341.85 324.6  C 339.246 324.6  337.2 322.554  337.2 319.95  C 337.2 317.346  339.246 315.3  341.85 315.3  C 344.454 315.3  346.5 317.346  346.5 319.95  C 346.5 322.554  344.454 324.6  341.85 324.6  " fill-rule="nonzero" fill="#cccccc" stroke="none" />
    <path d="M 286 363  L 286 334.95  L 310.75 322.2  L 345.4 345.752727272727  L 365.2 329.85  L 385 345.752727272727  L 385 363  L 286 363  " fill-rule="nonzero" fill="#169bd5" stroke="none" />
  </g>
</svg>