<?xml version="1.0" encoding="utf-8"?>
<svg version="1.1" xmlns:xlink="http://www.w3.org/1999/xlink" width="20px" height="20px" xmlns="http://www.w3.org/2000/svg">
  <g transform="matrix(1 0 0 1 -850 -328 )">
    <path d="M 860 328  C 865.6 328  870 332.4  870 338  C 870 343.6  865.6 348  860 348  C 854.4 348  850 343.6  850 338  C 850 332.4  854.4 328  860 328  Z " fill-rule="nonzero" fill="#f2f2f2" stroke="none" />
    <path d="M 860 328.5  C 865.32 328.5  869.5 332.68  869.5 338  C 869.5 343.32  865.32 347.5  860 347.5  C 854.68 347.5  850.5 343.32  850.5 338  C 850.5 332.68  854.68 328.5  860 328.5  Z " stroke-width="1" stroke="#cccccc" fill="none" />
  </g>
</svg>