<?xml version="1.0" encoding="utf-8"?>
<svg version="1.1" xmlns:xlink="http://www.w3.org/1999/xlink" width="94px" height="96px" xmlns="http://www.w3.org/2000/svg">
  <defs>
    <mask fill="white" id="clip196">
      <path d="M 80 464  C 74.45 464  70 459.55  70 454  L 70 378  C 70 372.45  74.45 368  80 368  L 154 368  C 159.55 368  164 372.45  164 378  L 164 454  C 164 459.55  159.55 464  154 464  " fill-rule="evenodd" />
    </mask>
  </defs>
  <g transform="matrix(1 0 0 1 -70 -368 )">
    <path d="M 70 368  L 164 368  L 164 464  L 70 464  L 70 368  " fill-rule="nonzero" fill="#cccccc" stroke="none" mask="url(#clip196)" />
    <path d="M 77 375  L 157 375  L 157 457  L 77 457  L 77 375  " fill-rule="nonzero" fill="#ffffff" stroke="none" mask="url(#clip196)" />
    <path d="M 125.93 396.5  C 121.982 396.5  118.88 393.398  118.88 389.45  C 118.88 385.502  121.982 382.4  125.93 382.4  C 129.878 382.4  132.98 385.502  132.98 389.45  C 132.98 393.398  129.878 396.5  125.93 396.5  " fill-rule="nonzero" fill="#cccccc" stroke="none" mask="url(#clip196)" />
    <path d="M 80 455  L 80 412.65  L 98.75 393.4  L 125 408.8  L 140 404.95  L 155 408.8  L 155 455  L 80 455  " fill-rule="nonzero" fill="#169bd5" stroke="none" mask="url(#clip196)" />
  </g>
</svg>