<?xml version="1.0" encoding="utf-8"?>
<svg version="1.1" xmlns:xlink="http://www.w3.org/1999/xlink" width="15px" height="15px" xmlns="http://www.w3.org/2000/svg">
  <g transform="matrix(1 0 0 1 -20 -23 )">
    <path d="M 27.5 23  C 31.7 23  35 26.3  35 30.5  C 35 34.7  31.7 38  27.5 38  C 23.3 38  20 34.7  20 30.5  C 20 26.3  23.3 23  27.5 23  Z " fill-rule="nonzero" fill="#aaaaaa" stroke="none" />
    <path d="M 27.5 23.5  C 31.42 23.5  34.5 26.58  34.5 30.5  C 34.5 34.42  31.42 37.5  27.5 37.5  C 23.58 37.5  20.5 34.42  20.5 30.5  C 20.5 26.58  23.58 23.5  27.5 23.5  Z " stroke-width="1" stroke="#ffffff" fill="none" />
  </g>
</svg>