<?xml version="1.0" encoding="utf-8"?>
<svg version="1.1" xmlns:xlink="http://www.w3.org/1999/xlink" width="100px" height="60px" xmlns="http://www.w3.org/2000/svg">
  <defs>
    <linearGradient gradientUnits="userSpaceOnUse" x1="450" y1="1071" x2="450" y2="1131" id="LinearGradient685">
      <stop id="Stop686" stop-color="#ffffff" offset="0" />
      <stop id="Stop687" stop-color="#f2f2f2" offset="0" />
      <stop id="Stop688" stop-color="#e4e4e4" offset="1" />
      <stop id="Stop689" stop-color="#ffffff" offset="1" />
    </linearGradient>
  </defs>
  <g transform="matrix(1 0 0 1 -400 -1071 )">
    <path d="M 450 1071  C 478 1071  500 1084.2  500 1101  C 500 1117.8  478 1131  450 1131  C 422 1131  400 1117.8  400 1101  C 400 1084.2  422 1071  450 1071  Z " fill-rule="nonzero" fill="url(#LinearGradient685)" stroke="none" />
    <path d="M 450 1071.5  C 477.72 1071.5  499.5 1084.48  499.5 1101  C 499.5 1117.52  477.72 1130.5  450 1130.5  C 422.28 1130.5  400.5 1117.52  400.5 1101  C 400.5 1084.48  422.28 1071.5  450 1071.5  Z " stroke-width="1" stroke="#797979" fill="none" />
  </g>
</svg>