<?xml version="1.0" standalone="no"?><!DOCTYPE svg PUBLIC "-//W3C//DTD SVG 1.1//EN" "http://www.w3.org/Graphics/SVG/1.1/DTD/svg11.dtd"><svg xmlns:xlink="http://www.w3.org/1999/xlink" xmlns="http://www.w3.org/2000/svg" version="1.1" width="200" height="200" viewBox="0 0 200 200"><defs><style type="text/css"><![CDATA[
@font-face {
  font-family: "ifont";
  src: url("//at.alicdn.com/t/font_1442373896_4754455.eot?#iefix") format("embedded-opentype"), url("//at.alicdn.com/t/font_1442373896_4754455.woff") format("woff"), url("//at.alicdn.com/t/font_1442373896_4754455.ttf") format("truetype"), url("//at.alicdn.com/t/font_1442373896_4754455.svg#ifont") format("svg");
}

]]></style></defs><g class="transform-group"><g transform="scale(0.1953125, 0.1953125)"><path d="M960 512c0 247.039-200.961 448-448 448s-448-200.961-448-448 200.961-448 448-448 448 200.961 448 448zM128 512c0 211.745 172.255 384 384 384s384-172.255 384-384-172.255-384-384-384-384 172.255-384 384zM501.152 355.168c-0.127 0.033-0.256 0.192-0.385 0.256-3.616 1.536-7.072 3.649-10.048 6.592-0.033 0.033-0.033 0.064-0.064 0.096-0.033 0.033-0.064 0.033-0.096 0.064l-159.359 158.912c-12.513 12.48-12.576 32.736-0.064 45.248 12.48 12.513 32.735 12.544 45.248 0.064l136.672-136.288 135.905 137.408c12.447 12.576 32.672 12.673 45.248 0.256 6.335-6.239 9.504-14.496 9.504-22.751 0-8.127-3.103-16.256-9.248-22.497l-158.496-160.255c-9.379-9.504-23.204-11.873-34.819-7.104z" fill="#272636"></path></g></g></svg>