<?xml version="1.0" encoding="utf-8"?>
<svg version="1.1" xmlns:xlink="http://www.w3.org/1999/xlink" width="40px" height="25px" xmlns="http://www.w3.org/2000/svg">
  <g transform="matrix(1 0 0 1 -351 -315 )">
    <path d="M 0.99609375 17.353515625  C 0.33203125 15.810546875  0 14.1927083333333  0 12.5  C 0 10.8072916666667  0.33203125 9.189453125  0.99609375 7.646484375  C 1.66015625 6.103515625  2.548828125 4.775390625  3.662109375 3.662109375  C 4.775390625 2.548828125  6.103515625 1.66015625  7.646484375 0.996093749999999  C 9.189453125 0.332031250000001  10.8072916666667 0  12.5 0  L 27.5 0  C 29.1927083333333 0  30.810546875 0.332031250000001  32.353515625 0.996093749999999  C 33.896484375 1.66015625  35.224609375 2.548828125  36.337890625 3.662109375  C 37.451171875 4.775390625  38.33984375 6.103515625  39.00390625 7.646484375  C 39.66796875 9.189453125  40 10.8072916666667  40 12.5  C 40 14.1927083333333  39.66796875 15.810546875  39.00390625 17.353515625  C 38.33984375 18.896484375  37.451171875 20.224609375  36.337890625 21.337890625  C 35.224609375 22.451171875  33.896484375 23.33984375  32.353515625 24.00390625  C 30.810546875 24.66796875  29.1927083333333 25  27.5 25  L 12.5 25  C 10.8072916666667 25  9.189453125 24.66796875  7.646484375 24.00390625  C 6.103515625 23.33984375  4.775390625 22.451171875  3.662109375 21.337890625  C 2.548828125 20.224609375  1.66015625 18.896484375  0.99609375 17.353515625  Z M 23.623046875 21.708984375  C 24.853515625 22.236328125  26.1458333333333 22.5  27.5 22.5  C 28.8541666666667 22.5  30.146484375 22.236328125  31.376953125 21.708984375  C 32.607421875 21.181640625  33.671875 20.46875  34.5703125 19.5703125  C 35.46875 18.671875  36.181640625 17.607421875  36.708984375 16.376953125  C 37.236328125 15.146484375  37.5 13.8541666666667  37.5 12.5  C 37.5 11.1458333333333  37.236328125 9.853515625  36.708984375 8.623046875  C 36.181640625 7.392578125  35.46875 6.328125  34.5703125 5.4296875  C 33.671875 4.53125  32.607421875 3.818359375  31.376953125 3.291015625  C 30.146484375 2.763671875  28.8541666666667 2.5  27.5 2.5  C 26.1458333333333 2.5  24.853515625 2.763671875  23.623046875 3.291015625  C 22.392578125 3.818359375  21.328125 4.53125  20.4296875 5.4296875  C 19.53125 6.328125  18.818359375 7.392578125  18.291015625 8.623046875  C 17.763671875 9.853515625  17.5 11.1458333333333  17.5 12.5  C 17.5 13.8541666666667  17.763671875 15.146484375  18.291015625 16.376953125  C 18.818359375 17.607421875  19.53125 18.671875  20.4296875 19.5703125  C 21.328125 20.46875  22.392578125 21.181640625  23.623046875 21.708984375  Z " fill-rule="nonzero" fill="#5fb878" stroke="none" transform="matrix(1 0 0 1 351 315 )" />
  </g>
</svg>