<?xml version="1.0" encoding="utf-8"?>
<svg version="1.1" xmlns:xlink="http://www.w3.org/1999/xlink" width="30px" height="23px" xmlns="http://www.w3.org/2000/svg">
  <g transform="matrix(1 0 0 1 -108 -31 )">
    <path d="M 29.458064516129 3.14747474747475  C 29.8193548387097 3.5057239057239  30 3.94074074074074  30 4.45252525252525  C 30 4.96430976430976  29.8193548387097 5.3993265993266  29.458064516129 5.75757575757576  L 15.4451612903226 19.6525252525253  L 12.8129032258065 22.2626262626263  C 12.4516129032258 22.6208754208754  12.0129032258065 22.8  11.4967741935484 22.8  C 10.9806451612903 22.8  10.541935483871 22.6208754208754  10.1806451612903 22.2626262626263  L 7.54838709677419 19.6525252525253  L 0.541935483870958 12.7050505050505  C 0.180645161290315 12.3468013468013  0 11.9117845117845  0 11.4  C 0 10.8882154882155  0.180645161290315 10.4531986531987  0.541935483870958 10.0949494949495  L 3.17419354838709 7.48484848484848  C 3.53548387096774 7.12659932659933  3.97419354838709 6.94747474747474  4.49032258064516 6.94747474747474  C 5.00645161290322 6.94747474747474  5.44516129032259 7.12659932659933  5.80645161290323 7.48484848484848  L 11.4967741935484 13.1464646464647  L 24.1935483870968 0.537373737373738  C 24.5548387096774 0.179124579124579  24.9935483870968 0  25.5096774193548 0  C 26.0258064516129 0  26.4645161290323 0.179124579124579  26.8258064516129 0.537373737373738  L 29.458064516129 3.14747474747475  Z " fill-rule="nonzero" fill="#ff0000" stroke="none" transform="matrix(1 0 0 1 108 31 )" />
  </g>
</svg>