<?xml version="1.0" encoding="utf-8"?>
<svg version="1.1" xmlns:xlink="http://www.w3.org/1999/xlink" width="322px" height="94px" xmlns="http://www.w3.org/2000/svg">
  <defs>
    <filter x="76px" y="0px" width="322px" height="94px" filterUnits="userSpaceOnUse" id="filter70">
      <feOffset dx="5" dy="5" in="SourceAlpha" result="shadowOffsetInner" />
      <feGaussianBlur stdDeviation="2.5" in="shadowOffsetInner" result="shadowGaussian" />
      <feComposite in2="shadowGaussian" operator="atop" in="SourceAlpha" result="shadowComposite" />
      <feColorMatrix type="matrix" values="0 0 0 0 0.666666666666667  0 0 0 0 0.666666666666667  0 0 0 0 0.666666666666667  0 0 0 0.349019607843137 0  " in="shadowComposite" />
    </filter>
    <g id="widget71">
      <path d="M 13 84  C 7.75571385420267 84  3.21302304460426 80.6235724445422  0.539980159758784 75.4037865752139  C 4.66593542604346 65.5790822201998  7 54.207285621916  7 42  C 7 29.792714378084  4.66593542604346 18.4209177798002  0.539980492343034 8.59621320737991  C 3.21302304460437 3.3764275554578  7.75571385420267 0  13 0  L 297 0  C 305.4 0  312 8.66249999999999  312 19.6875  L 312 64.3125  C 312 75.3375  305.4 84  297 84  L 13 84  Z " fill-rule="nonzero" fill="#ea4148" stroke="none" transform="matrix(1 0 0 1 76 0 )" />
    </g>
  </defs>
  <g transform="matrix(1 0 0 1 -76 0 )">
    <use xlink:href="#widget71" filter="url(#filter70)" />
    <use xlink:href="#widget71" />
  </g>
</svg>