<?xml version="1.0" encoding="utf-8"?>
<svg version="1.1" xmlns:xlink="http://www.w3.org/1999/xlink" width="77px" height="10px" preserveAspectRatio="xMinYMid meet" viewBox="358 2317  77 8" xmlns="http://www.w3.org/2000/svg">
  <path d="M 359 2321.5  L 425 2321.5  A 5 5 0 0 1 430.5 2326.5 L 430.5 2352  " stroke-width="1" stroke-dasharray="3,1" stroke="#000000" fill="none" />
  <path d="M 361 2318.5  A 3 3 0 0 0 358 2321.5 A 3 3 0 0 0 361 2324.5 A 3 3 0 0 0 364 2321.5 A 3 3 0 0 0 361 2318.5 Z M 435.146446609407 2346.94644660941  L 430.5 2351.59289321881  L 425.853553390593 2346.94644660941  L 425.146446609407 2347.65355339059  L 430.146446609407 2352.65355339059  L 430.5 2353.00710678119  L 430.853553390593 2352.65355339059  L 435.853553390593 2347.65355339059  L 435.146446609407 2346.94644660941  Z " fill-rule="nonzero" fill="#000000" stroke="none" />
</svg>