<?xml version="1.0" encoding="utf-8"?>
<svg version="1.1" xmlns:xlink="http://www.w3.org/1999/xlink" width="18px" height="18px" preserveAspectRatio="xMinYMid meet" viewBox="421 1967  18 16" xmlns="http://www.w3.org/2000/svg">
  <path d="M 359 1943.5  L 425 1943.5  A 5 5 0 0 1 430.5 1948.5 L 430.5 1975  " stroke-width="1" stroke-dasharray="3,1" stroke="#000000" fill="none" />
  <path d="M 361 1940.5  A 3 3 0 0 0 358 1943.5 A 3 3 0 0 0 361 1946.5 A 3 3 0 0 0 364 1943.5 A 3 3 0 0 0 361 1940.5 Z M 435.146446609407 1969.94644660941  L 430.5 1974.59289321881  L 425.853553390593 1969.94644660941  L 425.146446609407 1970.65355339059  L 430.146446609407 1975.65355339059  L 430.5 1976.00710678119  L 430.853553390593 1975.65355339059  L 435.853553390593 1970.65355339059  L 435.146446609407 1969.94644660941  Z " fill-rule="nonzero" fill="#000000" stroke="none" />
</svg>