<?xml version="1.0" encoding="utf-8"?>
<svg version="1.1" xmlns:xlink="http://www.w3.org/1999/xlink" width="10px" height="37px" preserveAspectRatio="xMidYMin meet" viewBox="1129 2316  8 37" xmlns="http://www.w3.org/2000/svg">
  <path d="M 1062 2321.5  L 1128 2321.5  A 5 5 0 0 1 1133.5 2326.5 L 1133.5 2352  " stroke-width="1" stroke-dasharray="3,1" stroke="#000000" fill="none" />
  <path d="M 1064 2318.5  A 3 3 0 0 0 1061 2321.5 A 3 3 0 0 0 1064 2324.5 A 3 3 0 0 0 1067 2321.5 A 3 3 0 0 0 1064 2318.5 Z M 1138.14644660941 2346.94644660941  L 1133.5 2351.59289321881  L 1128.85355339059 2346.94644660941  L 1128.14644660941 2347.65355339059  L 1133.14644660941 2352.65355339059  L 1133.5 2353.00710678119  L 1133.85355339059 2352.65355339059  L 1138.85355339059 2347.65355339059  L 1138.14644660941 2346.94644660941  Z " fill-rule="nonzero" fill="#000000" stroke="none" />
</svg>