<?xml version="1.0" encoding="utf-8"?>
<svg version="1.1" xmlns:xlink="http://www.w3.org/1999/xlink" width="80px" height="48px" xmlns="http://www.w3.org/2000/svg">
  <g transform="matrix(1 0 0 1 -840 -140 )">
    <path d="M 880 140  C 902.4 140  920 150.56  920 164  C 920 177.44  902.4 188  880 188  C 857.6 188  840 177.44  840 164  C 840 150.56  857.6 140  880 140  Z " fill-rule="nonzero" fill="#ffffff" stroke="none" />
    <path d="M 880 140.5  C 902.12 140.5  919.5 150.84  919.5 164  C 919.5 177.16  902.12 187.5  880 187.5  C 857.88 187.5  840.5 177.16  840.5 164  C 840.5 150.84  857.88 140.5  880 140.5  Z " stroke-width="1" stroke="#797979" fill="none" />
  </g>
</svg>