<?xml version="1.0" encoding="utf-8"?>
<svg version="1.1" xmlns:xlink="http://www.w3.org/1999/xlink" width="100px" height="60px" xmlns="http://www.w3.org/2000/svg">
  <defs>
    <linearGradient gradientUnits="userSpaceOnUse" x1="210" y1="170" x2="210" y2="230" id="LinearGradient105">
      <stop id="Stop106" stop-color="#ffffff" offset="0" />
      <stop id="Stop107" stop-color="#f2f2f2" offset="0" />
      <stop id="Stop108" stop-color="#e4e4e4" offset="1" />
      <stop id="Stop109" stop-color="#ffffff" offset="1" />
    </linearGradient>
  </defs>
  <g transform="matrix(1 0 0 1 -160 -170 )">
    <path d="M 210 170  C 238 170  260 183.2  260 200  C 260 216.8  238 230  210 230  C 182 230  160 216.8  160 200  C 160 183.2  182 170  210 170  Z " fill-rule="nonzero" fill="url(#LinearGradient105)" stroke="none" />
    <path d="M 210 170.5  C 237.72 170.5  259.5 183.48  259.5 200  C 259.5 216.52  237.72 229.5  210 229.5  C 182.28 229.5  160.5 216.52  160.5 200  C 160.5 183.48  182.28 170.5  210 170.5  Z " stroke-width="1" stroke="#797979" fill="none" />
  </g>
</svg>