<?xml version="1.0" encoding="utf-8"?>
<svg version="1.1" xmlns:xlink="http://www.w3.org/1999/xlink" width="14px" height="22px" xmlns="http://www.w3.org/2000/svg">
  <g transform="matrix(1 0 0 1 -7 -136 )">
    <path d="M 14 3.13895781637717  C 14 3.37551695616212  13.9144144144144 3.58023159636063  13.7432432432432 3.75310173697271  L 6.56756756756757 11  L 13.7432432432432 18.2468982630273  C 13.9144144144144 18.4197684036394  14 18.6244830438379  14 18.8610421836228  C 14 19.0976013234078  13.9144144144144 19.3023159636063  13.7432432432432 19.4751861042184  L 11.5 21.7406947890819  C 11.3288288288288 21.913564929694  11.1261261261261 22  10.8918918918919 22  C 10.6576576576577 22  10.454954954955 21.913564929694  10.2837837837838 21.7406947890819  L 0.256756756756757 11.6141439205955  C 0.0855855855855857 11.4412737799835  0 11.2365591397849  0 11  C 0 10.7634408602151  0.0855855855855857 10.5587262200165  0.256756756756757 10.3858560794045  L 10.2837837837838 0.259305210918114  C 10.454954954955 0.086435070306037  10.6576576576577 0  10.8918918918919 0  C 11.1261261261261 0  11.3288288288288 0.086435070306037  11.5 0.259305210918114  L 13.7432432432432 2.52481389578164  C 13.9144144144144 2.69768403639371  14 2.90239867659222  14 3.13895781637717  Z " fill-rule="nonzero" fill="#ffffff" stroke="none" transform="matrix(1 0 0 1 7 136 )" />
  </g>
</svg>