<?xml version="1.0" encoding="utf-8"?>
<svg version="1.1" xmlns:xlink="http://www.w3.org/1999/xlink" width="14px" height="22px" xmlns="http://www.w3.org/2000/svg">
  <g transform="matrix(1 0 0 1 -355 -136 )">
    <path d="M 14 11  C 14 11.2365591397849  13.9144144144144 11.4412737799835  13.7432432432432 11.6141439205955  L 3.71621621621622 21.7406947890819  C 3.54504504504505 21.913564929694  3.34234234234234 22  3.10810810810811 22  C 2.87387387387387 22  2.67117117117117 21.913564929694  2.5 21.7406947890819  L 0.256756756756757 19.4751861042184  C 0.0855855855855857 19.3023159636063  0 19.0976013234078  0 18.8610421836228  C 0 18.6244830438379  0.0855855855855857 18.4197684036394  0.256756756756757 18.2468982630273  L 7.43243243243243 11  L 0.256756756756757 3.75310173697271  C 0.0855855855855857 3.58023159636063  0 3.37551695616212  0 3.13895781637717  C 0 2.90239867659222  0.0855855855855857 2.69768403639371  0.256756756756757 2.52481389578164  L 2.5 0.259305210918114  C 2.67117117117117 0.086435070306037  2.87387387387387 0  3.10810810810811 0  C 3.34234234234234 0  3.54504504504505 0.086435070306037  3.71621621621622 0.259305210918114  L 13.7432432432432 10.3858560794045  C 13.9144144144144 10.5587262200165  14 10.7634408602151  14 11  Z " fill-rule="nonzero" fill="#ffffff" stroke="none" transform="matrix(1 0 0 1 355 136 )" />
  </g>
</svg>