<?xml version="1.0" encoding="utf-8"?>
<svg version="1.1" xmlns:xlink="http://www.w3.org/1999/xlink" width="186px" height="125px" xmlns="http://www.w3.org/2000/svg">
  <g>
    <path d="M 0 0  L 186 0  L 186 125  L 0 125  L 0 0  " fill-rule="nonzero" fill="#cccccc" stroke="none" />
    <path d="M 9 9  L 177 9  L 177 116  L 9 116  L 9 9  " fill-rule="nonzero" fill="#ffffff" stroke="none" />
    <path d="M 106.095 37.5  C 100.845 37.5  96.72 33.375  96.72 28.125  C 96.72 22.875  100.845 18.75  106.095 18.75  C 111.345 18.75  115.47 22.875  115.47 28.125  C 115.47 33.375  111.345 37.5  106.095 37.5  " fill-rule="nonzero" fill="#cccccc" stroke="none" />
    <path d="M 12 113  L 12 57.45  L 52.5 32.2  L 109.2 72.2741935483871  L 141.6 47.35  L 174 72.2741935483871  L 174 113  L 12 113  " fill-rule="nonzero" fill="#169bd5" stroke="none" />
  </g>
</svg>