<?xml version="1.0" encoding="utf-8"?>
<svg version="1.1" xmlns:xlink="http://www.w3.org/1999/xlink" width="349px" height="201px" xmlns="http://www.w3.org/2000/svg">
  <g transform="matrix(1 0 0 1 -388 -47 )">
    <path d="M 389 51  A 3 3 0 0 1 392 48 L 733 48  A 3 3 0 0 1 736 51 L 736 244  A 3 3 0 0 1 733 247 L 392 247  A 3 3 0 0 1 389 244 L 389 51  Z " fill-rule="nonzero" fill="#ff3333" stroke="none" fill-opacity="0.0980392156862745" />
    <path d="M 388.5 51  A 3.5 3.5 0 0 1 392 47.5 L 733 47.5  A 3.5 3.5 0 0 1 736.5 51 L 736.5 244  A 3.5 3.5 0 0 1 733 247.5 L 392 247.5  A 3.5 3.5 0 0 1 388.5 244 L 388.5 51  Z " stroke-width="1" stroke-dasharray="9,4" stroke="#ff3333" fill="none" stroke-dashoffset="0.5" />
  </g>
</svg>