<svg t="1662517049612" class="icon" viewBox="0 0 1024 1024" version="1.1" xmlns="http://www.w3.org/2000/svg" p-id="2974" width="200" height="200"><path d="M0 0h1024v1024H0z" fill="#F59A23" fill-opacity="0" p-id="2975"></path><path d="M0 0h1024v1024H0z" fill="#F59A23" fill-opacity="0" p-id="2976"></path><path d="M597.333333 56.888889v199.111111a85.333333 85.333333 0 0 0 80.327111 85.191111L682.666667 341.333333h199.111111v540.444445a85.333333 85.333333 0 0 1-85.333334 85.333333H227.555556a85.333333 85.333333 0 0 1-85.333334-85.333333V142.222222a85.333333 85.333333 0 0 1 85.333334-85.333333h369.777777z" fill="#F59A23" p-id="2977"></path><path d="M670.776889 573.240889c-18.318222-29.923556-55.153778-71.395556-55.153778-71.395556-3.612444-4.380444-6.144-9.159111-6.144-9.159111 24.149333-31.288889 55.779556-37.319111 61.013333-39.452444 7.68-3.271111 5.12-9.614222 1.137778-17.038222-3.982222-7.395556-0.568889-9.045333-3.697778-14.791112-4.551111-9.102222-62.776889 18.090667-62.776888 18.090667s-0.682667-35.612444-16.270223-64.654222c-8.533333-14.222222-20.593778-23.324444-27.960889-26.595556-21.447111-9.728-45.795556-8.96-45.795555-8.96s-11.662222-38.172444-15.36-45.568c-3.697778-7.424-7.964444-11.548444-11.946667-7.964444-3.953778 3.555556-11.064889 2.730667-13.056 6.855111-1.991111 3.84 5.404444 17.294222 5.973334 32.938667 0.568889 15.644444-5.973333 15.928889-5.973334 15.928889-61.553778 16.270222-72.817778 56.803556-74.552889 76.032-0.227556 2.389333-0.284444 4.323556-0.284444 5.973333l-0.199111 16.213333c-23.665778-8.448-52.423111-15.473778-81.152-14.961778 0 0 1.109333 5.831111-1.137778 11.690667-2.275556 5.546667-12.544 15.872 8.248889 23.096889 20.764444 7.224889 47.274667 14.734222 61.781333 32.284444 0 0-32.995556 46.734222-13.084444 115.427556 19.939556 68.721778 48.981333 109.596444 86.584889 130.474667 37.603556 20.878222 54.101333 16.128 90.282666 40.334222 36.181333 24.177778 84.622222 33.365333 109.397334-28.928 21.333333-53.248 23.438222-94.663111 21.418666-131.271111-2.986667-29.44-11.292444-44.600889-11.292444-44.600889z" fill="#ffffff" p-id="2978" data-spm-anchor-id="a313x.7781069.0.i6" class="selected"></path><path d="M654.222222 56.888889l227.555556 227.555555h-142.222222a85.333333 85.333333 0 0 1-85.333334-85.333333V56.888889z" fill="#F59A23" p-id="2979"></path></svg>