<svg t="1662517210563" class="icon" viewBox="0 0 1024 1024" version="1.1" xmlns="http://www.w3.org/2000/svg" p-id="2227" width="200" height="200"><path d="M356.571429 219.428571C523.209143 219.428571 658.285714 354.505143 658.285714 521.142857S523.209143 822.857143 356.571429 822.857143c-42.203429 0-82.377143-8.667429-118.857143-24.32V243.748571A300.726857 300.726857 0 0 1 356.571429 219.428571zM164.571429 288.384V753.92A301.092571 301.092571 0 0 1 54.857143 521.142857c0-93.696 42.715429-177.408 109.714286-232.758857z" fill="#F59A23" p-id="2228"></path><path d="M274.285714 71.68a36.571429 36.571429 0 0 1 13.202286 2.450286l477.293714 184.850285H932.571429a36.571429 36.571429 0 0 1 36.571428 36.571429v432.896a36.571429 36.571429 0 0 1-36.571428 36.571429h-167.789715L287.488 949.869714A36.571429 36.571429 0 0 1 237.714286 915.748571V108.233143a36.571429 36.571429 0 0 1 36.571428-36.571429z m501.650286 290.139429h-51.2a10.971429 10.971429 0 0 0-10.971429 10.971428v270.628572a10.971429 10.971429 0 0 0 10.971429 10.971428h51.2a10.971429 10.971429 0 0 0 10.971429-10.971428v-270.628572a10.971429 10.971429 0 0 0-10.971429-10.971428z" fill="#F59A23" p-id="2229"></path></svg>