<svg t="1662517323233" class="icon" viewBox="0 0 1024 1024" version="1.1" xmlns="http://www.w3.org/2000/svg" p-id="4545" width="200" height="200"><path d="M277.339429 170.660571V256c0 22.582857 17.554286 41.069714 39.734857 42.569143l2.925714 0.091428h384c22.582857 0 41.069714-17.554286 42.569143-39.734857l0.091428-2.925714V170.660571H768a128 128 0 0 1 128 128v512a128 128 0 0 1-128 128H256a128 128 0 0 1-128-128v-512a128 128 0 0 1 128-128h21.339429z m112.932571 362.770286l-64.64 64.64a109.714286 109.714286 0 0 0 155.154286 155.154286l64.64-64.64-155.154286-155.154286z m271.542857-116.370286a109.714286 109.714286 0 0 0-155.172571 0l-64.64 64.64 155.154285 155.154286 64.64-64.64a109.714286 109.714286 0 0 0 0-155.154286zM640 106.660571a42.660571 42.660571 0 0 1 42.660571 42.678858v76.8a8.539429 8.539429 0 0 1-8.521142 8.521142H349.860571a8.539429 8.539429 0 0 1-8.521142-8.521142v-76.8A42.660571 42.660571 0 0 1 384 106.660571h256z" fill="#F59A23" p-id="4546"></path></svg>