<svg t="1662517708292" class="icon" viewBox="0 0 1024 1024" version="1.1" xmlns="http://www.w3.org/2000/svg" p-id="13527" width="200" height="200"><path d="M803.7 147.3c46 0 83.3 37.3 83.3 83.3V854c0 46-37.3 83.3-83.3 83.3H220.3c-46 0-83.3-37.3-83.3-83.3V230.7c0-46 37.3-83.3 83.3-83.3h583.4zM565 729H459c-39.8 0-72 32.2-72 72s32.2 72 72 72h106c39.8 0 72-32.2 72-72s-32.2-72-72-72z m55-225H404c-39.8 0-72 32.2-72 72s32.2 72 72 72h216c39.8 0 72-32.2 72-72s-32.2-72-72-72z m65-224.7H339c-39.8 0-72 32.2-72 72s32.2 72 72 72h346c39.8 0 72-32.2 72-72s-32.2-72-72-72z" fill="#F59A23" p-id="13528"></path><path d="M803.7 971.3H220.3C155.6 971.3 103 918.7 103 854V230.7c0-64.7 52.6-117.4 117.3-117.4h583.3c64.8 0 117.4 52.7 117.4 117.4V854c0 64.7-52.6 117.3-117.3 117.3z m-211-68h211c27.2 0 49.3-22.1 49.3-49.3V230.7c0-27.2-22.1-49.3-49.3-49.3H220.3c-27.2 0-49.3 22.1-49.3 49.3V854c0 27.2 22.1 49.3 49.3 49.3h211C386.2 891.1 353 849.9 353 801c0-58.4 47.6-106 106-106h106c58.4 0 106 47.6 106 106 0 48.9-33.2 90.1-78.3 102.3zM459 763c-21 0-38 17-38 38s17 38 38 38h106c21 0 38-17 38-38s-17-38-38-38H459z m161-81H404c-58.4 0-106-47.6-106-106s47.6-106 106-106h216c58.4 0 106 47.6 106 106s-47.6 106-106 106zM404 538c-21 0-38 17-38 38s17 38 38 38h216c21 0 38-17 38-38s-17-38-38-38H404z m281-80.7H339c-58.4 0-106-47.6-106-106s47.6-106 106-106h346c58.4 0 106 47.6 106 106s-47.6 106-106 106z m-346-144c-21 0-38 17-38 38s17 38 38 38h346c21 0 38-17 38-38s-17-38-38-38H339z" fill="#F59A23" p-id="13529"></path><path d="M722 147.3H302v-41.6c0-11.1 4.3-21.6 12.2-29.5 7.9-7.9 18.3-12.2 29.5-12.2h336.7c11.1 0 21.6 4.3 29.5 12.2 7.9 7.9 12.2 18.3 12.2 29.5v41.6z m-378.3-41.6h336.7-336.7z" fill="#F59A23" p-id="13530"></path></svg>