<svg t="1662517786251" class="icon" viewBox="0 0 1061 1024" version="1.1" xmlns="http://www.w3.org/2000/svg" p-id="15246" width="200" height="200"><path d="M396.677497 274.796368c42.882356-35.588712 43.020564-149.736442-46.858994-132.171386-107.136785 20.882061-46.098847 209.342037 46.858994 132.171386zM692.544393 302.62027c77.001031 63.940319 127.560245-92.254233 38.830331-109.542871-74.488147-14.524466-74.38135 80.04162-38.830331 109.542871z" fill="#FFA42F" p-id="15247"></path><path d="M412.320196 765.29865c-40.746405-9.360491-11.351951 80.029055-22.107092 105.666749 7.22454 0.521423 16.830037 1.363239 30.83308 2.613399 2.406086 0.245006 4.573448-0.069104 6.564908-0.628221-16.830037-21.541693 14.461644-100.804319-15.290896-107.651927z m249.391117 0c-28.251092 6.527215-1.608245 77.974773-13.098405 103.844908 3.285595 3.285595 7.544933 4.962945 13.029301 4.472933 9.253693-0.835534 16.409129-1.463755 22.408638-1.960049-11.546699-24.74562 18.758675-115.749693-22.339534-106.357792z m227.321718-332.812564c-21.648491-29.400736-50.980123-57.061301-83.836074-73.922749-15.642699-7.997252-32.095804-13.582135-48.856736-15.749497-49.717399-6.45811-102.205252 6.634012-136.286233 43.648786-19.726135 21.372074-50.936147 125.361472-78.640687 130.908662-8.970994 1.67735-82.510528-157.520098-115.9947-183.566135-39.175853-30.449865-124.243239-24.758184-161.08211 0-75.003288 50.421006-156.609178 235.425767-137.128049 255.365497 29.086626 29.821644 69.663411-52.205153 85.375214-46.444368 15.711804 5.82989 50.841914 333.447067 119.17978 330.016982 20.429742-1.005153 29.055215-2.016589 36.593865-2.299289-29.224834-36.386552-29.017521-196.626847-37.712099-199.843337-9.919607-3.631117-35.337423 47.839018-53.637496 29.124319-12.218896-12.501595 39.043926-128.647067 86.078822-160.315681 23.156221-15.542184 76.542429-19.135607 101.124711 0 3.002896 2.368393 6.564908 6.495804 10.441031 11.766577 19.449718 12.011583 40.507681 73.401325 66.72962 74.236859 6.734528 0.207313 13.167509-3.775607 19.305227-10.057816 16.314896-29.538945 36.983362-66.453202 49.164564-75.951902 24.619975-19.135607 77.981055-15.542184 101.130994 0 47.072589 31.668613 98.297718 147.807804 86.078822 160.315681-18.230969 18.714699-43.724172-32.755436-53.643779-29.124319-8.656883 3.216491-8.487264 163.073571-37.599019 199.698846 11.351951-0.207313 17.175558 1.049129 45.219338 2.44378 76.014724 3.844712 92.668859-311.541006 95.709448-359.90773 33.936491 6.847607 56.363975 135.456982 81.6373 58.210944 14.216638-43.43519-14.800883-105.132761-39.351754-138.55411zM446.187583 502.35681c-58.349153 48.435828-96.689472-69.870724-29.43843-82.969129 56.43308-10.993865 56.363975 60.661006 29.43843 82.969129z m181.61865 0c-26.887853-22.314405-26.988368-93.969276 29.469841-82.969129 67.181939 13.098405 28.917006 131.404957-29.469841 82.969129z" fill="#FFA42F" p-id="15248"></path></svg>