<?xml version="1.0" encoding="utf-8"?>
<svg version="1.1" xmlns:xlink="http://www.w3.org/1999/xlink" width="830px" height="242px" xmlns="http://www.w3.org/2000/svg">
  <g transform="matrix(1 0 0 1 0 -1238 )">
    <path d="M 0 1238  L 830 1238  L 830 1480  L 0 1480  L 0 1238  " fill-rule="nonzero" fill="#cccccc" stroke="none" />
    <path d="M 17 1255  L 813 1255  L 813 1463  L 17 1463  L 17 1255  " fill-rule="nonzero" fill="#ffffff" stroke="none" />
    <path d="M 449.75 1310.6  C 439.586 1310.6  431.6 1302.614  431.6 1292.45  C 431.6 1282.286  439.586 1274.3  449.75 1274.3  C 459.914 1274.3  467.9 1282.286  467.9 1292.45  C 467.9 1302.614  459.914 1310.6  449.75 1310.6  " fill-rule="nonzero" fill="#cccccc" stroke="none" />
    <path d="M 23 1457  L 23 1349.2  L 219 1300.2  L 493.4 1422.71180722892  L 650.2 1329.6  L 807 1422.71180722892  L 807 1457  L 23 1457  " fill-rule="nonzero" fill="#169bd5" stroke="none" />
    <path d="M 0.5 1479.5  L 0.5 1238.5  L 829.5 1238.5  L 829.5 1479.5  L 0.5 1479.5  Z " stroke-width="1" stroke="#797979" fill="none" />
  </g>
</svg>