<?xml version="1.0" encoding="utf-8"?>
<svg version="1.1" xmlns:xlink="http://www.w3.org/1999/xlink" width="100px" height="60px" xmlns="http://www.w3.org/2000/svg">
  <defs>
    <linearGradient gradientUnits="userSpaceOnUse" x1="1184" y1="197" x2="1184" y2="257" id="LinearGradient963">
      <stop id="Stop964" stop-color="#ffffff" offset="0" />
      <stop id="Stop965" stop-color="#f2f2f2" offset="0" />
      <stop id="Stop966" stop-color="#e4e4e4" offset="1" />
      <stop id="Stop967" stop-color="#ffffff" offset="1" />
    </linearGradient>
  </defs>
  <g transform="matrix(1 0 0 1 -1134 -197 )">
    <path d="M 1158.04765211608 197.5  C 1158.04765211608 197.5  1154.30055038781 198.624130518483  1154.30055038781 198.624130518483  C 1154.30055038781 198.624130518483  1134.59508547009 227  1134.59508547009 227  C 1134.59508547009 227  1154.30055038781 255.375869481517  1154.30055038781 255.375869481517  C 1154.30055038781 255.375869481517  1158.04765211608 256.5  1158.04765211608 256.5  C 1158.04765211608 256.5  1233.5 256.5  1233.5 256.5  C 1233.5 256.5  1233.5 197.5  1233.5 197.5  C 1233.5 197.5  1158.04765211608 197.5  1158.04765211608 197.5  Z " fill-rule="nonzero" fill="url(#LinearGradient963)" stroke="none" />
    <path d="M 1158.04765211608 197.5  C 1158.04765211608 197.5  1154.30055038781 198.624130518483  1154.30055038781 198.624130518483  C 1154.30055038781 198.624130518483  1134.59508547009 227  1134.59508547009 227  C 1134.59508547009 227  1154.30055038781 255.375869481517  1154.30055038781 255.375869481517  C 1154.30055038781 255.375869481517  1158.04765211608 256.5  1158.04765211608 256.5  C 1158.04765211608 256.5  1233.5 256.5  1233.5 256.5  C 1233.5 256.5  1233.5 197.5  1233.5 197.5  C 1233.5 197.5  1158.04765211608 197.5  1158.04765211608 197.5  Z " stroke-width="1" stroke="#797979" fill="none" />
  </g>
</svg>