<?xml version="1.0" encoding="utf-8"?>
<svg version="1.1" xmlns:xlink="http://www.w3.org/1999/xlink" width="100px" height="60px" xmlns="http://www.w3.org/2000/svg">
  <defs>
    <linearGradient gradientUnits="userSpaceOnUse" x1="669" y1="1252" x2="669" y2="1312" id="LinearGradient99">
      <stop id="Stop100" stop-color="#ffffff" offset="0" />
      <stop id="Stop101" stop-color="#f2f2f2" offset="0" />
      <stop id="Stop102" stop-color="#e4e4e4" offset="1" />
      <stop id="Stop103" stop-color="#ffffff" offset="1" />
    </linearGradient>
  </defs>
  <g transform="matrix(1 0 0 1 -619 -1252 )">
    <path d="M 669 1252  C 697 1252  719 1265.2  719 1282  C 719 1298.8  697 1312  669 1312  C 641 1312  619 1298.8  619 1282  C 619 1265.2  641 1252  669 1252  Z " fill-rule="nonzero" fill="url(#LinearGradient99)" stroke="none" />
    <path d="M 669 1252.5  C 696.72 1252.5  718.5 1265.48  718.5 1282  C 718.5 1298.52  696.72 1311.5  669 1311.5  C 641.28 1311.5  619.5 1298.52  619.5 1282  C 619.5 1265.48  641.28 1252.5  669 1252.5  Z " stroke-width="1" stroke="#797979" fill="none" />
  </g>
</svg>