<?xml version="1.0" encoding="utf-8"?>
<svg version="1.1" xmlns:xlink="http://www.w3.org/1999/xlink" width="176px" height="14px" preserveAspectRatio="xMinYMid meet" viewBox="719.116279069767 1276  176 12" xmlns="http://www.w3.org/2000/svg">
  <defs>
    <mask fill="white" id="clip106">
      <path d="M 858.5 1033  L 917.5 1033  L 917.5 1060  L 858.5 1060  Z M 706 768  L 917.5 768  L 917.5 1295  L 706 1295  Z " fill-rule="evenodd" />
    </mask>
  </defs>
  <path d="M 754 781.5  L 883.116279069767 781.5  A 5 5 0 0 1 888.616279069767 786.5 L 888.616279069767 1277  A 5 5 0 0 1 883.616279069767 1282.5 L 728 1282.5  " stroke-width="5" stroke-dasharray="15,5" stroke="#c29265" fill="none" mask="url(#clip106)" />
  <path d="M 754 776.5  A 5 5 0 0 0 749 781.5 A 5 5 0 0 0 754 786.5 A 5 5 0 0 0 759 781.5 A 5 5 0 0 0 754 776.5 Z M 731 1271  L 719 1282.5  L 731 1294  L 731 1271  Z " fill-rule="nonzero" fill="#c29265" stroke="none" mask="url(#clip106)" />
</svg>