<?xml version="1.0" encoding="utf-8"?>
<svg version="1.1" xmlns:xlink="http://www.w3.org/1999/xlink" width="26px" height="26px" preserveAspectRatio="xMinYMid meet" viewBox="656 962  26 24" xmlns="http://www.w3.org/2000/svg">
  <defs>
    <mask fill="white" id="clip644">
      <path d="M 411.5 1006  L 470.5 1006  L 470.5 1033  L 411.5 1033  Z M 172 956  L 682 956  L 682 1034  L 172 1034  Z " fill-rule="evenodd" />
    </mask>
  </defs>
  <path d="M 669.5 974  L 669.5 1015  A 5 5 0 0 1 664.5 1020.5 L 180 1020.5  A 5 5 0 0 0 175.5 1025.5 L 175.5 1034  " stroke-width="5" stroke-dasharray="15,5" stroke="#c29265" fill="none" mask="url(#clip644)" />
  <path d="M 669.5 969  A 5 5 0 0 0 664.5 974 A 5 5 0 0 0 669.5 979 A 5 5 0 0 0 674.5 974 A 5 5 0 0 0 669.5 969 Z " fill-rule="nonzero" fill="#c29265" stroke="none" mask="url(#clip644)" />
</svg>