<?xml version="1.0" encoding="utf-8"?>
<svg version="1.1" xmlns:xlink="http://www.w3.org/1999/xlink" width="61px" height="14px" preserveAspectRatio="xMinYMid meet" viewBox="767.116279069767 920  61 12" xmlns="http://www.w3.org/2000/svg">
  <defs>
    <mask fill="white" id="clip655">
      <path d="M 785 1115  L 857 1115  L 857 1142  L 785 1142  Z M 706 913  L 857 913  L 857 1295  L 706 1295  Z " fill-rule="evenodd" />
    </mask>
  </defs>
  <path d="M 772 926.5  L 816.116279069767 926.5  A 5 5 0 0 1 821.616279069767 931.5 L 821.616279069767 1277  A 5 5 0 0 1 816.616279069767 1282.5 L 728 1282.5  " stroke-width="5" stroke-dasharray="15,5" stroke="#c29265" fill="none" mask="url(#clip655)" />
  <path d="M 772 921.5  A 5 5 0 0 0 767 926.5 A 5 5 0 0 0 772 931.5 A 5 5 0 0 0 777 926.5 A 5 5 0 0 0 772 921.5 Z M 731 1271  L 719 1282.5  L 731 1294  L 731 1271  Z " fill-rule="nonzero" fill="#c29265" stroke="none" mask="url(#clip655)" />
</svg>