<?xml version="1.0" encoding="utf-8"?>
<svg version="1.1" xmlns:xlink="http://www.w3.org/1999/xlink" width="90px" height="80px" xmlns="http://www.w3.org/2000/svg">
  <g transform="matrix(1 0 0 1 -369 -1243 )">
    <path d="M 369 1243  L 459 1243  L 459 1323  L 369 1323  L 369 1243  " fill-rule="nonzero" fill="#cccccc" stroke="none" />
    <path d="M 375 1249  L 453 1249  L 453 1317  L 375 1317  L 375 1249  " fill-rule="nonzero" fill="#ffffff" stroke="none" />
    <path d="M 421.8 1267  C 418.44 1267  415.8 1264.36  415.8 1261  C 415.8 1257.64  418.44 1255  421.8 1255  C 425.16 1255  427.8 1257.64  427.8 1261  C 427.8 1264.36  425.16 1267  421.8 1267  " fill-rule="nonzero" fill="#cccccc" stroke="none" />
    <path d="M 377 1315  L 377 1279.8  L 395.5 1263.8  L 421.4 1280.86666666667  L 436.2 1273.4  L 451 1280.86666666667  L 451 1315  L 377 1315  " fill-rule="nonzero" fill="#169bd5" stroke="none" />
  </g>
</svg>