<?xml version="1.0" encoding="utf-8"?>
<svg version="1.1" xmlns:xlink="http://www.w3.org/1999/xlink" width="289px" height="185px" xmlns="http://www.w3.org/2000/svg">
  <g transform="matrix(1 0 0 1 -336 -740 )">
    <path d="M 337 744  A 3 3 0 0 1 340 741 L 621 741  A 3 3 0 0 1 624 744 L 624 921  A 3 3 0 0 1 621 924 L 340 924  A 3 3 0 0 1 337 921 L 337 744  Z " fill-rule="nonzero" fill="#ff3333" stroke="none" fill-opacity="0.0980392156862745" />
    <path d="M 336.5 744  A 3.5 3.5 0 0 1 340 740.5 L 621 740.5  A 3.5 3.5 0 0 1 624.5 744 L 624.5 921  A 3.5 3.5 0 0 1 621 924.5 L 340 924.5  A 3.5 3.5 0 0 1 336.5 921 L 336.5 744  Z " stroke-width="1" stroke-dasharray="9,4" stroke="#ff3333" fill="none" stroke-dashoffset="0.5" />
  </g>
</svg>