<?xml version="1.0" encoding="utf-8"?>
<svg version="1.1" xmlns:xlink="http://www.w3.org/1999/xlink" width="35px" height="30px" xmlns="http://www.w3.org/2000/svg">
  <g transform="matrix(1 0 0 1 -617 -128 )">
    <path d="M 29.2122669873722 16.4701704545455  C 29.4928843455602 16.5838068181818  29.6331930246542 16.7897727272727  29.6331930246542 17.0880681818182  L 29.6331930246542 23.8636363636364  C 29.6331930246542 25.5539772727273  29.0403888554821 26.9992897727273  27.8547805171377 28.1995738636364  C 26.6691721787933 29.3998579545455  25.2415313690118 30  23.5718580877931 30  L 6.06133493686109 30  C 4.39166165564241 30  2.96402084586089 29.3998579545455  1.77841250751654 28.1995738636364  C 0.592804169172179 26.9992897727273  0 25.5539772727273  0 23.8636363636364  L 0 6.13636363636364  C 0 4.44602272727272  0.592804169172179 3.00071022727273  1.77841250751654 1.80042613636364  C 2.96402084586089 0.600142045454543  4.39166165564241 0  6.06133493686109 0  L 23.5718580877931 0  C 24.4558027660854 0  25.2766085387853 0.177556818181817  26.034275405893 0.532670454545453  C 26.244738424534 0.632102272727271  26.3710162357186 0.795454545454545  26.4131088394468 1.02272727272727  C 26.455201443175 1.26420454545454  26.3920625375827 1.47017045454545  26.2236921226699 1.640625  L 25.1924233313289 2.68465909090909  C 25.0521146522349 2.82670454545454  24.8907596712768 2.89772727272727  24.7083583884546 2.89772727272727  C 24.6662657847264 2.89772727272727  24.6031268791341 2.88352272727273  24.5189416716777 2.85511363636364  C 24.1962317097615 2.76988636363636  23.8805371818 2.72727272727273  23.5718580877931 3  L 6.06133493686109 3  C 5.13529765484065 2.72727272727273  4.34255361795951 3.06107954545454  3.68310282621768 3.72869318181818  C 3.02365203447585 4.39630681818182  2.69392663860493 5.19886363636364  3 6.13636363636364  L 3 23.8636363636364  C 2.69392663860493 24.8011363636364  3.02365203447585 25.6036931818182  3.68310282621768 26.2713068181818  C 4.34255361795951 26.9389204545455  5.13529765484065 27.2727272727273  6.06133493686109 27  L 23.5718580877931 27  C 24.4978953698136 27.2727272727273  25.2906394066947 26.9389204545455  25.9500901984366 26.2713068181818  C 26.6095409901784 25.6036931818182  26.9392663860493 24.8011363636364  26.9392663860493 23.8636363636364  L 26.9392663860493 18.4517045454545  C 26.9392663860493 18.2670454545455  27.0024052916416 18.1107954545455  27.1286831028262 17.9829545454545  L 28.4756464221287 16.6193181818182  C 28.6159551012227 16.4772727272727  28.7773100821808 16.40625  28.959711365003 16.40625  C 29.0438965724594 16.40625  29.1280817799158 16.4275568181818  29.2122669873722 16.4701704545455  Z M 35 5.45454545454545  C 35 5.92329545454545  34.8316295850872 6.328125  34.4948887552616 6.66903409090909  L 17.3631990378833 24.0127840909091  C 17.0264582080577 24.3536931818182  16.6265784726398 24.5241477272727  16.1635598316296 24.5241477272727  C 15.7005411906194 24.5241477272727  15.3006614552014 24.3536931818182  14.9639206253758 24.0127840909091  L 5.91401082381239 14.8508522727273  C 5.57726999398677 14.5099431818182  5.40889957907396 14.1051136363636  5.40889957907396 13.6363636363636  C 5.40889957907396 13.1676136363636  5.57726999398677 12.7627840909091  5.91401082381239 12.421875  L 8.2291040288635 10.078125  C 8.56584485868912 9.73721590909091  8.96572459410704 9.56676136363636  9.42874323511726 9.56676136363636  C 9.89176187612748 9.56676136363636  10.2916416115454 9.73721590909091  10.628382441371 10.078125  L 16.1635598316296 15.6818181818182  L 29.7805171377029 1.89630681818182  C 30.1172579675286 1.55539772727273  30.5171377029465 1.38494318181818  30.9801563439567 1.38494318181818  C 31.4431749849669 1.38494318181818  31.8430547203848 1.55539772727273  32.1797955502105 1.89630681818182  L 34.4948887552616 4.24005681818182  C 34.8316295850872 4.58096590909091  35 4.98579545454545  35 5.45454545454545  Z " fill-rule="nonzero" fill="#000000" stroke="none" transform="matrix(1 0 0 1 617 128 )" />
  </g>
</svg>