<?xml version="1.0" encoding="utf-8"?>
<svg version="1.1" xmlns:xlink="http://www.w3.org/1999/xlink" width="126px" height="103px" xmlns="http://www.w3.org/2000/svg">
  <g transform="matrix(1 0 0 1 -1103 -231 )">
    <path d="M 1103 231  L 1229 231  L 1229 334  L 1103 334  L 1103 231  " fill-rule="nonzero" fill="#cccccc" stroke="none" />
    <path d="M 1110 238  L 1222 238  L 1222 327  L 1110 327  L 1110 238  " fill-rule="nonzero" fill="#ffffff" stroke="none" />
    <path d="M 1176.245 261.9  C 1171.919 261.9  1168.52 258.501  1168.52 254.175  C 1168.52 249.849  1171.919 246.45  1176.245 246.45  C 1180.571 246.45  1183.97 249.849  1183.97 254.175  C 1183.97 258.501  1180.571 261.9  1176.245 261.9  " fill-rule="nonzero" fill="#cccccc" stroke="none" />
    <path d="M 1113 325  L 1113 278.8  L 1139.75 257.8  L 1177.2 283.8  L 1198.6 270.4  L 1220 283.8  L 1220 325  L 1113 325  " fill-rule="nonzero" fill="#169bd5" stroke="none" />
  </g>
</svg>