<?xml version="1.0" encoding="utf-8"?>
<svg version="1.1" xmlns:xlink="http://www.w3.org/1999/xlink" width="800px" height="640px" xmlns="http://www.w3.org/2000/svg">
  <g>
    <path d="M 0 0  L 800 0  L 800 640  L 0 640  L 0 0  " fill-rule="nonzero" fill="#cccccc" stroke="none" />
    <path d="M 45 45  L 755 45  L 755 595  L 45 595  L 45 45  " fill-rule="nonzero" fill="#ffffff" stroke="none" />
    <path d="M 464 192  C 437.12 192  416 170.88  416 144  C 416 117.12  437.12 96  464 96  C 490.88 96  512 117.12  512 144  C 512 170.88  490.88 192  464 192  " fill-rule="nonzero" fill="#cccccc" stroke="none" />
    <path d="M 61 579  L 61 294.1  L 230.5 164.6  L 467.8 330.36  L 603.4 242.3  L 739 330.36  L 739 579  L 61 579  " fill-rule="nonzero" fill="#169bd5" stroke="none" />
  </g>
</svg>