<?xml version="1.0" encoding="utf-8"?>
<svg version="1.1" xmlns:xlink="http://www.w3.org/1999/xlink" width="44px" height="35px" xmlns="http://www.w3.org/2000/svg">
  <g transform="matrix(1 0 0 1 -411 -238 )">
    <path d="M 13.3833333333333 7.109375  C 14.2388888888889 7.96006944444444  14.6666666666667 8.99305555555555  14.6666666666667 10.2083333333333  C 14.6666666666667 11.4236111111111  14.2388888888889 12.4565972222222  13.3833333333333 13.3072916666667  C 12.5277777777778 14.1579861111111  11.4888888888889 14.5833333333333  10.2666666666667 14.5833333333333  C 9.04444444444445 14.5833333333333  8.00555555555556 14.1579861111111  7.15 13.3072916666667  C 6.29444444444445 12.4565972222222  5.86666666666667 11.4236111111111  5.86666666666667 10.2083333333333  C 5.86666666666667 8.99305555555555  6.29444444444445 7.96006944444444  7.15 7.109375  C 8.00555555555556 6.25868055555555  9.04444444444445 5.83333333333333  10.2666666666667 5.83333333333333  C 11.4888888888889 5.83333333333333  12.5277777777778 6.25868055555555  13.3833333333333 7.109375  Z M 28.6 9.47916666666667  L 38 18.9583333333333  L 38 29  L 5.86666666666667 29  L 5.86666666666667 24.7916666666667  L 13.2 17.5  L 16.8666666666667 21.1458333333333  L 28.6 9.47916666666667  Z M 40.8489583333333 3.13313802083333  C 40.7038194444444 2.98882378472222  40.5319444444444 2.91666666666667  40.3333333333333 3  L 3.66666666666667 3  C 3.46805555555556 2.91666666666667  3.29618055555556 2.98882378472222  3.15104166666667 3.13313802083333  C 3.00590277777778 3.27745225694444  2.93333333333333 3.44835069444444  3 3.64583333333333  L 3 31.3541666666667  C 2.93333333333333 31.5516493055556  3.00590277777778 31.7225477430556  3.15104166666667 31.8668619791667  C 3.29618055555556 32.0111762152778  3.46805555555556 32.0833333333333  3.66666666666667 32  L 40.3333333333333 32  C 40.5319444444444 32.0833333333333  40.7038194444444 32.0111762152778  40.8489583333333 31.8668619791667  C 40.9940972222222 31.7225477430556  41.0666666666667 31.5516493055556  41 31.3541666666667  L 41 3.64583333333333  C 41.0666666666667 3.44835069444444  40.9940972222222 3.27745225694444  40.8489583333333 3.13313802083333  Z M 42.9229166666667 1.07096354166667  C 43.6409722222222 1.78493923611111  44 2.64322916666667  44 3.64583333333333  L 44 31.3541666666667  C 44 32.3567708333333  43.6409722222222 33.2150607638889  42.9229166666667 33.9290364583333  C 42.2048611111111 34.6430121527778  41.3416666666667 35  40.3333333333333 35  L 3.66666666666667 35  C 2.65833333333333 35  1.79513888888889 34.6430121527778  1.07708333333333 33.9290364583333  C 0.359027777777778 33.2150607638889  0 32.3567708333333  0 31.3541666666667  L 0 3.64583333333333  C 0 2.64322916666667  0.359027777777778 1.78493923611111  1.07708333333333 1.07096354166667  C 1.79513888888889 0.356987847222219  2.65833333333333 0  3.66666666666667 0  L 40.3333333333333 0  C 41.3416666666667 0  42.2048611111111 0.356987847222219  42.9229166666667 1.07096354166667  Z " fill-rule="nonzero" fill="#7f7f7f" stroke="none" transform="matrix(1 0 0 1 411 238 )" />
  </g>
</svg>