<?xml version="1.0" encoding="utf-8"?>
<svg version="1.1" xmlns:xlink="http://www.w3.org/1999/xlink" width="12px" height="12px" viewBox="117 520.5  12 12" xmlns="http://www.w3.org/2000/svg">
  <path d="M 123 520.5  C 126.36 520.5  129 523.14  129 526.5  C 129 529.86  126.36 532.5  123 532.5  C 119.64 532.5  117 529.86  117 526.5  C 117 523.14  119.64 520.5  123 520.5  Z " fill-rule="nonzero" fill="#ffffff" stroke="none" />
  <path d="M 123 521  C 126.08 521  128.5 523.42  128.5 526.5  C 128.5 529.58  126.08 532  123 532  C 119.92 532  117.5 529.58  117.5 526.5  C 117.5 523.42  119.92 521  123 521  Z " stroke-width="1" stroke="#797979" fill="none" />
  <path d="M 123 529.5  C 121.32 529.5  120 528.18  120 526.5  C 120 524.82  121.32 523.5  123 523.5  C 124.68 523.5  126 524.82  126 526.5  C 126 528.18  124.68 529.5  123 529.5  " fill-rule="nonzero" fill="#797979" stroke="none" />
</svg>