<?xml version="1.0" encoding="utf-8"?>
<svg version="1.1" xmlns:xlink="http://www.w3.org/1999/xlink" width="20px" height="20px" xmlns="http://www.w3.org/2000/svg">
  <g transform="matrix(1 0 0 1 0 -9 )">
    <path d="M 10 9  C 15.6 9  20 13.4  20 19  C 20 24.6  15.6 29  10 29  C 4.4 29  0 24.6  0 19  C 0 13.4  4.4 9  10 9  Z " fill-rule="nonzero" fill="#ffffff" stroke="none" />
    <path d="M 10 9.5  C 15.32 9.5  19.5 13.68  19.5 19  C 19.5 24.32  15.32 28.5  10 28.5  C 4.68 28.5  0.5 24.32  0.5 19  C 0.5 13.68  4.68 9.5  10 9.5  Z " stroke-width="1" stroke="#797979" fill="none" />
  </g>
</svg>