<?xml version="1.0" encoding="utf-8"?>
<svg version="1.1" xmlns:xlink="http://www.w3.org/1999/xlink" width="12px" height="12px" viewBox="226 520.5  12 12" xmlns="http://www.w3.org/2000/svg">
  <path d="M 232 520.5  C 235.36 520.5  238 523.14  238 526.5  C 238 529.86  235.36 532.5  232 532.5  C 228.64 532.5  226 529.86  226 526.5  C 226 523.14  228.64 520.5  232 520.5  Z " fill-rule="nonzero" fill="#ffffff" stroke="none" />
  <path d="M 232 521  C 235.08 521  237.5 523.42  237.5 526.5  C 237.5 529.58  235.08 532  232 532  C 228.92 532  226.5 529.58  226.5 526.5  C 226.5 523.42  228.92 521  232 521  Z " stroke-width="1" stroke="#797979" fill="none" />
  <path d="M 232 529.5  C 230.32 529.5  229 528.18  229 526.5  C 229 524.82  230.32 523.5  232 523.5  C 233.68 523.5  235 524.82  235 526.5  C 235 528.18  233.68 529.5  232 529.5  " fill-rule="nonzero" fill="#797979" stroke="none" />
</svg>