<?xml version="1.0" encoding="utf-8"?>
<svg version="1.1" xmlns:xlink="http://www.w3.org/1999/xlink" width="12px" height="12px" viewBox="137 267.5  12 12" xmlns="http://www.w3.org/2000/svg">
  <path d="M 143 267.5  C 146.36 267.5  149 270.14  149 273.5  C 149 276.86  146.36 279.5  143 279.5  C 139.64 279.5  137 276.86  137 273.5  C 137 270.14  139.64 267.5  143 267.5  Z " fill-rule="nonzero" fill="#ffffff" stroke="none" />
  <path d="M 143 268  C 146.08 268  148.5 270.42  148.5 273.5  C 148.5 276.58  146.08 279  143 279  C 139.92 279  137.5 276.58  137.5 273.5  C 137.5 270.42  139.92 268  143 268  Z " stroke-width="1" stroke="#797979" fill="none" />
  <path d="M 143 276.5  C 141.32 276.5  140 275.18  140 273.5  C 140 271.82  141.32 270.5  143 270.5  C 144.68 270.5  146 271.82  146 273.5  C 146 275.18  144.68 276.5  143 276.5  " fill-rule="nonzero" fill="#797979" stroke="none" />
</svg>