<?xml version="1.0" encoding="utf-8"?>
<svg version="1.1" xmlns:xlink="http://www.w3.org/1999/xlink" width="94px" height="53px" xmlns="http://www.w3.org/2000/svg">
  <g transform="matrix(1 0 0 1 -760 -140 )">
    <path d="M 760 140  L 854 140  L 854 193  L 760 193  L 760 140  " fill-rule="nonzero" fill="#cccccc" stroke="none" />
    <path d="M 764 144  L 850 144  L 850 189  L 764 189  L 764 144  " fill-rule="nonzero" fill="#ffffff" stroke="none" />
    <path d="M 812.855 155.9  C 810.629 155.9  808.88 154.151  808.88 151.925  C 808.88 149.699  810.629 147.95  812.855 147.95  C 815.081 147.95  816.83 149.699  816.83 151.925  C 816.83 154.151  815.081 155.9  812.855 155.9  " fill-rule="nonzero" fill="#cccccc" stroke="none" />
    <path d="M 766 188  L 766 164.9  L 786.75 154.4  L 815.8 173.791489361702  L 832.4 160.7  L 849 173.791489361702  L 849 188  L 766 188  " fill-rule="nonzero" fill="#169bd5" stroke="none" />
  </g>
</svg>