<?xml version="1.0" encoding="utf-8"?>
<svg version="1.1" xmlns:xlink="http://www.w3.org/1999/xlink" width="90px" height="83px" xmlns="http://www.w3.org/2000/svg">
  <g transform="matrix(1 0 0 1 -26 -19 )">
    <path d="M 26 19  L 116 19  L 116 102  L 26 102  L 26 19  " fill-rule="nonzero" fill="#cccccc" stroke="none" />
    <path d="M 32 25  L 110 25  L 110 96  L 32 96  L 32 25  " fill-rule="nonzero" fill="#ffffff" stroke="none" />
    <path d="M 79.025 43.9  C 75.539 43.9  72.8 41.161  72.8 37.675  C 72.8 34.189  75.539 31.45  79.025 31.45  C 82.511 31.45  85.25 34.189  85.25 37.675  C 85.25 41.161  82.511 43.9  79.025 43.9  " fill-rule="nonzero" fill="#cccccc" stroke="none" />
    <path d="M 34 94  L 34 57.15  L 52.5 40.4  L 78.4 56.9266666666667  L 93.2 50.45  L 108 56.9266666666667  L 108 94  L 34 94  " fill-rule="nonzero" fill="#169bd5" stroke="none" />
  </g>
</svg>