<?xml version="1.0" encoding="utf-8"?>
<svg version="1.1" xmlns:xlink="http://www.w3.org/1999/xlink" width="12px" height="12px" viewBox="717 282.5  12 12" xmlns="http://www.w3.org/2000/svg">
  <path d="M 723 282.5  C 726.36 282.5  729 285.14  729 288.5  C 729 291.86  726.36 294.5  723 294.5  C 719.64 294.5  717 291.86  717 288.5  C 717 285.14  719.64 282.5  723 282.5  Z " fill-rule="nonzero" fill="#ffffff" stroke="none" />
  <path d="M 723 283  C 726.08 283  728.5 285.42  728.5 288.5  C 728.5 291.58  726.08 294  723 294  C 719.92 294  717.5 291.58  717.5 288.5  C 717.5 285.42  719.92 283  723 283  Z " stroke-width="1" stroke="#797979" fill="none" />
  <path d="M 723 291.5  C 721.32 291.5  720 290.18  720 288.5  C 720 286.82  721.32 285.5  723 285.5  C 724.68 285.5  726 286.82  726 288.5  C 726 290.18  724.68 291.5  723 291.5  " fill-rule="nonzero" fill="#797979" stroke="none" />
</svg>