<?xml version="1.0" encoding="utf-8"?>
<svg version="1.1" xmlns:xlink="http://www.w3.org/1999/xlink" width="81px" height="75px" xmlns="http://www.w3.org/2000/svg">
  <g transform="matrix(1 0 0 1 -21 -21 )">
    <path d="M 21 21  L 102 21  L 102 96  L 21 96  L 21 21  " fill-rule="nonzero" fill="#cccccc" stroke="none" />
    <path d="M 26 26  L 97 26  L 97 91  L 26 91  L 26 26  " fill-rule="nonzero" fill="#ffffff" stroke="none" />
    <path d="M 68.745 43.5  C 65.595 43.5  63.12 41.025  63.12 37.875  C 63.12 34.725  65.595 32.25  68.745 32.25  C 71.895 32.25  74.37 34.725  74.37 37.875  C 74.37 41.025  71.895 43.5  68.745 43.5  " fill-rule="nonzero" fill="#cccccc" stroke="none" />
    <path d="M 28 89  L 28 55.45  L 44.75 40.2  L 68.2 55.1111111111111  L 81.6 49.35  L 95 55.1111111111111  L 95 89  L 28 89  " fill-rule="nonzero" fill="#169bd5" stroke="none" />
  </g>
</svg>