<?xml version="1.0" encoding="utf-8"?>
<svg version="1.1" xmlns:xlink="http://www.w3.org/1999/xlink" width="64px" height="59px" xmlns="http://www.w3.org/2000/svg">
  <g transform="matrix(1 0 0 1 -14 -17 )">
    <path d="M 14 17  L 78 17  L 78 76  L 14 76  L 14 17  " fill-rule="nonzero" fill="#cccccc" stroke="none" />
    <path d="M 18 21  L 74 21  L 74 72  L 18 72  L 18 21  " fill-rule="nonzero" fill="#ffffff" stroke="none" />
    <path d="M 51.705 34.7  C 49.227 34.7  47.28 32.753  47.28 30.275  C 47.28 27.797  49.227 25.85  51.705 25.85  C 54.183 25.85  56.13 27.797  56.13 30.275  C 56.13 32.753  54.183 34.7  51.705 34.7  " fill-rule="nonzero" fill="#cccccc" stroke="none" />
    <path d="M 20 71  L 20 44.6  L 33.25 32.6  L 51.8 44.45  L 62.4 39.8  L 73 44.45  L 73 71  L 20 71  " fill-rule="nonzero" fill="#169bd5" stroke="none" />
  </g>
</svg>