<?xml version="1.0" encoding="utf-8"?>
<svg version="1.1" xmlns:xlink="http://www.w3.org/1999/xlink" width="12px" height="12px" viewBox="571 260.5  12 12" xmlns="http://www.w3.org/2000/svg">
  <path d="M 577 260.5  C 580.36 260.5  583 263.14  583 266.5  C 583 269.86  580.36 272.5  577 272.5  C 573.64 272.5  571 269.86  571 266.5  C 571 263.14  573.64 260.5  577 260.5  Z " fill-rule="nonzero" fill="#ffffff" stroke="none" />
  <path d="M 577 261  C 580.08 261  582.5 263.42  582.5 266.5  C 582.5 269.58  580.08 272  577 272  C 573.92 272  571.5 269.58  571.5 266.5  C 571.5 263.42  573.92 261  577 261  Z " stroke-width="1" stroke="#797979" fill="none" />
  <path d="M 577 269.5  C 575.32 269.5  574 268.18  574 266.5  C 574 264.82  575.32 263.5  577 263.5  C 578.68 263.5  580 264.82  580 266.5  C 580 268.18  578.68 269.5  577 269.5  " fill-rule="nonzero" fill="#797979" stroke="none" />
</svg>