<?xml version="1.0" encoding="utf-8"?>
<svg version="1.1" xmlns:xlink="http://www.w3.org/1999/xlink" width="53px" height="49px" xmlns="http://www.w3.org/2000/svg">
  <g transform="matrix(1 0 0 1 -14 -26 )">
    <path d="M 14 26  L 67 26  L 67 75  L 14 75  L 14 26  " fill-rule="nonzero" fill="#cccccc" stroke="none" />
    <path d="M 17 29  L 64 29  L 64 72  L 17 72  L 17 29  " fill-rule="nonzero" fill="#ffffff" stroke="none" />
    <path d="M 45.235 40.7  C 43.177 40.7  41.56 39.083  41.56 37.025  C 41.56 34.967  43.177 33.35  45.235 33.35  C 47.293 33.35  48.91 34.967  48.91 37.025  C 48.91 39.083  47.293 40.7  45.235 40.7  " fill-rule="nonzero" fill="#cccccc" stroke="none" />
    <path d="M 18 71  L 18 48.45  L 29.25 38.2  L 45 48.2566037735849  L 54 44.35  L 63 48.2566037735849  L 63 71  L 18 71  " fill-rule="nonzero" fill="#169bd5" stroke="none" />
  </g>
</svg>