<?xml version="1.0" encoding="utf-8"?>
<svg version="1.1" xmlns:xlink="http://www.w3.org/1999/xlink" width="12px" height="12px" viewBox="523 304.5  12 12" xmlns="http://www.w3.org/2000/svg">
  <path d="M 529 304.5  C 532.36 304.5  535 307.14  535 310.5  C 535 313.86  532.36 316.5  529 316.5  C 525.64 316.5  523 313.86  523 310.5  C 523 307.14  525.64 304.5  529 304.5  Z " fill-rule="nonzero" fill="#ffffff" stroke="none" />
  <path d="M 529 305  C 532.08 305  534.5 307.42  534.5 310.5  C 534.5 313.58  532.08 316  529 316  C 525.92 316  523.5 313.58  523.5 310.5  C 523.5 307.42  525.92 305  529 305  Z " stroke-width="1" stroke="#797979" fill="none" />
  <path d="M 529 313.5  C 527.32 313.5  526 312.18  526 310.5  C 526 308.82  527.32 307.5  529 307.5  C 530.68 307.5  532 308.82  532 310.5  C 532 312.18  530.68 313.5  529 313.5  " fill-rule="nonzero" fill="#797979" stroke="none" />
</svg>