<?xml version="1.0" encoding="utf-8"?>
<svg version="1.1" xmlns:xlink="http://www.w3.org/1999/xlink" width="12px" height="12px" viewBox="1039 409.5  12 12" xmlns="http://www.w3.org/2000/svg">
  <path d="M 1045 409.5  C 1048.36 409.5  1051 412.14  1051 415.5  C 1051 418.86  1048.36 421.5  1045 421.5  C 1041.64 421.5  1039 418.86  1039 415.5  C 1039 412.14  1041.64 409.5  1045 409.5  Z " fill-rule="nonzero" fill="#ffffff" stroke="none" />
  <path d="M 1045 410  C 1048.08 410  1050.5 412.42  1050.5 415.5  C 1050.5 418.58  1048.08 421  1045 421  C 1041.92 421  1039.5 418.58  1039.5 415.5  C 1039.5 412.42  1041.92 410  1045 410  Z " stroke-width="1" stroke="#797979" fill="none" />
  <path d="M 1045 418.5  C 1043.32 418.5  1042 417.18  1042 415.5  C 1042 413.82  1043.32 412.5  1045 412.5  C 1046.68 412.5  1048 413.82  1048 415.5  C 1048 417.18  1046.68 418.5  1045 418.5  " fill-rule="nonzero" fill="#797979" stroke="none" />
</svg>