<?xml version="1.0" encoding="utf-8"?>
<svg version="1.1" xmlns:xlink="http://www.w3.org/1999/xlink" width="56px" height="56px" xmlns="http://www.w3.org/2000/svg">
  <g transform="matrix(1 0 0 1 -511 -386 )">
    <path d="M 511 386  L 567 386  L 567 442  L 511 442  L 511 386  " fill-rule="nonzero" fill="#cccccc" stroke="none" />
    <path d="M 515 390  L 563 390  L 563 438  L 515 438  L 515 390  " fill-rule="nonzero" fill="#ffffff" stroke="none" />
    <path d="M 544.32 402.8  C 541.968 402.8  540.12 400.952  540.12 398.6  C 540.12 396.248  541.968 394.4  544.32 394.4  C 546.672 394.4  548.52 396.248  548.52 398.6  C 548.52 400.952  546.672 402.8  544.32 402.8  " fill-rule="nonzero" fill="#cccccc" stroke="none" />
    <path d="M 517 437  L 517 412.25  L 528.25 401  L 544 410  L 553 407.75  L 562 410  L 562 437  L 517 437  " fill-rule="nonzero" fill="#169bd5" stroke="none" />
  </g>
</svg>