<svg t="1614667606158" class="icon" viewBox="0 0 1024 1024" version="1.1" xmlns="http://www.w3.org/2000/svg" p-id="4880" width="200" height="200"><path d="M830.72 649.728l-623.616 5.376a25.6 25.6 0 0 0 0 51.2l623.36-5.376a25.6 25.6 0 0 0 0-51.2zM830.72 512l-623.616 5.376a25.6 25.6 0 0 0 0 51.2L830.976 563.2a25.6 25.6 0 0 0 0-51.2zM532.224 793.6H207.36a25.6 25.6 0 0 0 0 51.2h324.864a25.6 25.6 0 0 0 0-51.2zM197.632 216.32h51.2v174.848a19.712 19.712 0 0 0 5.888 14.336 21.76 21.76 0 0 0 15.36 5.888 23.04 23.04 0 0 0 15.872-5.888 18.944 18.944 0 0 0 6.144-14.336V216.32h53.504a21.504 21.504 0 0 0 14.592-5.12 17.664 17.664 0 0 0 5.632-13.824 18.176 18.176 0 0 0-5.632-14.08 20.48 20.48 0 0 0-14.592-4.096H197.632a20.48 20.48 0 0 0-14.592 5.376 18.176 18.176 0 0 0-5.888 13.824 17.92 17.92 0 0 0 5.632 13.824 20.736 20.736 0 0 0 14.848 4.096zM415.232 232.96a19.2 19.2 0 0 0-14.336 5.888 19.712 19.712 0 0 0-5.632 14.592v137.728a19.456 19.456 0 0 0 5.632 14.336 20.48 20.48 0 0 0 28.672 0 19.456 19.456 0 0 0 5.632-14.336V253.44a19.712 19.712 0 0 0-5.632-14.592 19.2 19.2 0 0 0-14.336-5.888zM414.976 211.456a28.672 28.672 0 0 0 16.384-3.584 15.104 15.104 0 0 0 3.84-13.312v-6.144a15.872 15.872 0 0 0-4.608-13.056 25.6 25.6 0 0 0-16.384-3.584 27.392 27.392 0 0 0-16.128 3.584 15.104 15.104 0 0 0-4.864 13.056v6.144a15.36 15.36 0 0 0 4.608 13.056 25.6 25.6 0 0 0 17.152 3.84zM478.208 273.152h15.36v91.904c0 19.2 4.608 31.744 14.08 37.632a65.536 65.536 0 0 0 35.072 8.704 40.704 40.704 0 0 0 22.016-6.144 17.92 17.92 0 0 0 9.984-15.104 18.432 18.432 0 0 0-3.84-12.032 12.032 12.032 0 0 0-7.68-4.352 22.784 22.784 0 0 0-7.68 1.536 24.064 24.064 0 0 1-7.168 1.536 14.592 14.592 0 0 1-9.984-3.328 12.032 12.032 0 0 1-3.84-9.984v-90.368h23.808a17.92 17.92 0 0 0 13.312-5.376 16.896 16.896 0 0 0 5.376-12.8 18.432 18.432 0 0 0-18.688-18.688h-23.808V215.04a19.712 19.712 0 0 0-5.632-14.592 18.944 18.944 0 0 0-13.824-5.888 20.224 20.224 0 0 0-20.48 20.48v21.248h-15.36a18.688 18.688 0 0 0-13.312 5.12 17.664 17.664 0 0 0-5.376 13.056 18.432 18.432 0 0 0 5.376 13.312 17.92 17.92 0 0 0 12.288 5.376zM635.648 411.392a19.712 19.712 0 0 0 14.336-5.888 18.688 18.688 0 0 0 5.888-14.336v-204.8a19.712 19.712 0 0 0-5.632-14.592 19.2 19.2 0 0 0-14.08-5.888 20.224 20.224 0 0 0-20.224 20.48v204.8a19.456 19.456 0 0 0 5.632 14.336 19.2 19.2 0 0 0 14.08 5.888zM732.672 403.2a100.096 100.096 0 0 0 48.896 11.52 97.28 97.28 0 0 0 31.744-5.12 82.176 82.176 0 0 0 25.6-13.056 20.736 20.736 0 0 0 9.216-16.128 15.872 15.872 0 0 0-4.864-11.776 16.384 16.384 0 0 0-12.032-4.864 25.6 25.6 0 0 0-11.52 2.816l-6.144 3.84a40.96 40.96 0 0 1-12.032 5.376 67.584 67.584 0 0 1-21.248 2.56 51.2 51.2 0 0 1-32.512-11.264 49.664 49.664 0 0 1-18.176-30.72h109.824a21.76 21.76 0 0 0 14.08-5.12 16.896 16.896 0 0 0 6.4-13.056 86.016 86.016 0 0 0-11.776-44.032 87.808 87.808 0 0 0-31.232-32.256A76.8 76.8 0 0 0 774.912 230.4a81.664 81.664 0 0 0-41.984 11.52 86.528 86.528 0 0 0-31.744 33.28 102.4 102.4 0 0 0-11.776 51.2 93.44 93.44 0 0 0 11.264 46.336 82.432 82.432 0 0 0 32 30.464z m42.24-136.704a44.032 44.032 0 0 1 28.16 9.984 33.792 33.792 0 0 1 13.568 23.808v2.304h-87.296a41.216 41.216 0 0 1 45.568-36.096z" p-id="4881"></path></svg>