<svg t="1614564742639" class="icon" viewBox="0 0 1024 1024" version="1.1" xmlns="http://www.w3.org/2000/svg" p-id="2125" width="200" height="200"><path d="M910.222222 0a113.777778 113.777778 0 0 1 113.777778 113.777778v796.444444a113.777778 113.777778 0 0 1-113.777778 113.777778H113.777778a113.777778 113.777778 0 0 1-113.777778-113.777778V113.777778a113.777778 113.777778 0 0 1 113.777778-113.777778h796.444444z m0 85.333333H113.777778a28.444444 28.444444 0 0 0-27.989334 23.324445L85.333333 113.777778v796.444444a28.444444 28.444444 0 0 0 23.324445 27.989334L113.777778 938.666667h796.444444a28.444444 28.444444 0 0 0 27.989334-23.324445L938.666667 910.222222V113.777778a28.444444 28.444444 0 0 0-23.324445-27.989334L910.222222 85.333333z" p-id="2126"></path><path d="M317.496889 471.836444V226.531556H213.333333v24.462222c0 11.093333-9.557333 20.081778-21.333333 20.081778S170.666667 262.087111 170.666667 250.993778v-60.302222C170.666667 179.712 180.224 170.666667 192 170.666667h298.666667c11.776 0 21.333333 8.988444 21.333333 20.081777v60.245334c0 11.093333-9.557333 20.081778-21.333333 20.081778s-21.333333-8.988444-21.333334-20.081778v-24.462222H367.672889v245.304888h16.327111c11.776 0 21.333333 8.988444 21.333333 20.081778 0 11.093333-9.557333 20.081778-21.333333 20.081778h-85.333333c-11.776 0-21.333333-8.988444-21.333334-20.081778 0-11.093333 9.557333-20.081778 21.333334-20.081778h18.830222z" p-id="2127"></path><path d="M646.599111 246.727111m28.444445 0l157.070222 0q28.444444 0 28.444444 28.444445l0 0q0 28.444444-28.444444 28.444444l-157.070222 0q-28.444444 0-28.444445-28.444444l0 0q0-28.444444 28.444445-28.444445Z" p-id="2128"></path><path d="M199.111111 630.954667m28.444445 0l604.558222 0q28.444444 0 28.444444 28.444444l0 0q0 28.444444-28.444444 28.444445l-604.558222 0q-28.444444 0-28.444445-28.444445l0 0q0-28.444444 28.444445-28.444444Z" p-id="2129"></path><path d="M646.599111 407.495111m28.444445 0l157.070222 0q28.444444 0 28.444444 28.444445l0 0q0 28.444444-28.444444 28.444444l-157.070222 0q-28.444444 0-28.444445-28.444444l0 0q0-28.444444 28.444445-28.444445Z" p-id="2130"></path><path d="M199.111111 791.722667m28.444445 0l604.558222 0q28.444444 0 28.444444 28.444444l0 0q0 28.444444-28.444444 28.444445l-604.558222 0q-28.444444 0-28.444445-28.444445l0 0q0-28.444444 28.444445-28.444444Z" p-id="2131"></path></svg>