<svg t="1614672409857" class="icon" viewBox="0 0 1024 1024" version="1.1" xmlns="http://www.w3.org/2000/svg" p-id="10079" data-spm-anchor-id="a313x.7781069.0.i8" width="200" height="200"><path d="M434.317241 476.689655H174.786207c-21.362759 0-38.841379-17.478621-38.841379-38.841379V178.317241c0-21.362759 17.478621-38.841379 38.841379-38.841379h259.531034c21.362759 0 38.841379 17.478621 38.84138 38.841379v259.531035c0 21.362759-17.478621 38.841379-38.84138 38.841379zM174.786207 174.786207c-1.942069 0-3.531034 1.588966-3.531035 3.531034v259.531035c0 1.942069 1.588966 3.531034 3.531035 3.531034h259.531034c1.942069 0 3.531034-1.588966 3.531035-3.531034V178.317241c0-1.942069-1.588966-3.531034-3.531035-3.531034H174.786207zM434.317241 850.97931H174.786207c-21.362759 0-38.841379-17.478621-38.841379-38.841379V552.606897c0-21.362759 17.478621-38.841379 38.841379-38.84138h259.531034c21.362759 0 38.841379 17.478621 38.84138 38.84138v259.531034c0 21.362759-17.478621 38.841379-38.84138 38.841379zM174.786207 549.075862c-1.942069 0-3.531034 1.588966-3.531035 3.531035v259.531034c0 1.942069 1.588966 3.531034 3.531035 3.531035h259.531034c1.942069 0 3.531034-1.588966 3.531035-3.531035V552.606897c0-1.942069-1.588966-3.531034-3.531035-3.531035H174.786207z" fill="#2c2c2c" p-id="10080"></path><path d="M677.075862 488.165517c-9.886897 0-19.950345-3.707586-27.542069-11.29931l-141.241379-141.241379c-15.183448-15.183448-15.183448-39.724138 0-54.907587l141.241379-141.241379c15.183448-15.183448 39.724138-15.183448 54.907586 0l141.24138 141.241379c15.183448 15.183448 15.183448 39.724138 0 54.907587l-141.24138 141.241379c-7.415172 7.591724-17.478621 11.29931-27.365517 11.29931z m0-324.855172c-0.706207 0-1.588966 0.176552-2.471724 1.05931l-141.241379 141.241379c-0.882759 0.882759-1.05931 1.765517-1.059311 2.471725s0.176552 1.588966 1.059311 2.471724l141.241379 141.241379c0.882759 0.882759 1.765517 1.05931 2.471724 1.05931s1.588966-0.176552 2.471724-1.05931l141.24138-141.241379c0.882759-0.882759 1.05931-1.765517 1.05931-2.471724s-0.176552-1.588966-1.05931-2.471725l-141.24138-141.241379c-0.882759-0.882759-1.765517-1.05931-2.471724-1.05931z" fill="#2c2c2c" p-id="10081"></path><path d="M806.841379 850.97931H547.310345c-21.362759 0-38.841379-17.478621-38.841379-38.841379V552.606897c0-21.362759 17.478621-38.841379 38.841379-38.84138h259.531034c21.362759 0 38.841379 17.478621 38.84138 38.84138v259.531034c0 21.362759-17.478621 38.841379-38.84138 38.841379zM547.310345 549.075862c-1.942069 0-3.531034 1.588966-3.531035 3.531035v259.531034c0 1.942069 1.588966 3.531034 3.531035 3.531035h259.531034c1.942069 0 3.531034-1.588966 3.531035-3.531035V552.606897c0-1.942069-1.588966-3.531034-3.531035-3.531035H547.310345z" fill="#2c2c2c" p-id="10082"></path></svg>