<?xml version="1.0" encoding="utf-8"?>
<svg version="1.1" xmlns:xlink="http://www.w3.org/1999/xlink" width="100px" height="50px" xmlns="http://www.w3.org/2000/svg">
  <g transform="matrix(1 0 0 1 -523 -534 )">
    <path d="M 523 534  L 623 534  L 623 584  L 523 584  L 523 534  " fill-rule="nonzero" fill="#cccccc" stroke="none" />
    <path d="M 527 538  L 619 538  L 619 580  L 527 580  L 527 538  " fill-rule="nonzero" fill="#ffffff" stroke="none" />
    <path d="M 578.75 549  C 576.65 549  575 547.35  575 545.25  C 575 543.15  576.65 541.5  578.75 541.5  C 580.85 541.5  582.5 543.15  582.5 545.25  C 582.5 547.35  580.85 549  578.75 549  " fill-rule="nonzero" fill="#cccccc" stroke="none" />
    <path d="M 529 579  L 529 557.55  L 551.25 547.8  L 582.4 567.3  L 600.2 553.65  L 618 567.3  L 618 579  L 529 579  " fill-rule="nonzero" fill="#169bd5" stroke="none" />
  </g>
</svg>