<?xml version="1.0" encoding="utf-8"?>
<svg version="1.1" xmlns:xlink="http://www.w3.org/1999/xlink" width="12px" height="12px" viewBox="638 321.5  12 12" xmlns="http://www.w3.org/2000/svg">
  <path d="M 644 321.5  C 647.36 321.5  650 324.14  650 327.5  C 650 330.86  647.36 333.5  644 333.5  C 640.64 333.5  638 330.86  638 327.5  C 638 324.14  640.64 321.5  644 321.5  Z " fill-rule="nonzero" fill="#ffffff" stroke="none" />
  <path d="M 644 322  C 647.08 322  649.5 324.42  649.5 327.5  C 649.5 330.58  647.08 333  644 333  C 640.92 333  638.5 330.58  638.5 327.5  C 638.5 324.42  640.92 322  644 322  Z " stroke-width="1" stroke="#797979" fill="none" />
  <path d="M 644 330.5  C 642.32 330.5  641 329.18  641 327.5  C 641 325.82  642.32 324.5  644 324.5  C 645.68 324.5  647 325.82  647 327.5  C 647 329.18  645.68 330.5  644 330.5  " fill-rule="nonzero" fill="#797979" stroke="none" />
</svg>