<?xml version="1.0" encoding="utf-8"?>
<svg version="1.1" xmlns:xlink="http://www.w3.org/1999/xlink" width="12px" height="12px" viewBox="552 368.5  12 12" xmlns="http://www.w3.org/2000/svg">
  <path d="M 558 368.5  C 561.36 368.5  564 371.14  564 374.5  C 564 377.86  561.36 380.5  558 380.5  C 554.64 380.5  552 377.86  552 374.5  C 552 371.14  554.64 368.5  558 368.5  Z " fill-rule="nonzero" fill="#ffffff" stroke="none" />
  <path d="M 558 369  C 561.08 369  563.5 371.42  563.5 374.5  C 563.5 377.58  561.08 380  558 380  C 554.92 380  552.5 377.58  552.5 374.5  C 552.5 371.42  554.92 369  558 369  Z " stroke-width="1" stroke="#797979" fill="none" />
  <path d="M 558 377.5  C 556.32 377.5  555 376.18  555 374.5  C 555 372.82  556.32 371.5  558 371.5  C 559.68 371.5  561 372.82  561 374.5  C 561 376.18  559.68 377.5  558 377.5  " fill-rule="nonzero" fill="#797979" stroke="none" />
</svg>