<?xml version="1.0" encoding="utf-8"?>
<svg version="1.1" xmlns:xlink="http://www.w3.org/1999/xlink" width="12px" height="12px" viewBox="631 296.5  12 12" xmlns="http://www.w3.org/2000/svg">
  <path d="M 637 296.5  C 640.36 296.5  643 299.14  643 302.5  C 643 305.86  640.36 308.5  637 308.5  C 633.64 308.5  631 305.86  631 302.5  C 631 299.14  633.64 296.5  637 296.5  Z " fill-rule="nonzero" fill="#ffffff" stroke="none" />
  <path d="M 637 297  C 640.08 297  642.5 299.42  642.5 302.5  C 642.5 305.58  640.08 308  637 308  C 633.92 308  631.5 305.58  631.5 302.5  C 631.5 299.42  633.92 297  637 297  Z " stroke-width="1" stroke="#797979" fill="none" />
  <path d="M 637 305.5  C 635.32 305.5  634 304.18  634 302.5  C 634 300.82  635.32 299.5  637 299.5  C 638.68 299.5  640 300.82  640 302.5  C 640 304.18  638.68 305.5  637 305.5  " fill-rule="nonzero" fill="#797979" stroke="none" />
</svg>