<?xml version="1.0" encoding="utf-8"?>
<svg version="1.1" xmlns:xlink="http://www.w3.org/1999/xlink" width="100px" height="60px" xmlns="http://www.w3.org/2000/svg">
  <defs>
    <linearGradient gradientUnits="userSpaceOnUse" x1="450" y1="980" x2="450" y2="1040" id="LinearGradient385">
      <stop id="Stop386" stop-color="#ffffff" offset="0" />
      <stop id="Stop387" stop-color="#f2f2f2" offset="0" />
      <stop id="Stop388" stop-color="#e4e4e4" offset="1" />
      <stop id="Stop389" stop-color="#ffffff" offset="1" />
    </linearGradient>
  </defs>
  <g transform="matrix(1 0 0 1 -400 -980 )">
    <path d="M 450 980  C 478 980  500 993.2  500 1010  C 500 1026.8  478 1040  450 1040  C 422 1040  400 1026.8  400 1010  C 400 993.2  422 980  450 980  Z " fill-rule="nonzero" fill="url(#LinearGradient385)" stroke="none" />
    <path d="M 450 980.5  C 477.72 980.5  499.5 993.48  499.5 1010  C 499.5 1026.52  477.72 1039.5  450 1039.5  C 422.28 1039.5  400.5 1026.52  400.5 1010  C 400.5 993.48  422.28 980.5  450 980.5  Z " stroke-width="1" stroke="#797979" fill="none" />
  </g>
</svg>