<?xml version="1.0" encoding="utf-8"?>
<svg version="1.1" xmlns:xlink="http://www.w3.org/1999/xlink" width="12px" height="12px" viewBox="639 368.5  12 12" xmlns="http://www.w3.org/2000/svg">
  <path d="M 645 368.5  C 648.36 368.5  651 371.14  651 374.5  C 651 377.86  648.36 380.5  645 380.5  C 641.64 380.5  639 377.86  639 374.5  C 639 371.14  641.64 368.5  645 368.5  Z " fill-rule="nonzero" fill="#ffffff" stroke="none" />
  <path d="M 645 369  C 648.08 369  650.5 371.42  650.5 374.5  C 650.5 377.58  648.08 380  645 380  C 641.92 380  639.5 377.58  639.5 374.5  C 639.5 371.42  641.92 369  645 369  Z " stroke-width="1" stroke="#797979" fill="none" />
  <path d="M 645 377.5  C 643.32 377.5  642 376.18  642 374.5  C 642 372.82  643.32 371.5  645 371.5  C 646.68 371.5  648 372.82  648 374.5  C 648 376.18  646.68 377.5  645 377.5  " fill-rule="nonzero" fill="#797979" stroke="none" />
</svg>