<?xml version="1.0" encoding="utf-8"?>
<svg version="1.1" xmlns:xlink="http://www.w3.org/1999/xlink" width="12px" height="12px" viewBox="815 230.5  12 12" xmlns="http://www.w3.org/2000/svg">
  <path d="M 821 230.5  C 824.36 230.5  827 233.14  827 236.5  C 827 239.86  824.36 242.5  821 242.5  C 817.64 242.5  815 239.86  815 236.5  C 815 233.14  817.64 230.5  821 230.5  Z " fill-rule="nonzero" fill="#ffffff" stroke="none" />
  <path d="M 821 231  C 824.08 231  826.5 233.42  826.5 236.5  C 826.5 239.58  824.08 242  821 242  C 817.92 242  815.5 239.58  815.5 236.5  C 815.5 233.42  817.92 231  821 231  Z " stroke-width="1" stroke="#797979" fill="none" />
  <path d="M 821 239.5  C 819.32 239.5  818 238.18  818 236.5  C 818 234.82  819.32 233.5  821 233.5  C 822.68 233.5  824 234.82  824 236.5  C 824 238.18  822.68 239.5  821 239.5  " fill-rule="nonzero" fill="#797979" stroke="none" />
</svg>