<?xml version="1.0" encoding="utf-8"?>
<svg version="1.1" xmlns:xlink="http://www.w3.org/1999/xlink" width="12px" height="12px" viewBox="756 368.5  12 12" xmlns="http://www.w3.org/2000/svg">
  <path d="M 762 368.5  C 765.36 368.5  768 371.14  768 374.5  C 768 377.86  765.36 380.5  762 380.5  C 758.64 380.5  756 377.86  756 374.5  C 756 371.14  758.64 368.5  762 368.5  Z " fill-rule="nonzero" fill="#ffffff" stroke="none" />
  <path d="M 762 369  C 765.08 369  767.5 371.42  767.5 374.5  C 767.5 377.58  765.08 380  762 380  C 758.92 380  756.5 377.58  756.5 374.5  C 756.5 371.42  758.92 369  762 369  Z " stroke-width="1" stroke="#797979" fill="none" />
  <path d="M 762 377.5  C 760.32 377.5  759 376.18  759 374.5  C 759 372.82  760.32 371.5  762 371.5  C 763.68 371.5  765 372.82  765 374.5  C 765 376.18  763.68 377.5  762 377.5  " fill-rule="nonzero" fill="#797979" stroke="none" />
</svg>