<?xml version="1.0" encoding="utf-8"?>
<svg version="1.1" xmlns:xlink="http://www.w3.org/1999/xlink" width="12px" height="12px" viewBox="623 260.5  12 12" xmlns="http://www.w3.org/2000/svg">
  <path d="M 629 260.5  C 632.36 260.5  635 263.14  635 266.5  C 635 269.86  632.36 272.5  629 272.5  C 625.64 272.5  623 269.86  623 266.5  C 623 263.14  625.64 260.5  629 260.5  Z " fill-rule="nonzero" fill="#ffffff" stroke="none" />
  <path d="M 629 261  C 632.08 261  634.5 263.42  634.5 266.5  C 634.5 269.58  632.08 272  629 272  C 625.92 272  623.5 269.58  623.5 266.5  C 623.5 263.42  625.92 261  629 261  Z " stroke-width="1" stroke="#797979" fill="none" />
  <path d="M 629 269.5  C 627.32 269.5  626 268.18  626 266.5  C 626 264.82  627.32 263.5  629 263.5  C 630.68 263.5  632 264.82  632 266.5  C 632 268.18  630.68 269.5  629 269.5  " fill-rule="nonzero" fill="#797979" stroke="none" />
</svg>