<?xml version="1.0" encoding="utf-8"?>
<svg version="1.1" xmlns:xlink="http://www.w3.org/1999/xlink" width="12px" height="12px" viewBox="559 260.5  12 12" xmlns="http://www.w3.org/2000/svg">
  <path d="M 565 260.5  C 568.36 260.5  571 263.14  571 266.5  C 571 269.86  568.36 272.5  565 272.5  C 561.64 272.5  559 269.86  559 266.5  C 559 263.14  561.64 260.5  565 260.5  Z " fill-rule="nonzero" fill="#ffffff" stroke="none" />
  <path d="M 565 261  C 568.08 261  570.5 263.42  570.5 266.5  C 570.5 269.58  568.08 272  565 272  C 561.92 272  559.5 269.58  559.5 266.5  C 559.5 263.42  561.92 261  565 261  Z " stroke-width="1" stroke="#797979" fill="none" />
  <path d="M 565 269.5  C 563.32 269.5  562 268.18  562 266.5  C 562 264.82  563.32 263.5  565 263.5  C 566.68 263.5  568 264.82  568 266.5  C 568 268.18  566.68 269.5  565 269.5  " fill-rule="nonzero" fill="#797979" stroke="none" />
</svg>