<?xml version="1.0" encoding="utf-8"?>
<svg version="1.1" xmlns:xlink="http://www.w3.org/1999/xlink" width="12px" height="12px" viewBox="804 282.5  12 12" xmlns="http://www.w3.org/2000/svg">
  <path d="M 810 282.5  C 813.36 282.5  816 285.14  816 288.5  C 816 291.86  813.36 294.5  810 294.5  C 806.64 294.5  804 291.86  804 288.5  C 804 285.14  806.64 282.5  810 282.5  Z " fill-rule="nonzero" fill="#ffffff" stroke="none" />
  <path d="M 810 283  C 813.08 283  815.5 285.42  815.5 288.5  C 815.5 291.58  813.08 294  810 294  C 806.92 294  804.5 291.58  804.5 288.5  C 804.5 285.42  806.92 283  810 283  Z " stroke-width="1" stroke="#797979" fill="none" />
  <path d="M 810 291.5  C 808.32 291.5  807 290.18  807 288.5  C 807 286.82  808.32 285.5  810 285.5  C 811.68 285.5  813 286.82  813 288.5  C 813 290.18  811.68 291.5  810 291.5  " fill-rule="nonzero" fill="#797979" stroke="none" />
</svg>