<?xml version="1.0" encoding="utf-8"?>
<svg version="1.1" xmlns:xlink="http://www.w3.org/1999/xlink" width="12px" height="12px" viewBox="622 266.5  12 12" xmlns="http://www.w3.org/2000/svg">
  <path d="M 628 266.5  C 631.36 266.5  634 269.14  634 272.5  C 634 275.86  631.36 278.5  628 278.5  C 624.64 278.5  622 275.86  622 272.5  C 622 269.14  624.64 266.5  628 266.5  Z " fill-rule="nonzero" fill="#ffffff" stroke="none" />
  <path d="M 628 267  C 631.08 267  633.5 269.42  633.5 272.5  C 633.5 275.58  631.08 278  628 278  C 624.92 278  622.5 275.58  622.5 272.5  C 622.5 269.42  624.92 267  628 267  Z " stroke-width="1" stroke="#797979" fill="none" />
  <path d="M 628 275.5  C 626.32 275.5  625 274.18  625 272.5  C 625 270.82  626.32 269.5  628 269.5  C 629.68 269.5  631 270.82  631 272.5  C 631 274.18  629.68 275.5  628 275.5  " fill-rule="nonzero" fill="#797979" stroke="none" />
</svg>