<?xml version="1.0" encoding="utf-8"?>
<svg version="1.1" xmlns:xlink="http://www.w3.org/1999/xlink" width="12px" height="12px" viewBox="610 304.5  12 12" xmlns="http://www.w3.org/2000/svg">
  <path d="M 616 304.5  C 619.36 304.5  622 307.14  622 310.5  C 622 313.86  619.36 316.5  616 316.5  C 612.64 316.5  610 313.86  610 310.5  C 610 307.14  612.64 304.5  616 304.5  Z " fill-rule="nonzero" fill="#ffffff" stroke="none" />
  <path d="M 616 305  C 619.08 305  621.5 307.42  621.5 310.5  C 621.5 313.58  619.08 316  616 316  C 612.92 316  610.5 313.58  610.5 310.5  C 610.5 307.42  612.92 305  616 305  Z " stroke-width="1" stroke="#797979" fill="none" />
  <path d="M 616 313.5  C 614.32 313.5  613 312.18  613 310.5  C 613 308.82  614.32 307.5  616 307.5  C 617.68 307.5  619 308.82  619 310.5  C 619 312.18  617.68 313.5  616 313.5  " fill-rule="nonzero" fill="#797979" stroke="none" />
</svg>