<?xml version="1.0" encoding="utf-8"?>
<svg version="1.1" xmlns:xlink="http://www.w3.org/1999/xlink" width="12px" height="12px" viewBox="627 408.5  12 12" xmlns="http://www.w3.org/2000/svg">
  <path d="M 633 408.5  C 636.36 408.5  639 411.14  639 414.5  C 639 417.86  636.36 420.5  633 420.5  C 629.64 420.5  627 417.86  627 414.5  C 627 411.14  629.64 408.5  633 408.5  Z " fill-rule="nonzero" fill="#ffffff" stroke="none" />
  <path d="M 633 409  C 636.08 409  638.5 411.42  638.5 414.5  C 638.5 417.58  636.08 420  633 420  C 629.92 420  627.5 417.58  627.5 414.5  C 627.5 411.42  629.92 409  633 409  Z " stroke-width="1" stroke="#797979" fill="none" />
  <path d="M 633 417.5  C 631.32 417.5  630 416.18  630 414.5  C 630 412.82  631.32 411.5  633 411.5  C 634.68 411.5  636 412.82  636 414.5  C 636 416.18  634.68 417.5  633 417.5  " fill-rule="nonzero" fill="#797979" stroke="none" />
</svg>