<?xml version="1.0" encoding="utf-8"?>
<svg version="1.1" xmlns:xlink="http://www.w3.org/1999/xlink" width="12px" height="12px" viewBox="551 321.5  12 12" xmlns="http://www.w3.org/2000/svg">
  <path d="M 557 321.5  C 560.36 321.5  563 324.14  563 327.5  C 563 330.86  560.36 333.5  557 333.5  C 553.64 333.5  551 330.86  551 327.5  C 551 324.14  553.64 321.5  557 321.5  Z " fill-rule="nonzero" fill="#ffffff" stroke="none" />
  <path d="M 557 322  C 560.08 322  562.5 324.42  562.5 327.5  C 562.5 330.58  560.08 333  557 333  C 553.92 333  551.5 330.58  551.5 327.5  C 551.5 324.42  553.92 322  557 322  Z " stroke-width="1" stroke="#797979" fill="none" />
  <path d="M 557 330.5  C 555.32 330.5  554 329.18  554 327.5  C 554 325.82  555.32 324.5  557 324.5  C 558.68 324.5  560 325.82  560 327.5  C 560 329.18  558.68 330.5  557 330.5  " fill-rule="nonzero" fill="#797979" stroke="none" />
</svg>