<?xml version="1.0" encoding="utf-8"?>
<svg version="1.1" xmlns:xlink="http://www.w3.org/1999/xlink" width="12px" height="12px" viewBox="583 282.5  12 12" xmlns="http://www.w3.org/2000/svg">
  <path d="M 589 282.5  C 592.36 282.5  595 285.14  595 288.5  C 595 291.86  592.36 294.5  589 294.5  C 585.64 294.5  583 291.86  583 288.5  C 583 285.14  585.64 282.5  589 282.5  Z " fill-rule="nonzero" fill="#ffffff" stroke="none" />
  <path d="M 589 283  C 592.08 283  594.5 285.42  594.5 288.5  C 594.5 291.58  592.08 294  589 294  C 585.92 294  583.5 291.58  583.5 288.5  C 583.5 285.42  585.92 283  589 283  Z " stroke-width="1" stroke="#797979" fill="none" />
  <path d="M 589 291.5  C 587.32 291.5  586 290.18  586 288.5  C 586 286.82  587.32 285.5  589 285.5  C 590.68 285.5  592 286.82  592 288.5  C 592 290.18  590.68 291.5  589 291.5  " fill-rule="nonzero" fill="#797979" stroke="none" />
</svg>