<?xml version="1.0" encoding="utf-8"?>
<svg version="1.1" xmlns:xlink="http://www.w3.org/1999/xlink" width="12px" height="12px" viewBox="647 282.5  12 12" xmlns="http://www.w3.org/2000/svg">
  <path d="M 653 282.5  C 656.36 282.5  659 285.14  659 288.5  C 659 291.86  656.36 294.5  653 294.5  C 649.64 294.5  647 291.86  647 288.5  C 647 285.14  649.64 282.5  653 282.5  Z " fill-rule="nonzero" fill="#ffffff" stroke="none" />
  <path d="M 653 283  C 656.08 283  658.5 285.42  658.5 288.5  C 658.5 291.58  656.08 294  653 294  C 649.92 294  647.5 291.58  647.5 288.5  C 647.5 285.42  649.92 283  653 283  Z " stroke-width="1" stroke="#797979" fill="none" />
  <path d="M 653 291.5  C 651.32 291.5  650 290.18  650 288.5  C 650 286.82  651.32 285.5  653 285.5  C 654.68 285.5  656 286.82  656 288.5  C 656 290.18  654.68 291.5  653 291.5  " fill-rule="nonzero" fill="#797979" stroke="none" />
</svg>