<?xml version="1.0" encoding="utf-8"?>
<svg version="1.1" xmlns:xlink="http://www.w3.org/1999/xlink" width="100px" height="57px" xmlns="http://www.w3.org/2000/svg">
  <g transform="matrix(1 0 0 1 -708 -315 )">
    <path d="M 708 315  L 808 315  L 808 372  L 708 372  L 708 315  " fill-rule="nonzero" fill="#cccccc" stroke="none" />
    <path d="M 712 319  L 804 319  L 804 368  L 712 368  L 712 319  " fill-rule="nonzero" fill="#ffffff" stroke="none" />
    <path d="M 764.275 332.1  C 761.881 332.1  760 330.219  760 327.825  C 760 325.431  761.881 323.55  764.275 323.55  C 766.669 323.55  768.55 325.431  768.55 327.825  C 768.55 330.219  766.669 332.1  764.275 332.1  " fill-rule="nonzero" fill="#cccccc" stroke="none" />
    <path d="M 714 367  L 714 341.7  L 736.25 330.2  L 767.4 351.268  L 785.2 337.1  L 803 351.268  L 803 367  L 714 367  " fill-rule="nonzero" fill="#169bd5" stroke="none" />
  </g>
</svg>