<?xml version="1.0" encoding="utf-8"?>
<svg version="1.1" xmlns:xlink="http://www.w3.org/1999/xlink" width="12px" height="12px" viewBox="494 260.5  12 12" xmlns="http://www.w3.org/2000/svg">
  <path d="M 500 260.5  C 503.36 260.5  506 263.14  506 266.5  C 506 269.86  503.36 272.5  500 272.5  C 496.64 272.5  494 269.86  494 266.5  C 494 263.14  496.64 260.5  500 260.5  Z " fill-rule="nonzero" fill="#ffffff" stroke="none" />
  <path d="M 500 261  C 503.08 261  505.5 263.42  505.5 266.5  C 505.5 269.58  503.08 272  500 272  C 496.92 272  494.5 269.58  494.5 266.5  C 494.5 263.42  496.92 261  500 261  Z " stroke-width="1" stroke="#797979" fill="none" />
  <path d="M 500 269.5  C 498.32 269.5  497 268.18  497 266.5  C 497 264.82  498.32 263.5  500 263.5  C 501.68 263.5  503 264.82  503 266.5  C 503 268.18  501.68 269.5  500 269.5  " fill-rule="nonzero" fill="#797979" stroke="none" />
</svg>