<?xml version="1.0" encoding="utf-8"?>
<svg version="1.1" xmlns:xlink="http://www.w3.org/1999/xlink" width="12px" height="12px" viewBox="729 225.5  12 12" xmlns="http://www.w3.org/2000/svg">
  <path d="M 735 225.5  C 738.36 225.5  741 228.14  741 231.5  C 741 234.86  738.36 237.5  735 237.5  C 731.64 237.5  729 234.86  729 231.5  C 729 228.14  731.64 225.5  735 225.5  Z " fill-rule="nonzero" fill="#ffffff" stroke="none" />
  <path d="M 735 226  C 738.08 226  740.5 228.42  740.5 231.5  C 740.5 234.58  738.08 237  735 237  C 731.92 237  729.5 234.58  729.5 231.5  C 729.5 228.42  731.92 226  735 226  Z " stroke-width="1" stroke="#797979" fill="none" />
  <path d="M 735 234.5  C 733.32 234.5  732 233.18  732 231.5  C 732 229.82  733.32 228.5  735 228.5  C 736.68 228.5  738 229.82  738 231.5  C 738 233.18  736.68 234.5  735 234.5  " fill-rule="nonzero" fill="#797979" stroke="none" />
</svg>