<?xml version="1.0" encoding="utf-8"?>
<svg version="1.1" xmlns:xlink="http://www.w3.org/1999/xlink" width="12px" height="12px" viewBox="798 225.5  12 12" xmlns="http://www.w3.org/2000/svg">
  <path d="M 804 225.5  C 807.36 225.5  810 228.14  810 231.5  C 810 234.86  807.36 237.5  804 237.5  C 800.64 237.5  798 234.86  798 231.5  C 798 228.14  800.64 225.5  804 225.5  Z " fill-rule="nonzero" fill="#ffffff" stroke="none" />
  <path d="M 804 226  C 807.08 226  809.5 228.42  809.5 231.5  C 809.5 234.58  807.08 237  804 237  C 800.92 237  798.5 234.58  798.5 231.5  C 798.5 228.42  800.92 226  804 226  Z " stroke-width="1" stroke="#797979" fill="none" />
  <path d="M 804 234.5  C 802.32 234.5  801 233.18  801 231.5  C 801 229.82  802.32 228.5  804 228.5  C 805.68 228.5  807 229.82  807 231.5  C 807 233.18  805.68 234.5  804 234.5  " fill-rule="nonzero" fill="#797979" stroke="none" />
</svg>