<?xml version="1.0" encoding="utf-8"?>
<svg version="1.1" xmlns:xlink="http://www.w3.org/1999/xlink" width="12px" height="12px" viewBox="622 290.5  12 12" xmlns="http://www.w3.org/2000/svg">
  <path d="M 628 290.5  C 631.36 290.5  634 293.14  634 296.5  C 634 299.86  631.36 302.5  628 302.5  C 624.64 302.5  622 299.86  622 296.5  C 622 293.14  624.64 290.5  628 290.5  Z " fill-rule="nonzero" fill="#ffffff" stroke="none" />
  <path d="M 628 291  C 631.08 291  633.5 293.42  633.5 296.5  C 633.5 299.58  631.08 302  628 302  C 624.92 302  622.5 299.58  622.5 296.5  C 622.5 293.42  624.92 291  628 291  Z " stroke-width="1" stroke="#797979" fill="none" />
  <path d="M 628 299.5  C 626.32 299.5  625 298.18  625 296.5  C 625 294.82  626.32 293.5  628 293.5  C 629.68 293.5  631 294.82  631 296.5  C 631 298.18  629.68 299.5  628 299.5  " fill-rule="nonzero" fill="#797979" stroke="none" />
</svg>