<?xml version="1.0" encoding="utf-8"?>
<svg version="1.1" xmlns:xlink="http://www.w3.org/1999/xlink" width="12px" height="12px" viewBox="858 335.5  12 12" xmlns="http://www.w3.org/2000/svg">
  <path d="M 864 335.5  C 867.36 335.5  870 338.14  870 341.5  C 870 344.86  867.36 347.5  864 347.5  C 860.64 347.5  858 344.86  858 341.5  C 858 338.14  860.64 335.5  864 335.5  Z " fill-rule="nonzero" fill="#ffffff" stroke="none" />
  <path d="M 864 336  C 867.08 336  869.5 338.42  869.5 341.5  C 869.5 344.58  867.08 347  864 347  C 860.92 347  858.5 344.58  858.5 341.5  C 858.5 338.42  860.92 336  864 336  Z " stroke-width="1" stroke="#797979" fill="none" />
  <path d="M 864 344.5  C 862.32 344.5  861 343.18  861 341.5  C 861 339.82  862.32 338.5  864 338.5  C 865.68 338.5  867 339.82  867 341.5  C 867 343.18  865.68 344.5  864 344.5  " fill-rule="nonzero" fill="#797979" stroke="none" />
</svg>