<?xml version="1.0" encoding="utf-8"?>
<svg version="1.1" xmlns:xlink="http://www.w3.org/1999/xlink" width="56px" height="70px" xmlns="http://www.w3.org/2000/svg">
  <g transform="matrix(1 0 0 1 -30 -61 )">
    <path d="M 30 61  L 86 61  L 86 131  L 30 131  L 30 61  " fill-rule="nonzero" fill="#cccccc" stroke="none" />
    <path d="M 34 65  L 82 65  L 82 127  L 34 127  L 34 65  " fill-rule="nonzero" fill="#ffffff" stroke="none" />
    <path d="M 63.32 79.9  C 60.968 79.9  59.12 78.052  59.12 75.7  C 59.12 73.348  60.968 71.5  63.32 71.5  C 65.672 71.5  67.52 73.348  67.52 75.7  C 67.52 78.052  65.672 79.9  63.32 79.9  " fill-rule="nonzero" fill="#cccccc" stroke="none" />
    <path d="M 36 126  L 36 93.55  L 47.25 78.8  L 63 90.6  L 72 87.65  L 81 90.6  L 81 126  L 36 126  " fill-rule="nonzero" fill="#169bd5" stroke="none" />
  </g>
</svg>