<?xml version="1.0" encoding="utf-8"?>
<svg version="1.1" xmlns:xlink="http://www.w3.org/1999/xlink" width="57px" height="56px" xmlns="http://www.w3.org/2000/svg">
  <g transform="matrix(1 0 0 1 -7 -202 )">
    <path d="M 7 202  L 64 202  L 64 258  L 7 258  L 7 202  " fill-rule="nonzero" fill="#cccccc" stroke="none" />
    <path d="M 11 206  L 60 206  L 60 254  L 11 254  L 11 206  " fill-rule="nonzero" fill="#ffffff" stroke="none" />
    <path d="M 40.84 218.8  C 38.488 218.8  36.64 216.952  36.64 214.6  C 36.64 212.248  38.488 210.4  40.84 210.4  C 43.192 210.4  45.04 212.248  45.04 214.6  C 45.04 216.952  43.192 218.8  40.84 218.8  " fill-rule="nonzero" fill="#cccccc" stroke="none" />
    <path d="M 13 253  L 13 228.25  L 24.5 217  L 40.6 226.473684210526  L 49.8 223.75  L 59 226.473684210526  L 59 253  L 13 253  " fill-rule="nonzero" fill="#169bd5" stroke="none" />
  </g>
</svg>