<?xml version="1.0" encoding="utf-8"?>
<svg version="1.1" xmlns:xlink="http://www.w3.org/1999/xlink" width="12px" height="12px" viewBox="622 297.5  12 12" xmlns="http://www.w3.org/2000/svg">
  <path d="M 628 297.5  C 631.36 297.5  634 300.14  634 303.5  C 634 306.86  631.36 309.5  628 309.5  C 624.64 309.5  622 306.86  622 303.5  C 622 300.14  624.64 297.5  628 297.5  Z " fill-rule="nonzero" fill="#ffffff" stroke="none" />
  <path d="M 628 298  C 631.08 298  633.5 300.42  633.5 303.5  C 633.5 306.58  631.08 309  628 309  C 624.92 309  622.5 306.58  622.5 303.5  C 622.5 300.42  624.92 298  628 298  Z " stroke-width="1" stroke="#797979" fill="none" />
  <path d="M 628 306.5  C 626.32 306.5  625 305.18  625 303.5  C 625 301.82  626.32 300.5  628 300.5  C 629.68 300.5  631 301.82  631 303.5  C 631 305.18  629.68 306.5  628 306.5  " fill-rule="nonzero" fill="#797979" stroke="none" />
</svg>