<?xml version="1.0" encoding="utf-8"?>
<svg version="1.1" xmlns:xlink="http://www.w3.org/1999/xlink" width="12px" height="12px" viewBox="635 260.5  12 12" xmlns="http://www.w3.org/2000/svg">
  <path d="M 641 260.5  C 644.36 260.5  647 263.14  647 266.5  C 647 269.86  644.36 272.5  641 272.5  C 637.64 272.5  635 269.86  635 266.5  C 635 263.14  637.64 260.5  641 260.5  Z " fill-rule="nonzero" fill="#ffffff" stroke="none" />
  <path d="M 641 261  C 644.08 261  646.5 263.42  646.5 266.5  C 646.5 269.58  644.08 272  641 272  C 637.92 272  635.5 269.58  635.5 266.5  C 635.5 263.42  637.92 261  641 261  Z " stroke-width="1" stroke="#797979" fill="none" />
  <path d="M 641 269.5  C 639.32 269.5  638 268.18  638 266.5  C 638 264.82  639.32 263.5  641 263.5  C 642.68 263.5  644 264.82  644 266.5  C 644 268.18  642.68 269.5  641 269.5  " fill-rule="nonzero" fill="#797979" stroke="none" />
</svg>