<?xml version="1.0" encoding="utf-8"?>
<svg version="1.1" xmlns:xlink="http://www.w3.org/1999/xlink" width="12px" height="12px" viewBox="522 263.5  12 12" xmlns="http://www.w3.org/2000/svg">
  <path d="M 528 263.5  C 531.36 263.5  534 266.14  534 269.5  C 534 272.86  531.36 275.5  528 275.5  C 524.64 275.5  522 272.86  522 269.5  C 522 266.14  524.64 263.5  528 263.5  Z " fill-rule="nonzero" fill="#ffffff" stroke="none" />
  <path d="M 528 264  C 531.08 264  533.5 266.42  533.5 269.5  C 533.5 272.58  531.08 275  528 275  C 524.92 275  522.5 272.58  522.5 269.5  C 522.5 266.42  524.92 264  528 264  Z " stroke-width="1" stroke="#797979" fill="none" />
  <path d="M 528 272.5  C 526.32 272.5  525 271.18  525 269.5  C 525 267.82  526.32 266.5  528 266.5  C 529.68 266.5  531 267.82  531 269.5  C 531 271.18  529.68 272.5  528 272.5  " fill-rule="nonzero" fill="#797979" stroke="none" />
</svg>