<?xml version="1.0" encoding="utf-8"?>
<svg version="1.1" xmlns:xlink="http://www.w3.org/1999/xlink" width="12px" height="12px" viewBox="708 225.5  12 12" xmlns="http://www.w3.org/2000/svg">
  <path d="M 714 225.5  C 717.36 225.5  720 228.14  720 231.5  C 720 234.86  717.36 237.5  714 237.5  C 710.64 237.5  708 234.86  708 231.5  C 708 228.14  710.64 225.5  714 225.5  Z " fill-rule="nonzero" fill="#ffffff" stroke="none" />
  <path d="M 714 226  C 717.08 226  719.5 228.42  719.5 231.5  C 719.5 234.58  717.08 237  714 237  C 710.92 237  708.5 234.58  708.5 231.5  C 708.5 228.42  710.92 226  714 226  Z " stroke-width="1" stroke="#797979" fill="none" />
  <path d="M 714 234.5  C 712.32 234.5  711 233.18  711 231.5  C 711 229.82  712.32 228.5  714 228.5  C 715.68 228.5  717 229.82  717 231.5  C 717 233.18  715.68 234.5  714 234.5  " fill-rule="nonzero" fill="#797979" stroke="none" />
</svg>