<?xml version="1.0" encoding="utf-8"?>
<svg version="1.1" xmlns:xlink="http://www.w3.org/1999/xlink" width="12px" height="12px" viewBox="494 267.5  12 12" xmlns="http://www.w3.org/2000/svg">
  <path d="M 500 267.5  C 503.36 267.5  506 270.14  506 273.5  C 506 276.86  503.36 279.5  500 279.5  C 496.64 279.5  494 276.86  494 273.5  C 494 270.14  496.64 267.5  500 267.5  Z " fill-rule="nonzero" fill="#ffffff" stroke="none" />
  <path d="M 500 268  C 503.08 268  505.5 270.42  505.5 273.5  C 505.5 276.58  503.08 279  500 279  C 496.92 279  494.5 276.58  494.5 273.5  C 494.5 270.42  496.92 268  500 268  Z " stroke-width="1" stroke="#797979" fill="none" />
  <path d="M 500 276.5  C 498.32 276.5  497 275.18  497 273.5  C 497 271.82  498.32 270.5  500 270.5  C 501.68 270.5  503 271.82  503 273.5  C 503 275.18  501.68 276.5  500 276.5  " fill-rule="nonzero" fill="#797979" stroke="none" />
</svg>