<?xml version="1.0" encoding="utf-8"?>
<svg version="1.1" xmlns:xlink="http://www.w3.org/1999/xlink" width="12px" height="12px" viewBox="777 225.5  12 12" xmlns="http://www.w3.org/2000/svg">
  <path d="M 783 225.5  C 786.36 225.5  789 228.14  789 231.5  C 789 234.86  786.36 237.5  783 237.5  C 779.64 237.5  777 234.86  777 231.5  C 777 228.14  779.64 225.5  783 225.5  Z " fill-rule="nonzero" fill="#ffffff" stroke="none" />
  <path d="M 783 226  C 786.08 226  788.5 228.42  788.5 231.5  C 788.5 234.58  786.08 237  783 237  C 779.92 237  777.5 234.58  777.5 231.5  C 777.5 228.42  779.92 226  783 226  Z " stroke-width="1" stroke="#797979" fill="none" />
  <path d="M 783 234.5  C 781.32 234.5  780 233.18  780 231.5  C 780 229.82  781.32 228.5  783 228.5  C 784.68 228.5  786 229.82  786 231.5  C 786 233.18  784.68 234.5  783 234.5  " fill-rule="nonzero" fill="#797979" stroke="none" />
</svg>