<?xml version="1.0" encoding="utf-8"?>
<svg version="1.1" xmlns:xlink="http://www.w3.org/1999/xlink" width="25px" height="24px" xmlns="http://www.w3.org/2000/svg">
  <g transform="matrix(1 0 0 1 -394 -61 )">
    <path d="M 18.9453125 21.795  C 19.1356169871795 21.605  19.2307692307692 21.38  19.2307692307692 21.12  C 19.2307692307692 20.86  19.1356169871795 20.635  18.9453125 20.445  C 18.7550080128205 20.255  18.5296474358974 20.16  18.2692307692308 20.16  C 18.0088141025641 20.16  17.783453525641 20.255  17.5931490384615 20.445  C 17.4028445512821 20.635  17.3076923076923 20.86  17.3076923076923 21.12  C 17.3076923076923 21.38  17.4028445512821 21.605  17.5931490384615 21.795  C 17.783453525641 21.985  18.0088141025641 22.08  18.2692307692308 22.08  C 18.5296474358974 22.08  18.7550080128205 21.985  18.9453125 21.795  Z M 22.7914663461538 21.795  C 22.9817708333333 21.605  23.0769230769231 21.38  23.0769230769231 21.12  C 23.0769230769231 20.86  22.9817708333333 20.635  22.7914663461538 20.445  C 22.6011618589744 20.255  22.3758012820513 20.16  22.1153846153846 20.16  C 21.8549679487179 20.16  21.6296073717949 20.255  21.4393028846154 20.445  C 21.2489983974359 20.635  21.1538461538462 20.86  21.1538461538462 21.12  C 21.1538461538462 21.38  21.2489983974359 21.605  21.4393028846154 21.795  C 21.6296073717949 21.985  21.8549679487179 22.08  22.1153846153846 22.08  C 22.3758012820513 22.08  22.6011618589744 21.985  22.7914663461538 21.795  Z M 24.5793269230769 16.74  C 24.8597756410256 17.02  25 17.36  25 17.76  L 25 22.56  C 25 22.96  24.8597756410256 23.3  24.5793269230769 23.58  C 24.2988782051282 23.86  23.9583333333333 24  23.5576923076923 24  L 1.44230769230769 24  C 1.04166666666667 24  0.701121794871795 23.86  0.420673076923077 23.58  C 0.140224358974359 23.3  0 22.96  0 22.56  L 0 17.76  C 0 17.36  0.140224358974359 17.02  0.420673076923077 16.74  C 0.701121794871795 16.46  1.04166666666667 16.32  1.44230769230769 16.32  L 7.85757211538462 16.32  C 8.06790865384615 16.88  8.42097355769231 17.34  8.91676682692308 17.7  C 9.41256009615385 18.06  9.96594551282051 18.24  10.5769230769231 18.24  L 14.4230769230769 18.24  C 15.0340544871795 18.24  15.5874399038462 18.06  16.0832331730769 17.7  C 16.5790264423077 17.34  16.9320913461538 16.88  17.1424278846154 16.32  L 23.5576923076923 16.32  C 23.9583333333333 16.32  24.2988782051282 16.46  24.5793269230769 16.74  Z M 19.9068509615385 7.005  C 20.2173477564103 7.305  20.2874599358974 7.65  20.1171875 8.04  C 19.9469150641026 8.44  19.6514423076923 8.64  19.2307692307692 8.64  L 15.3846153846154 8.64  L 15.3846153846154 15.36  C 15.3846153846154 15.62  15.2894631410256 15.845  15.0991586538462 16.035  C 14.9088541666667 16.225  14.6834935897436 16.32  14.4230769230769 16.32  L 10.5769230769231 16.32  C 10.3165064102564 16.32  10.0911458333333 16.225  9.90084134615385 16.035  C 9.71053685897436 15.845  9.61538461538462 15.62  9.61538461538462 15.36  L 9.61538461538462 8.64  L 5.76923076923077 8.64  C 5.34855769230769 8.64  5.05308493589744 8.44  4.8828125 8.04  C 4.71254006410256 7.65  4.78265224358974 7.305  5.09314903846154 7.005  L 11.8239182692308 0.284999999999999  C 12.0042067307692 0.0949999999999989  12.2295673076923 0  12.5 0  C 12.7704326923077 0  12.9957932692308 0.0949999999999989  13.1760817307692 0.284999999999999  L 19.9068509615385 7.005  Z " fill-rule="nonzero" fill="#000000" stroke="none" transform="matrix(1 0 0 1 394 61 )" />
  </g>
</svg>