<?xml version="1.0" encoding="utf-8"?>
<svg version="1.1" xmlns:xlink="http://www.w3.org/1999/xlink" width="397px" height="10px" preserveAspectRatio="xMinYMid meet" viewBox="248 266  397 8" xmlns="http://www.w3.org/2000/svg">
  <path d="M 253.5 340  L 253.5 275  A 5 5 0 0 1 258.5 270.5 L 635 270.5  A 5 5 0 0 1 640.5 275.5 L 640.5 325  A 5 5 0 0 0 645.5 330.5 L 650 330.5  " stroke-width="1" stroke="#ff3399" fill="none" />
  <path d="M 253.5 335  A 3 3 0 0 0 250.5 338 A 3 3 0 0 0 253.5 341 A 3 3 0 0 0 256.5 338 A 3 3 0 0 0 253.5 335 Z " fill-rule="nonzero" fill="#ff3399" stroke="none" />
</svg>