<?xml version="1.0" encoding="utf-8"?>
<svg version="1.1" xmlns:xlink="http://www.w3.org/1999/xlink" width="131px" height="10px" preserveAspectRatio="xMinYMid meet" viewBox="334 335  131 8" xmlns="http://www.w3.org/2000/svg">
  <path d="M 339.5 330  L 339.5 334  A 5 5 0 0 0 344.5 339.5 L 455 339.5  A 5 5 0 0 1 460.5 344.5 L 460.5 510  A 5 5 0 0 0 465.5 515.5 L 650 515.5  " stroke-width="1" stroke="#ff3399" fill="none" />
  <path d="M 339.5 329  A 3 3 0 0 0 336.5 332 A 3 3 0 0 0 339.5 335 A 3 3 0 0 0 342.5 332 A 3 3 0 0 0 339.5 329 Z " fill-rule="nonzero" fill="#ff3399" stroke="none" />
</svg>