<?xml version="1.0" encoding="utf-8"?>
<svg version="1.1" xmlns:xlink="http://www.w3.org/1999/xlink" width="40px" height="40px" xmlns="http://www.w3.org/2000/svg">
  <g transform="matrix(1 0 0 1 -150 -310 )">
    <path d="M 170 310  C 181.2 310  190 318.8  190 330  C 190 341.2  181.2 350  170 350  C 158.8 350  150 341.2  150 330  C 150 318.8  158.8 310  170 310  Z " fill-rule="nonzero" fill="#ffffff" stroke="none" />
    <path d="M 170 310.5  C 180.92 310.5  189.5 319.08  189.5 330  C 189.5 340.92  180.92 349.5  170 349.5  C 159.08 349.5  150.5 340.92  150.5 330  C 150.5 319.08  159.08 310.5  170 310.5  Z " stroke-width="1" stroke="#797979" fill="none" />
  </g>
</svg>