<?xml version="1.0" encoding="utf-8"?>
<svg version="1.1" xmlns:xlink="http://www.w3.org/1999/xlink" width="24px" height="24px" xmlns="http://www.w3.org/2000/svg">
  <g transform="matrix(1 0 0 1 -406 -290 )">
    <path d="M 10.7368421052632 11.7894736842105  C 10.7368421052632 12.4870965261021  11.3023771581085 13.0526315789474  12 13.0526315789474  C 12.6976228418915 13.0526315789474  13.2631578947368 12.4870965261021  13.2631578947368 11.7894736842105  C 13.2631578947368 11.091850842319  12.6976228418915 10.5263157894737  12 10.5263157894737  C 11.3023771581085 10.5263157894737  10.7368421052632 11.091850842319  10.7368421052632 11.7894736842105  Z M 16 11.7894736842105  C 16 12.4870965261021  16.5655350528453 13.0526315789474  17.2631578947368 13.0526315789474  C 17.9607807366284 13.0526315789474  18.5263157894737 12.4870965261021  18.5263157894737 11.7894736842105  C 18.5263157894737 11.091850842319  17.9607807366284 10.5263157894737  17.2631578947368 10.5263157894737  C 16.5655350528453 10.5263157894737  16 11.091850842319  16 11.7894736842105  Z M 5.47368421052632 11.7894736842105  C 5.47368421052632 12.4870965261021  6.03921926337163 13.0526315789474  6.73684210526316 13.0526315789474  C 7.43446494715469 13.0526315789474  8 12.4870965261021  8 11.7894736842105  C 8 11.091850842319  7.43446494715469 10.5263157894737  6.73684210526316 10.5263157894737  C 6.03921926337163 10.5263157894737  5.47368421052632 11.091850842319  5.47368421052632 11.7894736842105  Z M 23.7894736842105 11.8421052631579  C 23.7973684210526 10.2394736842105  23.4868421052632 8.68421052631579  22.8736842105263 7.22105263157895  C 22.2789473684211 5.8078947368421  21.4263157894737 4.53947368421053  20.3394736842105 3.45  C 19.2526315789474 2.36315789473684  17.9842105263158 1.5078947368421  16.5684210526316 0.91578947368421  C 15.1210526315789 0.307894736842105  13.5842105263158 0  12 0  L 11.9473684210526 0  C 10.3526315789474 0.00789473684210407  8.8078947368421 0.323684210526316  7.35526315789474 0.944736842105264  C 5.95263157894737 1.54473684210526  4.69473684210526 2.39736842105263  3.61842105263158 3.48421052631579  C 2.54210526315789 4.57105263157895  1.69736842105263 5.83421052631579  1.11315789473684 7.2421052631579  C 0.507894736842104 8.7  0.202631578947368 10.25  0.210526315789473 11.8447368421053  C 0.21842105263158 13.6710526315789  0.655263157894737 15.4842105263158  1.47368421052632 17.1052631578947  L 1.47368421052632 21.1052631578947  C 1.47368421052632 21.7736842105263  2.01578947368421 22.3157894736842  2.68421052631579 22.3157894736842  L 6.68684210526316 22.3157894736842  C 8.30789473684211 23.1342105263158  10.1210526315789 23.571052631579  11.9473684210526 23.5789473684211  L 12.0026315789474 23.5789473684211  C 13.5789473684211 23.5789473684211  15.1078947368421 23.2736842105263  16.5473684210526 22.6763157894737  C 17.9552631578947 22.0894736842105  19.2210526315789 21.2473684210526  20.3052631578947 20.1710526315789  C 21.3921052631579 19.0947368421053  22.2473684210526 17.8368421052632  22.8447368421053 16.4342105263158  C 23.4657894736842 14.9815789473684  23.7815789473684 13.4368421052632  23.7894736842105 11.8421052631579  Z M 21.7947368421053 11.8342105263158  C 21.7789473684211 14.4552631578947  20.75 16.9105263157895  18.8973684210526 18.7473684210526  C 17.0526315789474 20.5736842105263  14.6052631578947 21.5789473684211  12 21.5789473684211  L 11.9552631578947 21.5789473684211  C 10.3684210526316 21.571052631579  8.7921052631579 21.1763157894737  7.4 20.4342105263158  L 7.17894736842106 20.3157894736842  L 3.47368421052632 20.3157894736842  L 3.47368421052632 16.6105263157895  L 3.35526315789474 16.3894736842105  C 2.61315789473684 14.9973684210526  2.21842105263158 13.4210526315789  2.21052631578947 11.8342105263158  C 2.2 9.21052631578948  3.20263157894737 6.74736842105263  5.04210526315789 4.89210526315789  C 6.87894736842105 3.03684210526316  9.33421052631579 2.01052631578948  11.9578947368421 2  L 12.0026315789474 2  C 13.3184210526316 2  14.5947368421053 2.25526315789474  15.7973684210526 2.76052631578948  C 16.9710526315789 3.25263157894737  18.0236842105263 3.96052631578948  18.928947368421 4.86578947368421  C 19.8315789473684 5.76842105263158  20.5421052631579 6.82368421052632  21.0342105263158 7.99736842105263  C 21.5447368421053 9.21315789473685  21.8 10.5026315789474  21.7947368421053 11.8342105263158  Z " fill-rule="nonzero" fill="#666666" stroke="none" transform="matrix(1 0 0 1 406 290 )" />
  </g>
</svg>