<?xml version="1.0" encoding="utf-8"?>
<svg version="1.1" xmlns:xlink="http://www.w3.org/1999/xlink" width="709px" height="404px" xmlns="http://www.w3.org/2000/svg">
  <g>
    <path d="M 0 0  L 709 0  L 709 404  L 0 404  L 0 0  " fill-rule="nonzero" fill="#cccccc" stroke="none" />
    <path d="M 28 28  L 681 28  L 681 376  L 28 376  L 28 28  " fill-rule="nonzero" fill="#ffffff" stroke="none" />
    <path d="M 398.98 121.2  C 382.012 121.2  368.68 107.868  368.68 90.9  C 368.68 73.932  382.012 60.6  398.98 60.6  C 415.948 60.6  429.28 73.932  429.28 90.9  C 429.28 107.868  415.948 121.2  398.98 121.2  " fill-rule="nonzero" fill="#cccccc" stroke="none" />
    <path d="M 38 366  L 38 185.6  L 196.25 103.6  L 417.8 253.860084626234  L 544.4 152.8  L 671 253.860084626234  L 671 366  L 38 366  " fill-rule="nonzero" fill="#169bd5" stroke="none" />
  </g>
</svg>