<?xml version="1.0" encoding="utf-8"?>
<svg version="1.1" xmlns:xlink="http://www.w3.org/1999/xlink" width="50px" height="50px" xmlns="http://www.w3.org/2000/svg">
  <g transform="matrix(1 0 0 1 -278 -1433 )">
    <path d="M 303 1433  C 317 1433  328 1444  328 1458  C 328 1472  317 1483  303 1483  C 289 1483  278 1472  278 1458  C 278 1444  289 1433  303 1433  Z " fill-rule="nonzero" fill="#ffffff" stroke="none" />
    <path d="M 303 1433.5  C 316.72 1433.5  327.5 1444.28  327.5 1458  C 327.5 1471.72  316.72 1482.5  303 1482.5  C 289.28 1482.5  278.5 1471.72  278.5 1458  C 278.5 1444.28  289.28 1433.5  303 1433.5  Z " stroke-width="1" stroke="#797979" fill="none" />
  </g>
</svg>