<?xml version="1.0" encoding="utf-8"?>
<svg version="1.1" xmlns:xlink="http://www.w3.org/1999/xlink" width="794px" height="64px" xmlns="http://www.w3.org/2000/svg">
  <defs>
    <mask fill="white" id="clip865">
      <path d="M 779.033008631655 64  L 15 64  C 15 55.5999999999999  8.4 49  0 48.9988237185758  L 0 10  C 0 4.39999999999998  4.4 0  10 0  L 784 0  C 789.6 0  794 4.39999999999998  794 10  L 794 47  L 794 48  C 785.6 48  779 54.5999999999999  779 63  C 779 63.3363552140372  779.010582339542 63.6698243354722  779.033008631655 64  Z " fill-rule="evenodd" />
    </mask>
  </defs>
  <g transform="matrix(1 0 0 1 -19 -1250 )">
    <path d="M 779.033008631655 64  L 15 64  C 15 55.5999999999999  8.4 49  0 48.9988237185758  L 0 10  C 0 4.39999999999998  4.4 0  10 0  L 784 0  C 789.6 0  794 4.39999999999998  794 10  L 794 47  L 794 48  C 785.6 48  779 54.5999999999999  779 63  C 779 63.3363552140372  779.010582339542 63.6698243354722  779.033008631655 64  Z " fill-rule="nonzero" fill="#ffffff" stroke="none" transform="matrix(1 0 0 1 19 1250 )" />
    <path d="M 779.033008631655 64  L 15 64  C 15 55.5999999999999  8.4 49  0 48.9988237185758  L 0 10  C 0 4.39999999999998  4.4 0  10 0  L 784 0  C 789.6 0  794 4.39999999999998  794 10  L 794 47  L 794 48  C 785.6 48  779 54.5999999999999  779 63  C 779 63.3363552140372  779.010582339542 63.6698243354722  779.033008631655 64  Z " stroke-width="2" stroke="#d7d7d7" fill="none" transform="matrix(1 0 0 1 19 1250 )" mask="url(#clip865)" />
  </g>
</svg>