<?xml version="1.0" encoding="utf-8"?>
<svg version="1.1" xmlns:xlink="http://www.w3.org/1999/xlink" width="30px" height="30px" xmlns="http://www.w3.org/2000/svg">
  <g transform="matrix(1 0 0 1 -350 -1529 )">
    <path d="M 365 1529  C 373.4 1529  380 1535.6  380 1544  C 380 1552.4  373.4 1559  365 1559  C 356.6 1559  350 1552.4  350 1544  C 350 1535.6  356.6 1529  365 1529  Z " fill-rule="nonzero" fill="#ffffff" stroke="none" />
    <path d="M 365 1529.5  C 373.12 1529.5  379.5 1535.88  379.5 1544  C 379.5 1552.12  373.12 1558.5  365 1558.5  C 356.88 1558.5  350.5 1552.12  350.5 1544  C 350.5 1535.88  356.88 1529.5  365 1529.5  Z " stroke-width="1" stroke="#797979" fill="none" />
  </g>
</svg>