<?xml version="1.0" encoding="utf-8"?>
<svg version="1.1" xmlns:xlink="http://www.w3.org/1999/xlink" width="286px" height="162px" xmlns="http://www.w3.org/2000/svg">
  <g transform="matrix(1 0 0 1 -19 -862 )">
    <path d="M 19 862  L 305 862  L 305 1024  L 19 1024  L 19 862  " fill-rule="nonzero" fill="#cccccc" stroke="none" />
    <path d="M 30 873  L 294 873  L 294 1013  L 30 1013  L 30 873  " fill-rule="nonzero" fill="#ffffff" stroke="none" />
    <path d="M 179.87 910.6  C 173.066 910.6  167.72 905.254  167.72 898.45  C 167.72 891.646  173.066 886.3  179.87 886.3  C 186.674 886.3  192.02 891.646  192.02 898.45  C 192.02 905.254  186.674 910.6  179.87 910.6  " fill-rule="nonzero" fill="#cccccc" stroke="none" />
    <path d="M 34 1009  L 34 936.4  L 98 903.4  L 187.6 964.138461538462  L 238.8 923.2  L 290 964.138461538462  L 290 1009  L 34 1009  " fill-rule="nonzero" fill="#169bd5" stroke="none" />
  </g>
</svg>