<?xml version="1.0" encoding="utf-8"?>
<svg version="1.1" xmlns:xlink="http://www.w3.org/1999/xlink" width="12px" height="12px" viewBox="156 4.5  12 12" xmlns="http://www.w3.org/2000/svg">
  <path d="M 162 4.5  C 165.36 4.5  168 7.14  168 10.5  C 168 13.86  165.36 16.5  162 16.5  C 158.64 16.5  156 13.86  156 10.5  C 156 7.14  158.64 4.5  162 4.5  Z " fill-rule="nonzero" fill="#ffffff" stroke="none" />
  <path d="M 162 5  C 165.08 5  167.5 7.42  167.5 10.5  C 167.5 13.58  165.08 16  162 16  C 158.92 16  156.5 13.58  156.5 10.5  C 156.5 7.42  158.92 5  162 5  Z " stroke-width="1" stroke="#797979" fill="none" />
  <path d="M 162 13.5  C 160.32 13.5  159 12.18  159 10.5  C 159 8.82  160.32 7.5  162 7.5  C 163.68 7.5  165 8.82  165 10.5  C 165 12.18  163.68 13.5  162 13.5  " fill-rule="nonzero" fill="#797979" stroke="none" />
</svg>