<?xml version="1.0" encoding="utf-8"?>
<svg version="1.1" xmlns:xlink="http://www.w3.org/1999/xlink" width="12px" height="12px" viewBox="520 363  12 12" xmlns="http://www.w3.org/2000/svg">
  <path d="M 526 363  C 529.36 363  532 365.64  532 369  C 532 372.36  529.36 375  526 375  C 522.64 375  520 372.36  520 369  C 520 365.64  522.64 363  526 363  Z " fill-rule="nonzero" fill="#ffffff" stroke="none" />
  <path d="M 526 363.5  C 529.08 363.5  531.5 365.92  531.5 369  C 531.5 372.08  529.08 374.5  526 374.5  C 522.92 374.5  520.5 372.08  520.5 369  C 520.5 365.92  522.92 363.5  526 363.5  Z " stroke-width="1" stroke="#797979" fill="none" />
  <path d="M 526 372  C 524.32 372  523 370.68  523 369  C 523 367.32  524.32 366  526 366  C 527.68 366  529 367.32  529 369  C 529 370.68  527.68 372  526 372  " fill-rule="nonzero" fill="#797979" stroke="none" />
</svg>