<?xml version="1.0" encoding="utf-8"?>
<svg version="1.1" xmlns:xlink="http://www.w3.org/1999/xlink" width="12px" height="12px" viewBox="159 279.5  12 12" xmlns="http://www.w3.org/2000/svg">
  <path d="M 165 279.5  C 168.36 279.5  171 282.14  171 285.5  C 171 288.86  168.36 291.5  165 291.5  C 161.64 291.5  159 288.86  159 285.5  C 159 282.14  161.64 279.5  165 279.5  Z " fill-rule="nonzero" fill="#ffffff" stroke="none" />
  <path d="M 165 280  C 168.08 280  170.5 282.42  170.5 285.5  C 170.5 288.58  168.08 291  165 291  C 161.92 291  159.5 288.58  159.5 285.5  C 159.5 282.42  161.92 280  165 280  Z " stroke-width="1" stroke="#797979" fill="none" />
  <path d="M 165 288.5  C 163.32 288.5  162 287.18  162 285.5  C 162 283.82  163.32 282.5  165 282.5  C 166.68 282.5  168 283.82  168 285.5  C 168 287.18  166.68 288.5  165 288.5  " fill-rule="nonzero" fill="#797979" stroke="none" />
</svg>