<?xml version="1.0" encoding="utf-8"?>
<svg version="1.1" xmlns:xlink="http://www.w3.org/1999/xlink" width="12px" height="12px" viewBox="90 279.5  12 12" xmlns="http://www.w3.org/2000/svg">
  <path d="M 96 279.5  C 99.36 279.5  102 282.14  102 285.5  C 102 288.86  99.36 291.5  96 291.5  C 92.64 291.5  90 288.86  90 285.5  C 90 282.14  92.64 279.5  96 279.5  Z " fill-rule="nonzero" fill="#ffffff" stroke="none" />
  <path d="M 96 280  C 99.08 280  101.5 282.42  101.5 285.5  C 101.5 288.58  99.08 291  96 291  C 92.92 291  90.5 288.58  90.5 285.5  C 90.5 282.42  92.92 280  96 280  Z " stroke-width="1" stroke="#797979" fill="none" />
  <path d="M 96 288.5  C 94.32 288.5  93 287.18  93 285.5  C 93 283.82  94.32 282.5  96 282.5  C 97.68 282.5  99 283.82  99 285.5  C 99 287.18  97.68 288.5  96 288.5  " fill-rule="nonzero" fill="#797979" stroke="none" />
</svg>