<?xml version="1.0" encoding="utf-8"?>
<svg version="1.1" xmlns:xlink="http://www.w3.org/1999/xlink" width="12px" height="12px" viewBox="87 4.5  12 12" xmlns="http://www.w3.org/2000/svg">
  <path d="M 93 4.5  C 96.36 4.5  99 7.14  99 10.5  C 99 13.86  96.36 16.5  93 16.5  C 89.64 16.5  87 13.86  87 10.5  C 87 7.14  89.64 4.5  93 4.5  Z " fill-rule="nonzero" fill="#ffffff" stroke="none" />
  <path d="M 93 5  C 96.08 5  98.5 7.42  98.5 10.5  C 98.5 13.58  96.08 16  93 16  C 89.92 16  87.5 13.58  87.5 10.5  C 87.5 7.42  89.92 5  93 5  Z " stroke-width="1" stroke="#797979" fill="none" />
  <path d="M 93 13.5  C 91.32 13.5  90 12.18  90 10.5  C 90 8.82  91.32 7.5  93 7.5  C 94.68 7.5  96 8.82  96 10.5  C 96 12.18  94.68 13.5  93 13.5  " fill-rule="nonzero" fill="#797979" stroke="none" />
</svg>