<?xml version="1.0" encoding="utf-8"?>
<svg version="1.1" xmlns:xlink="http://www.w3.org/1999/xlink" width="53px" height="53px" xmlns="http://www.w3.org/2000/svg">
  <g transform="matrix(1 0 0 1 -105 -109 )">
    <path d="M 131.5 109  C 146.34 109  158 120.66  158 135.5  C 158 150.34  146.34 162  131.5 162  C 116.66 162  105 150.34  105 135.5  C 105 120.66  116.66 109  131.5 109  Z " fill-rule="nonzero" fill="#3bba00" stroke="none" />
    <path d="M 131.5 109.5  C 146.06 109.5  157.5 120.94  157.5 135.5  C 157.5 150.06  146.06 161.5  131.5 161.5  C 116.94 161.5  105.5 150.06  105.5 135.5  C 105.5 120.94  116.94 109.5  131.5 109.5  Z " stroke-width="1" stroke="#3bba00" fill="none" />
  </g>
</svg>