<?xml version="1.0" encoding="utf-8"?>
<svg version="1.1" xmlns:xlink="http://www.w3.org/1999/xlink" width="12px" height="12px" viewBox="608 198.5  12 12" xmlns="http://www.w3.org/2000/svg">
  <path d="M 614 198.5  C 617.36 198.5  620 201.14  620 204.5  C 620 207.86  617.36 210.5  614 210.5  C 610.64 210.5  608 207.86  608 204.5  C 608 201.14  610.64 198.5  614 198.5  Z " fill-rule="nonzero" fill="#ffffff" stroke="none" />
  <path d="M 614 199  C 617.08 199  619.5 201.42  619.5 204.5  C 619.5 207.58  617.08 210  614 210  C 610.92 210  608.5 207.58  608.5 204.5  C 608.5 201.42  610.92 199  614 199  Z " stroke-width="1" stroke="#797979" fill="none" />
  <path d="M 614 207.5  C 612.32 207.5  611 206.18  611 204.5  C 611 202.82  612.32 201.5  614 201.5  C 615.68 201.5  617 202.82  617 204.5  C 617 206.18  615.68 207.5  614 207.5  " fill-rule="nonzero" fill="#797979" stroke="none" />
</svg>