<?xml version="1.0" encoding="utf-8"?>
<svg version="1.1" xmlns:xlink="http://www.w3.org/1999/xlink" width="12px" height="12px" viewBox="521 198.5  12 12" xmlns="http://www.w3.org/2000/svg">
  <path d="M 527 198.5  C 530.36 198.5  533 201.14  533 204.5  C 533 207.86  530.36 210.5  527 210.5  C 523.64 210.5  521 207.86  521 204.5  C 521 201.14  523.64 198.5  527 198.5  Z " fill-rule="nonzero" fill="#ffffff" stroke="none" />
  <path d="M 527 199  C 530.08 199  532.5 201.42  532.5 204.5  C 532.5 207.58  530.08 210  527 210  C 523.92 210  521.5 207.58  521.5 204.5  C 521.5 201.42  523.92 199  527 199  Z " stroke-width="1" stroke="#797979" fill="none" />
  <path d="M 527 207.5  C 525.32 207.5  524 206.18  524 204.5  C 524 202.82  525.32 201.5  527 201.5  C 528.68 201.5  530 202.82  530 204.5  C 530 206.18  528.68 207.5  527 207.5  " fill-rule="nonzero" fill="#797979" stroke="none" />
</svg>