<?xml version="1.0" encoding="utf-8"?>
<svg version="1.1" xmlns:xlink="http://www.w3.org/1999/xlink" width="55px" height="50px" xmlns="http://www.w3.org/2000/svg">
  <g transform="matrix(1 0 0 1 -814 -282 )">
    <path d="M 814 282  L 869 282  L 869 332  L 814 332  L 814 282  " fill-rule="nonzero" fill="#cccccc" stroke="none" />
    <path d="M 818 286  L 865 286  L 865 328  L 818 328  L 818 286  " fill-rule="nonzero" fill="#ffffff" stroke="none" />
    <path d="M 846.35 297  C 844.25 297  842.6 295.35  842.6 293.25  C 842.6 291.15  844.25 289.5  846.35 289.5  C 848.45 289.5  850.1 291.15  850.1 293.25  C 850.1 295.35  848.45 297  846.35 297  " fill-rule="nonzero" fill="#cccccc" stroke="none" />
    <path d="M 820 327  L 820 305.55  L 831 295.8  L 846.4 305.727272727273  L 855.2 301.65  L 864 305.727272727273  L 864 327  L 820 327  " fill-rule="nonzero" fill="#169bd5" stroke="none" />
  </g>
</svg>