<?xml version="1.0" encoding="utf-8"?>
<svg version="1.1" xmlns:xlink="http://www.w3.org/1999/xlink" width="100px" height="60px" xmlns="http://www.w3.org/2000/svg">
  <defs>
    <linearGradient gradientUnits="userSpaceOnUse" x1="50" y1="0" x2="50" y2="60" id="LinearGradient834">
      <stop id="Stop835" stop-color="#ffffff" offset="0" />
      <stop id="Stop836" stop-color="#f2f2f2" offset="0" />
      <stop id="Stop837" stop-color="#e4e4e4" offset="1" />
      <stop id="Stop838" stop-color="#ffffff" offset="1" />
    </linearGradient>
    <mask fill="white" id="clip839">
      <path d="M 84.3137254901961 0.491803278688522  L 26.2254901960784 0  L 0.490196078431367 29.7540983606557  L 26.2254901960784 59.2622950819672  L 84.3137254901961 59.2622950819672  C 84.3137254901961 59.2622950819672  99.5356465291967 46.2669722352258  99.5098039215686 29.7540983606557  C 99.4841402768534 13.355577961988  84.3137254901961 0.491803278688522  84.3137254901961 0.491803278688522  Z " fill-rule="evenodd" />
    </mask>
  </defs>
  <g transform="matrix(1 0 0 1 -1134 -465 )">
    <path d="M 84.3137254901961 0.491803278688522  L 26.2254901960784 0  L 0.490196078431367 29.7540983606557  L 26.2254901960784 59.2622950819672  L 84.3137254901961 59.2622950819672  C 84.3137254901961 59.2622950819672  99.5356465291967 46.2669722352258  99.5098039215686 29.7540983606557  C 99.4841402768534 13.355577961988  84.3137254901961 0.491803278688522  84.3137254901961 0.491803278688522  Z " fill-rule="nonzero" fill="url(#LinearGradient834)" stroke="none" transform="matrix(1 0 0 1 1134 465 )" />
    <path d="M 84.3137254901961 0.491803278688522  L 26.2254901960784 0  L 0.490196078431367 29.7540983606557  L 26.2254901960784 59.2622950819672  L 84.3137254901961 59.2622950819672  C 84.3137254901961 59.2622950819672  99.5356465291967 46.2669722352258  99.5098039215686 29.7540983606557  C 99.4841402768534 13.355577961988  84.3137254901961 0.491803278688522  84.3137254901961 0.491803278688522  Z " stroke-width="2" stroke="#797979" fill="none" transform="matrix(1 0 0 1 1134 465 )" mask="url(#clip839)" />
  </g>
</svg>