<?xml version="1.0" encoding="utf-8"?>
<svg version="1.1" xmlns:xlink="http://www.w3.org/1999/xlink" width="10px" height="10px" xmlns="http://www.w3.org/2000/svg">
  <g transform="matrix(1 0 0 1 -573 -18 )">
    <path d="M 4.35606060606061 0.109328579916811  C 4.35606060606061 0.0364428599722743  4.39402191853172 0  4.46994454347396 0  L 5.32407407407407 0  C 5.39999669901631 0  5.43795801148742 0.0364428599722743  5.43795801148742 0.109328579916811  L 5.43795801148742 9.73024361259656  C 5.43795801148742 9.8031293325411  5.39999669901631 9.83957219251337  5.32407407407407 9.83957219251337  L 4.46994454347396 9.83957219251337  C 4.39402191853172 9.83957219251337  4.35606060606061 9.8031293325411  4.35606060606061 9.73024361259656  L 4.35606060606061 0.109328579916811  Z M 0 4.50980392156862  C 0 4.43691820162408  0.037961312471119 4.40047534165181  0.113883937413347 4.40047534165181  L 9.68013468013468 4.40047534165181  C 9.75605730507692 4.40047534165181  9.79401861754803 4.43691820162408  9.79401861754803 4.50980392156862  L 9.79401861754803 5.32976827094473  C 9.79401861754803 5.40265399088929  9.75605730507692 5.43909685086156  9.68013468013468 5.43909685086156  L 0.113883937413347 5.43909685086156  C 0.037961312471119 5.43909685086156  0 5.40265399088929  0 5.32976827094473  L 0 4.50980392156862  Z " fill-rule="nonzero" fill="#666666" stroke="none" transform="matrix(1 0 0 1 573 18 )" />
  </g>
</svg>