<?xml version="1.0" encoding="utf-8"?>
<svg version="1.1" xmlns:xlink="http://www.w3.org/1999/xlink" width="12px" height="15px" xmlns="http://www.w3.org/2000/svg">
  <g transform="matrix(1 0 0 1 -24 -150 )">
    <path d="M 11.9097744360902 9.14229910714286  C 11.9097744360902 8.32533482142857  11.7406015037594 7.53180803571428  11.4039473684211 6.78348214285714  C 11.0740601503759 6.05022321428571  10.6020676691729 5.40066964285714  10.0015037593985 4.85491071428571  L 9.50921052631579 4.40792410714286  C 9.43646616541354 4.34430803571429  9.32142857142857 4.37276785714286  9.28928571428572 4.46316964285714  L 9.06936090225564 5.08761160714286  C 8.93233082706767 5.47935267857143  8.68026315789474 5.87946428571429  8.32330827067669 6.27287946428571  C 8.29962406015038 6.29799107142857  8.27255639097745 6.3046875  8.25394736842105 6.30636160714286  C 8.23533834586467 6.30803571428572  8.20657894736842 6.3046875  8.1812030075188 6.28125  C 8.15751879699249 6.26116071428572  8.14567669172932 6.23102678571429  8.14736842105264 6.20089285714286  C 8.20996240601504 5.19308035714286  7.90545112781956 4.05636160714286  7.23890977443609 2.81919642857143  C 6.68740601503759 1.79129464285714  5.92105263157895 0.989397321428571  4.96353383458647 0.430245535714286  L 4.26484962406015 0.0234375000000009  C 4.17349624060151 -0.0301339285714275  4.05676691729323 0.0401785714285707  4.06184210526316 0.145647321428573  L 4.09906015037594 0.94921875  C 4.12443609022556 1.49832589285714  4.06015037593985 1.98381696428571  3.90789473684211 2.38727678571429  C 3.7218045112782 2.88113839285714  3.45451127819549 3.33984375  3.11278195488722 3.75167410714286  C 2.87255639097744 4.03962053571429  2.60357142857143 4.29910714285714  2.30921052631579 4.5234375  C 1.59699248120301 5.06417410714286  1.00996240601504 5.76897321428572  0.612406015037593 6.55747767857143  C 0.211466165413533 7.35435267857143  0 8.24665178571429  0 9.140625  C 0 9.93080357142857  0.157330827067668 10.6958705357143  0.468609022556391 11.4174107142857  C 0.769736842105263 12.1121651785714  1.19943609022556 12.73828125  1.74586466165414 13.2739955357143  C 2.29398496240601 13.8097098214286  2.93007518796993 14.2315848214286  3.63890977443609 14.5245535714286  C 4.37312030075188 14.8292410714286  5.15131578947368 14.9832589285714  5.95488721804511 14.9832589285714  C 6.75845864661654 14.9832589285714  7.53665413533835 14.8292410714286  8.27086466165414 14.5262276785714  C 8.9796992481203 14.2332589285714  9.61748120300752 13.8130580357143  10.1639097744361 13.2756696428571  C 10.712030075188 12.7399553571429  11.1417293233083 12.1138392857143  11.4411654135338 11.4190848214286  C 11.7524436090226 10.6975446428571  11.9097744360902 9.93247767857143  11.9097744360902 9.14229910714286  Z M 10.7593984962406 9.14229910714286  C 10.7593984962406 10.3962053571429  10.2603383458647 11.5764508928571  9.35526315789474 12.4637276785714  C 8.4468045112782 13.3543526785714  7.2406015037594 13.8431919642857  5.95488721804511 13.8431919642857  C 4.66917293233083 13.8431919642857  3.46296992481203 13.3543526785714  2.55451127819549 12.4637276785714  C 1.64943609022556 11.5747767857143  1.15037593984962 10.3962053571429  1.15037593984962 9.14229910714286  C 1.15037593984962 8.4140625  1.31616541353383 7.71595982142857  1.64266917293233 7.06640625  C 1.96071428571429 6.43191964285714  2.4343984962406 5.86439732142857  3.00958646616542 5.42745535714286  C 3.37330827067669 5.15290178571429  3.70657894736842 4.83314732142857  4.00093984962406 4.4765625  C 4.42387218045113 3.96595982142857  4.75545112781955 3.39676339285714  4.98552631578948 2.78571428571429  C 5.07687969924812 2.54296875  5.14624060150376 2.28348214285714  5.19022556390978 2.00725446428571  C 5.59793233082707 2.37890625  5.93966165413534 2.82756696428571  6.22556390977444 3.35323660714286  C 6.7906015037594 4.40122767857143  7.05112781954887 5.33370535714286  7.00037593984963 6.12723214285714  C 6.97669172932331 6.50892857142857  7.12725563909775 6.87220982142857  7.41315789473684 7.12834821428572  C 7.66184210526316 7.34933035714286  7.98327067669173 7.46149553571429  8.31654135338346 7.44308035714286  C 8.64981203007519 7.42633928571429  8.95601503759399 7.28069196428572  9.17932330827068 7.03459821428572  C 9.40432330827068 6.78515625  9.59887218045113 6.53069196428572  9.76127819548872 6.27120535714286  C 9.99812030075188 6.57087053571429  10.196052631579 6.89732142857143  10.3533834586466 7.24888392857143  C 10.6223684210526 7.84821428571429  10.7593984962406 8.48604910714286  10.7593984962406 9.14229910714286  Z " fill-rule="nonzero" fill="#d9001b" stroke="none" transform="matrix(1 0 0 1 24 150 )" />
  </g>
</svg>