<?xml version="1.0" encoding="utf-8"?>
<svg version="1.1" xmlns:xlink="http://www.w3.org/1999/xlink" width="80px" height="80px" xmlns="http://www.w3.org/2000/svg">
  <g transform="matrix(1 0 0 1 -10 -20 )">
    <path d="M 10 20  L 90 20  L 90 100  L 10 100  L 10 20  " fill-rule="nonzero" fill="#cccccc" stroke="none" />
    <path d="M 16 26  L 84 26  L 84 94  L 16 94  L 16 26  " fill-rule="nonzero" fill="#ffffff" stroke="none" />
    <path d="M 57.6 44  C 54.24 44  51.6 41.36  51.6 38  C 51.6 34.64  54.24 32  57.6 32  C 60.96 32  63.6 34.64  63.6 38  C 63.6 41.36  60.96 44  57.6 44  " fill-rule="nonzero" fill="#cccccc" stroke="none" />
    <path d="M 18 92  L 18 56.8  L 34 40.8  L 56.4 53.6  L 69.2 50.4  L 82 53.6  L 82 92  L 18 92  " fill-rule="nonzero" fill="#169bd5" stroke="none" />
  </g>
</svg>