<?xml version="1.0" encoding="utf-8"?>
<svg version="1.1" xmlns:xlink="http://www.w3.org/1999/xlink" width="12px" height="12px" viewBox="206 314.5  12 12" xmlns="http://www.w3.org/2000/svg">
  <path d="M 212 314.5  C 215.36 314.5  218 317.14  218 320.5  C 218 323.86  215.36 326.5  212 326.5  C 208.64 326.5  206 323.86  206 320.5  C 206 317.14  208.64 314.5  212 314.5  Z " fill-rule="nonzero" fill="#ffffff" stroke="none" />
  <path d="M 212 315  C 215.08 315  217.5 317.42  217.5 320.5  C 217.5 323.58  215.08 326  212 326  C 208.92 326  206.5 323.58  206.5 320.5  C 206.5 317.42  208.92 315  212 315  Z " stroke-width="1" stroke="#797979" fill="none" />
  <path d="M 212 323.5  C 210.32 323.5  209 322.18  209 320.5  C 209 318.82  210.32 317.5  212 317.5  C 213.68 317.5  215 318.82  215 320.5  C 215 322.18  213.68 323.5  212 323.5  " fill-rule="nonzero" fill="#797979" stroke="none" />
</svg>