<?xml version="1.0" encoding="utf-8"?>
<svg version="1.1" xmlns:xlink="http://www.w3.org/1999/xlink" width="12px" height="12px" viewBox="254 10.5  12 12" xmlns="http://www.w3.org/2000/svg">
  <path d="M 260 10.5  C 263.36 10.5  266 13.14  266 16.5  C 266 19.86  263.36 22.5  260 22.5  C 256.64 22.5  254 19.86  254 16.5  C 254 13.14  256.64 10.5  260 10.5  Z " fill-rule="nonzero" fill="#ffffff" stroke="none" />
  <path d="M 260 11  C 263.08 11  265.5 13.42  265.5 16.5  C 265.5 19.58  263.08 22  260 22  C 256.92 22  254.5 19.58  254.5 16.5  C 254.5 13.42  256.92 11  260 11  Z " stroke-width="1" stroke="#797979" fill="none" />
  <path d="M 260 19.5  C 258.32 19.5  257 18.18  257 16.5  C 257 14.82  258.32 13.5  260 13.5  C 261.68 13.5  263 14.82  263 16.5  C 263 18.18  261.68 19.5  260 19.5  " fill-rule="nonzero" fill="#797979" stroke="none" />
</svg>