<?xml version="1.0" encoding="utf-8"?>
<svg version="1.1" xmlns:xlink="http://www.w3.org/1999/xlink" width="12px" height="12px" viewBox="238 521.5  12 12" xmlns="http://www.w3.org/2000/svg">
  <path d="M 244 521.5  C 247.36 521.5  250 524.14  250 527.5  C 250 530.86  247.36 533.5  244 533.5  C 240.64 533.5  238 530.86  238 527.5  C 238 524.14  240.64 521.5  244 521.5  Z " fill-rule="nonzero" fill="#ffffff" stroke="none" />
  <path d="M 244 522  C 247.08 522  249.5 524.42  249.5 527.5  C 249.5 530.58  247.08 533  244 533  C 240.92 533  238.5 530.58  238.5 527.5  C 238.5 524.42  240.92 522  244 522  Z " stroke-width="1" stroke="#797979" fill="none" />
  <path d="M 244 530.5  C 242.32 530.5  241 529.18  241 527.5  C 241 525.82  242.32 524.5  244 524.5  C 245.68 524.5  247 525.82  247 527.5  C 247 529.18  245.68 530.5  244 530.5  " fill-rule="nonzero" fill="#797979" stroke="none" />
</svg>