<?xml version="1.0" encoding="utf-8"?>
<svg version="1.1" xmlns:xlink="http://www.w3.org/1999/xlink" width="12px" height="12px" viewBox="190 11.5  12 12" xmlns="http://www.w3.org/2000/svg">
  <path d="M 196 11.5  C 199.36 11.5  202 14.14  202 17.5  C 202 20.86  199.36 23.5  196 23.5  C 192.64 23.5  190 20.86  190 17.5  C 190 14.14  192.64 11.5  196 11.5  Z " fill-rule="nonzero" fill="#ffffff" stroke="none" />
  <path d="M 196 12  C 199.08 12  201.5 14.42  201.5 17.5  C 201.5 20.58  199.08 23  196 23  C 192.92 23  190.5 20.58  190.5 17.5  C 190.5 14.42  192.92 12  196 12  Z " stroke-width="1" stroke="#797979" fill="none" />
  <path d="M 196 20.5  C 194.32 20.5  193 19.18  193 17.5  C 193 15.82  194.32 14.5  196 14.5  C 197.68 14.5  199 15.82  199 17.5  C 199 19.18  197.68 20.5  196 20.5  " fill-rule="nonzero" fill="#797979" stroke="none" />
</svg>