<?xml version="1.0" encoding="utf-8"?>
<svg version="1.1" xmlns:xlink="http://www.w3.org/1999/xlink" width="46px" height="46px" xmlns="http://www.w3.org/2000/svg">
  <g transform="matrix(1 0 0 1 -202 -1681 )">
    <path d="M 225 1681  C 237.88 1681  248 1691.12  248 1704  C 248 1716.88  237.88 1727  225 1727  C 212.12 1727  202 1716.88  202 1704  C 202 1691.12  212.12 1681  225 1681  Z " fill-rule="nonzero" fill="#ffffff" stroke="none" />
    <path d="M 225 1681.5  C 237.6 1681.5  247.5 1691.4  247.5 1704  C 247.5 1716.6  237.6 1726.5  225 1726.5  C 212.4 1726.5  202.5 1716.6  202.5 1704  C 202.5 1691.4  212.4 1681.5  225 1681.5  Z " stroke-width="1" stroke="#aaaaaa" fill="none" />
  </g>
</svg>