<?xml version="1.0" encoding="utf-8"?>
<svg version="1.1" xmlns:xlink="http://www.w3.org/1999/xlink" width="108px" height="108px" xmlns="http://www.w3.org/2000/svg">
  <g transform="matrix(1 0 0 1 -537 -1401 )">
    <path d="M 591 1401  C 621.24 1401  645 1424.76  645 1455  C 645 1485.24  621.24 1509  591 1509  C 560.76 1509  537 1485.24  537 1455  C 537 1424.76  560.76 1401  591 1401  Z " fill-rule="nonzero" fill="#ffffff" stroke="none" />
    <path d="M 591 1401.5  C 620.96 1401.5  644.5 1425.04  644.5 1455  C 644.5 1484.96  620.96 1508.5  591 1508.5  C 561.04 1508.5  537.5 1484.96  537.5 1455  C 537.5 1425.04  561.04 1401.5  591 1401.5  Z " stroke-width="1" stroke="#797979" fill="none" />
  </g>
</svg>