<?xml version="1.0" encoding="utf-8"?>
<svg version="1.1" xmlns:xlink="http://www.w3.org/1999/xlink" width="300px" height="170px" xmlns="http://www.w3.org/2000/svg">
  <g transform="matrix(1 0 0 1 -269 -1765 )">
    <path d="M 269 1765  L 569 1765  L 569 1935  L 269 1935  L 269 1765  " fill-rule="nonzero" fill="#cccccc" stroke="none" />
    <path d="M 281 1777  L 557 1777  L 557 1923  L 281 1923  L 281 1777  " fill-rule="nonzero" fill="#ffffff" stroke="none" />
    <path d="M 437.75 1816  C 430.61 1816  425 1810.39  425 1803.25  C 425 1796.11  430.61 1790.5  437.75 1790.5  C 444.89 1790.5  450.5 1796.11  450.5 1803.25  C 450.5 1810.39  444.89 1816  437.75 1816  " fill-rule="nonzero" fill="#cccccc" stroke="none" />
    <path d="M 286 1919  L 286 1843.65  L 352.75 1809.4  L 446.2 1872.42  L 499.6 1829.95  L 553 1872.42  L 553 1919  L 286 1919  " fill-rule="nonzero" fill="#169bd5" stroke="none" />
  </g>
</svg>