<?xml version="1.0" encoding="utf-8"?>
<svg version="1.1" xmlns:xlink="http://www.w3.org/1999/xlink" width="794px" height="291px" xmlns="http://www.w3.org/2000/svg">
  <defs>
    <mask fill="white" id="clip241">
      <path d="M 0 286  L 1.04517262293768E-05 14.8730577728893  C 0.653210444672226 14.9568398098636  1.32071974186297 15  2 15  C 10.4 15  17 8.40000000000009  16.9984814310785 0  L 779 0  C 779 8.40000000000009  785.6 15  794 15.0000664978754  L 794 286  C 794 288.8  791.8 291  789 291  L 5 291  C 2.2 291  0 288.8  0 286  Z " fill-rule="evenodd" />
    </mask>
  </defs>
  <g transform="matrix(1 0 0 1 -18 -1313 )">
    <path d="M 0 286  L 1.04517262293768E-05 14.8730577728893  C 0.653210444672226 14.9568398098636  1.32071974186297 15  2 15  C 10.4 15  17 8.40000000000009  16.9984814310785 0  L 779 0  C 779 8.40000000000009  785.6 15  794 15.0000664978754  L 794 286  C 794 288.8  791.8 291  789 291  L 5 291  C 2.2 291  0 288.8  0 286  Z " fill-rule="nonzero" fill="#ffffff" stroke="none" transform="matrix(1 0 0 1 18 1313 )" />
    <path d="M 0 286  L 1.04517262293768E-05 14.8730577728893  C 0.653210444672226 14.9568398098636  1.32071974186297 15  2 15  C 10.4 15  17 8.40000000000009  16.9984814310785 0  L 779 0  C 779 8.40000000000009  785.6 15  794 15.0000664978754  L 794 286  C 794 288.8  791.8 291  789 291  L 5 291  C 2.2 291  0 288.8  0 286  Z " stroke-width="2" stroke="#d7d7d7" fill="none" transform="matrix(1 0 0 1 18 1313 )" mask="url(#clip241)" />
  </g>
</svg>