<?xml version="1.0" encoding="utf-8"?>
<svg version="1.1" xmlns:xlink="http://www.w3.org/1999/xlink" width="828px" height="242px" xmlns="http://www.w3.org/2000/svg">
  <g transform="matrix(1 0 0 1 0 -1608 )">
    <path d="M 0 1608  L 828 1608  L 828 1850  L 0 1850  L 0 1608  " fill-rule="nonzero" fill="#cccccc" stroke="none" />
    <path d="M 17 1625  L 811 1625  L 811 1833  L 17 1833  L 17 1625  " fill-rule="nonzero" fill="#ffffff" stroke="none" />
    <path d="M 448.71 1680.6  C 438.546 1680.6  430.56 1672.614  430.56 1662.45  C 430.56 1652.286  438.546 1644.3  448.71 1644.3  C 458.874 1644.3  466.86 1652.286  466.86 1662.45  C 466.86 1672.614  458.874 1680.6  448.71 1680.6  " fill-rule="nonzero" fill="#cccccc" stroke="none" />
    <path d="M 23 1827  L 23 1719.2  L 218.5 1670.2  L 492.2 1792.62898550725  L 648.6 1699.6  L 805 1792.62898550725  L 805 1827  L 23 1827  " fill-rule="nonzero" fill="#169bd5" stroke="none" />
  </g>
</svg>