<?xml version="1.0" encoding="utf-8"?>
<svg version="1.1" xmlns:xlink="http://www.w3.org/1999/xlink" width="91px" height="63px" xmlns="http://www.w3.org/2000/svg">
  <g transform="matrix(1 0 0 1 -240 -725 )">
    <path d="M 88.7126358695652 27.8607188703466  C 90.2375452898551 28.8042362002567  91 30.0173299101412  91 31.5  C 91 32.9557124518614  90.2375452898551 34.1822849807445  88.7126358695652 35.1797175866496  L 48.4673913043478 61.5038510911425  C 46.8600543478261 62.5012836970475  44.9848278985507 63  42.8417119565217 63  C 40.7398097826087 63  38.8851902173913 62.5012836970475  37.2778532608696 61.5038510911425  L 32.6413043478261 58.4711168164313  C 31.0751811594203 57.4467265725289  30.2921195652174 56.2201540436457  30.2921195652174 54.7913992297818  C 30.2921195652174 53.3626444159178  31.0751811594203 52.1360718870347  32.6413043478261 51.1116816431322  L 50.7547554347826 39  L 7.23301630434783 39  C 5.08990036231884 39.2637997432606  3.34861865942029 38.7583440308087  2.00917119565217 37.747432605905  C 0.669723731884058 36.7365211810013  0 35.5166880616175  0 34.0879332477535  L 0 28.9120667522465  C 0 27.4833119383825  0.669723731884058 26.2634788189987  2.00917119565217 25.252567394095  C 3.34861865942029 24.2416559691913  5.08990036231884 23.7362002567394  7.23301630434783 24  L 50.7547554347826 24  L 32.6413043478261 11.8478818998716  C 31.0751811594203 10.8774069319641  30.2921195652174 9.66431322207959  30.2921195652174 8.20860077021823  C 30.2921195652174 6.75288831835687  31.0751811594203 5.5397946084724  32.6413043478261 4.56931964056482  L 37.2778532608696 1.53658536585366  C 38.8439764492754 0.512195121951215  40.6985960144928 0  42.8417119565217 0  C 45.0260416666667 0  46.901268115942 0.512195121951215  48.4673913043478 1.53658536585366  L 88.7126358695652 27.8607188703466  Z " fill-rule="nonzero" fill="#cfcfcf" stroke="none" transform="matrix(1 0 0 1 240 725 )" />
  </g>
</svg>