<?xml version="1.0" encoding="utf-8"?>
<svg version="1.1" xmlns:xlink="http://www.w3.org/1999/xlink" width="91px" height="59px" xmlns="http://www.w3.org/2000/svg">
  <g transform="matrix(1 0 0 1 -475 -727 )">
    <path d="M 88.7126358695652 26.091784338896  C 90.2375452898551 26.9753958065896  91 28.1114676936243  91 29.5  C 91 30.8632862644416  90.2375452898551 32.0119811724433  88.7126358695652 32.9460847240051  L 48.4673913043478 57.5988446726573  C 46.8600543478261 58.5329482242191  44.9848278985507 59  42.8417119565217 59  C 40.7398097826087 59  38.8851902173913 58.5329482242191  37.2778532608696 57.5988446726573  L 32.6413043478261 54.7586649550706  C 31.0751811594203 53.7993153615747  30.2921195652174 52.650620453573  30.2921195652174 51.3125802310655  C 30.2921195652174 49.974540008558  31.0751811594203 48.8258451005563  32.6413043478261 47.8664955070603  L 50.7547554347826 36  L 7.23301630434783 36  C 5.08990036231884 36.7708600770218  3.34861865942029 36.2974967907574  2.00917119565217 35.3507702182285  C 0.669723731884058 34.4040436456996  0 33.2616602481814  0 31.9236200256739  L 0 27.0763799743261  C 0 25.7383397518186  0.669723731884058 24.5959563543004  2.00917119565217 23.6492297817715  C 3.34861865942029 22.7025032092426  5.08990036231884 22.2291399229782  7.23301630434783 23  L 50.7547554347826 23  L 32.6413043478261 11.0956354300385  C 31.0751811594203 10.1867779204108  30.2921195652174 9.05070603337613  30.2921195652174 7.68741976893453  C 30.2921195652174 6.32413350449294  31.0751811594203 5.18806161745828  32.6413043478261 4.27920410783055  L 37.2778532608696 1.4390243902439  C 38.8439764492754 0.479674796747964  40.6985960144928 0  42.8417119565217 0  C 45.0260416666667 0  46.901268115942 0.479674796747964  48.4673913043478 1.4390243902439  L 88.7126358695652 26.091784338896  Z " fill-rule="nonzero" fill="#cfcfcf" stroke="none" transform="matrix(1 0 0 1 475 727 )" />
  </g>
</svg>